<svg xmlns="http://www.w3.org/2000/svg" xmlns:xlink="http://www.w3.org/1999/xlink" width="595" zoomAndPan="magnify" viewBox="0 0 446.25 84.749999" height="113" preserveAspectRatio="xMidYMid meet" version="1.0"><defs><g/><clipPath id="3630b7eda6"><path d="M 100 3 L 445.21875 3 L 445.21875 81 L 100 81 Z M 100 3 " clip-rule="nonzero"/></clipPath><clipPath id="76d58f8a5c"><rect x="0" width="346" y="0" height="78"/></clipPath><clipPath id="a8f7e2da5d"><path d="M 0.28125 0 L 84.78125 0 L 84.78125 84.5 L 0.28125 84.5 Z M 0.28125 0 " clip-rule="nonzero"/></clipPath></defs><g clip-path="url(#3630b7eda6)"><g transform="matrix(1, 0, 0, 1, 100, 3)"><g clip-path="url(#76d58f8a5c)"><g fill="#ffffff" fill-opacity="1"><g transform="translate(0.238735, 57.951287)"><g><path d="M 29.25 -26.59375 C 28.550781 -27.882812 27.546875 -28.867188 26.234375 -29.546875 C 24.921875 -30.234375 23.378906 -30.578125 21.609375 -30.578125 C 18.546875 -30.578125 16.085938 -29.570312 14.234375 -27.5625 C 12.390625 -25.550781 11.46875 -22.863281 11.46875 -19.5 C 11.46875 -15.914062 12.4375 -13.117188 14.375 -11.109375 C 16.3125 -9.097656 18.984375 -8.09375 22.390625 -8.09375 C 24.710938 -8.09375 26.675781 -8.679688 28.28125 -9.859375 C 29.882812 -11.046875 31.054688 -12.742188 31.796875 -14.953125 L 19.78125 -14.953125 L 19.78125 -21.9375 L 40.390625 -21.9375 L 40.390625 -13.125 C 39.691406 -10.757812 38.5 -8.5625 36.8125 -6.53125 C 35.132812 -4.5 33.003906 -2.851562 30.421875 -1.59375 C 27.835938 -0.34375 24.914062 0.28125 21.65625 0.28125 C 17.820312 0.28125 14.398438 -0.554688 11.390625 -2.234375 C 8.378906 -3.921875 6.03125 -6.257812 4.34375 -9.25 C 2.664062 -12.238281 1.828125 -15.65625 1.828125 -19.5 C 1.828125 -23.34375 2.664062 -26.769531 4.34375 -29.78125 C 6.03125 -32.789062 8.367188 -35.132812 11.359375 -36.8125 C 14.347656 -38.5 17.765625 -39.34375 21.609375 -39.34375 C 26.265625 -39.34375 30.1875 -38.210938 33.375 -35.953125 C 36.570312 -33.703125 38.6875 -30.582031 39.71875 -26.59375 Z M 29.25 -26.59375 "/></g></g></g><g fill="#ffffff" fill-opacity="1"><g transform="translate(40.128877, 57.951287)"><g><path d="M 12.90625 -25.765625 C 14.019531 -27.460938 15.40625 -28.800781 17.0625 -29.78125 C 18.726562 -30.757812 20.578125 -31.25 22.609375 -31.25 L 22.609375 -21.21875 L 20 -21.21875 C 17.632812 -21.21875 15.859375 -20.707031 14.671875 -19.6875 C 13.492188 -18.675781 12.90625 -16.894531 12.90625 -14.34375 L 12.90625 0 L 3.4375 0 L 3.4375 -30.921875 L 12.90625 -30.921875 Z M 12.90625 -25.765625 "/></g></g></g><g fill="#ffffff" fill-opacity="1"><g transform="translate(61.514131, 57.951287)"><g><path d="M 33.96875 -30.921875 L 33.96875 0 L 24.484375 0 L 24.484375 -4.203125 C 23.523438 -2.835938 22.222656 -1.738281 20.578125 -0.90625 C 18.941406 -0.0820312 17.125 0.328125 15.125 0.328125 C 12.757812 0.328125 10.671875 -0.195312 8.859375 -1.25 C 7.054688 -2.300781 5.65625 -3.820312 4.65625 -5.8125 C 3.65625 -7.8125 3.15625 -10.160156 3.15625 -12.859375 L 3.15625 -30.921875 L 12.578125 -30.921875 L 12.578125 -14.125 C 12.578125 -12.0625 13.113281 -10.457031 14.1875 -9.3125 C 15.257812 -8.164062 16.695312 -7.59375 18.5 -7.59375 C 20.351562 -7.59375 21.8125 -8.164062 22.875 -9.3125 C 23.945312 -10.457031 24.484375 -12.0625 24.484375 -14.125 L 24.484375 -30.921875 Z M 33.96875 -30.921875 "/></g></g></g><g fill="#ffffff" fill-opacity="1"><g transform="translate(96.528736, 57.951287)"><g><path d="M 12.90625 -26.546875 C 13.832031 -27.984375 15.109375 -29.144531 16.734375 -30.03125 C 18.359375 -30.914062 20.257812 -31.359375 22.4375 -31.359375 C 24.988281 -31.359375 27.296875 -30.710938 29.359375 -29.421875 C 31.429688 -28.128906 33.066406 -26.28125 34.265625 -23.875 C 35.460938 -21.476562 36.0625 -18.691406 36.0625 -15.515625 C 36.0625 -12.335938 35.460938 -9.535156 34.265625 -7.109375 C 33.066406 -4.691406 31.429688 -2.828125 29.359375 -1.515625 C 27.296875 -0.210938 24.988281 0.4375 22.4375 0.4375 C 20.289062 0.4375 18.394531 -0.00390625 16.75 -0.890625 C 15.113281 -1.773438 13.832031 -2.921875 12.90625 -4.328125 L 12.90625 14.734375 L 3.4375 14.734375 L 3.4375 -30.921875 L 12.90625 -30.921875 Z M 26.421875 -15.515625 C 26.421875 -17.878906 25.765625 -19.734375 24.453125 -21.078125 C 23.148438 -22.429688 21.535156 -23.109375 19.609375 -23.109375 C 17.722656 -23.109375 16.125 -22.421875 14.8125 -21.046875 C 13.507812 -19.679688 12.859375 -17.816406 12.859375 -15.453125 C 12.859375 -13.085938 13.507812 -11.222656 14.8125 -9.859375 C 16.125 -8.492188 17.722656 -7.8125 19.609375 -7.8125 C 21.492188 -7.8125 23.097656 -8.503906 24.421875 -9.890625 C 25.753906 -11.273438 26.421875 -13.148438 26.421875 -15.515625 Z M 26.421875 -15.515625 "/></g></g></g><g fill="#ffffff" fill-opacity="1"><g transform="translate(131.820357, 57.951287)"><g><path d="M 17.515625 0.4375 C 14.484375 0.4375 11.753906 -0.207031 9.328125 -1.5 C 6.910156 -2.789062 5.007812 -4.632812 3.625 -7.03125 C 2.238281 -9.4375 1.546875 -12.242188 1.546875 -15.453125 C 1.546875 -18.628906 2.25 -21.425781 3.65625 -23.84375 C 5.0625 -26.269531 6.984375 -28.128906 9.421875 -29.421875 C 11.859375 -30.710938 14.59375 -31.359375 17.625 -31.359375 C 20.644531 -31.359375 23.375 -30.710938 25.8125 -29.421875 C 28.25 -28.128906 30.171875 -26.269531 31.578125 -23.84375 C 32.984375 -21.425781 33.6875 -18.628906 33.6875 -15.453125 C 33.6875 -12.273438 32.972656 -9.476562 31.546875 -7.0625 C 30.128906 -4.644531 28.191406 -2.789062 25.734375 -1.5 C 23.273438 -0.207031 20.535156 0.4375 17.515625 0.4375 Z M 17.515625 -7.75 C 19.316406 -7.75 20.851562 -8.414062 22.125 -9.75 C 23.40625 -11.082031 24.046875 -12.984375 24.046875 -15.453125 C 24.046875 -17.929688 23.425781 -19.832031 22.1875 -21.15625 C 20.945312 -22.488281 19.425781 -23.15625 17.625 -23.15625 C 15.769531 -23.15625 14.234375 -22.5 13.015625 -21.1875 C 11.796875 -19.875 11.1875 -17.960938 11.1875 -15.453125 C 11.1875 -12.984375 11.785156 -11.082031 12.984375 -9.75 C 14.191406 -8.414062 15.703125 -7.75 17.515625 -7.75 Z M 17.515625 -7.75 "/></g></g></g><g fill="#ffffff" fill-opacity="1"><g transform="translate(164.785017, 57.951287)"><g/></g></g><g fill="#ffffff" fill-opacity="1"><g transform="translate(174.203043, 57.951287)"><g><path d="M 1.828125 -19.5 C 1.828125 -23.34375 2.65625 -26.769531 4.3125 -29.78125 C 5.976562 -32.789062 8.296875 -35.132812 11.265625 -36.8125 C 14.242188 -38.5 17.617188 -39.34375 21.390625 -39.34375 C 26.003906 -39.34375 29.953125 -38.125 33.234375 -35.6875 C 36.523438 -33.25 38.726562 -29.921875 39.84375 -25.703125 L 29.421875 -25.703125 C 28.640625 -27.328125 27.535156 -28.5625 26.109375 -29.40625 C 24.691406 -30.257812 23.082031 -30.6875 21.28125 -30.6875 C 18.363281 -30.6875 16 -29.671875 14.1875 -27.640625 C 12.375 -25.609375 11.46875 -22.894531 11.46875 -19.5 C 11.46875 -16.101562 12.375 -13.390625 14.1875 -11.359375 C 16 -9.328125 18.363281 -8.3125 21.28125 -8.3125 C 23.082031 -8.3125 24.691406 -8.734375 26.109375 -9.578125 C 27.535156 -10.429688 28.640625 -11.671875 29.421875 -13.296875 L 39.84375 -13.296875 C 38.726562 -9.085938 36.523438 -5.769531 33.234375 -3.34375 C 29.953125 -0.925781 26.003906 0.28125 21.390625 0.28125 C 17.617188 0.28125 14.242188 -0.554688 11.265625 -2.234375 C 8.296875 -3.921875 5.976562 -6.257812 4.3125 -9.25 C 2.65625 -12.238281 1.828125 -15.65625 1.828125 -19.5 Z M 1.828125 -19.5 "/></g></g></g><g fill="#ffffff" fill-opacity="1"><g transform="translate(214.093185, 57.951287)"><g><path d="M 17.515625 0.4375 C 14.484375 0.4375 11.753906 -0.207031 9.328125 -1.5 C 6.910156 -2.789062 5.007812 -4.632812 3.625 -7.03125 C 2.238281 -9.4375 1.546875 -12.242188 1.546875 -15.453125 C 1.546875 -18.628906 2.25 -21.425781 3.65625 -23.84375 C 5.0625 -26.269531 6.984375 -28.128906 9.421875 -29.421875 C 11.859375 -30.710938 14.59375 -31.359375 17.625 -31.359375 C 20.644531 -31.359375 23.375 -30.710938 25.8125 -29.421875 C 28.25 -28.128906 30.171875 -26.269531 31.578125 -23.84375 C 32.984375 -21.425781 33.6875 -18.628906 33.6875 -15.453125 C 33.6875 -12.273438 32.972656 -9.476562 31.546875 -7.0625 C 30.128906 -4.644531 28.191406 -2.789062 25.734375 -1.5 C 23.273438 -0.207031 20.535156 0.4375 17.515625 0.4375 Z M 17.515625 -7.75 C 19.316406 -7.75 20.851562 -8.414062 22.125 -9.75 C 23.40625 -11.082031 24.046875 -12.984375 24.046875 -15.453125 C 24.046875 -17.929688 23.425781 -19.832031 22.1875 -21.15625 C 20.945312 -22.488281 19.425781 -23.15625 17.625 -23.15625 C 15.769531 -23.15625 14.234375 -22.5 13.015625 -21.1875 C 11.796875 -19.875 11.1875 -17.960938 11.1875 -15.453125 C 11.1875 -12.984375 11.785156 -11.082031 12.984375 -9.75 C 14.191406 -8.414062 15.703125 -7.75 17.515625 -7.75 Z M 17.515625 -7.75 "/></g></g></g><g fill="#ffffff" fill-opacity="1"><g transform="translate(247.057855, 57.951287)"><g><path d="M 12.90625 -41 L 12.90625 0 L 3.4375 0 L 3.4375 -41 Z M 12.90625 -41 "/></g></g></g><g fill="#ffffff" fill-opacity="1"><g transform="translate(261.07439, 57.951287)"><g><path d="M 17.515625 0.4375 C 14.484375 0.4375 11.753906 -0.207031 9.328125 -1.5 C 6.910156 -2.789062 5.007812 -4.632812 3.625 -7.03125 C 2.238281 -9.4375 1.546875 -12.242188 1.546875 -15.453125 C 1.546875 -18.628906 2.25 -21.425781 3.65625 -23.84375 C 5.0625 -26.269531 6.984375 -28.128906 9.421875 -29.421875 C 11.859375 -30.710938 14.59375 -31.359375 17.625 -31.359375 C 20.644531 -31.359375 23.375 -30.710938 25.8125 -29.421875 C 28.25 -28.128906 30.171875 -26.269531 31.578125 -23.84375 C 32.984375 -21.425781 33.6875 -18.628906 33.6875 -15.453125 C 33.6875 -12.273438 32.972656 -9.476562 31.546875 -7.0625 C 30.128906 -4.644531 28.191406 -2.789062 25.734375 -1.5 C 23.273438 -0.207031 20.535156 0.4375 17.515625 0.4375 Z M 17.515625 -7.75 C 19.316406 -7.75 20.851562 -8.414062 22.125 -9.75 C 23.40625 -11.082031 24.046875 -12.984375 24.046875 -15.453125 C 24.046875 -17.929688 23.425781 -19.832031 22.1875 -21.15625 C 20.945312 -22.488281 19.425781 -23.15625 17.625 -23.15625 C 15.769531 -23.15625 14.234375 -22.5 13.015625 -21.1875 C 11.796875 -19.875 11.1875 -17.960938 11.1875 -15.453125 C 11.1875 -12.984375 11.785156 -11.082031 12.984375 -9.75 C 14.191406 -8.414062 15.703125 -7.75 17.515625 -7.75 Z M 17.515625 -7.75 "/></g></g></g><g fill="#ffffff" fill-opacity="1"><g transform="translate(294.039061, 57.951287)"><g><path d="M 12.90625 -25.765625 C 14.019531 -27.460938 15.40625 -28.800781 17.0625 -29.78125 C 18.726562 -30.757812 20.578125 -31.25 22.609375 -31.25 L 22.609375 -21.21875 L 20 -21.21875 C 17.632812 -21.21875 15.859375 -20.707031 14.671875 -19.6875 C 13.492188 -18.675781 12.90625 -16.894531 12.90625 -14.34375 L 12.90625 0 L 3.4375 0 L 3.4375 -30.921875 L 12.90625 -30.921875 Z M 12.90625 -25.765625 "/></g></g></g><g fill="#ffffff" fill-opacity="1"><g transform="translate(315.424315, 57.951287)"><g><path d="M 16.015625 0.4375 C 13.316406 0.4375 10.914062 -0.0195312 8.8125 -0.9375 C 6.707031 -1.863281 5.046875 -3.128906 3.828125 -4.734375 C 2.609375 -6.335938 1.921875 -8.140625 1.765625 -10.140625 L 11.140625 -10.140625 C 11.242188 -9.066406 11.738281 -8.195312 12.625 -7.53125 C 13.519531 -6.863281 14.613281 -6.53125 15.90625 -6.53125 C 17.082031 -6.53125 17.992188 -6.757812 18.640625 -7.21875 C 19.285156 -7.6875 19.609375 -8.289062 19.609375 -9.03125 C 19.609375 -9.914062 19.144531 -10.570312 18.21875 -11 C 17.300781 -11.425781 15.804688 -11.894531 13.734375 -12.40625 C 11.523438 -12.925781 9.679688 -13.472656 8.203125 -14.046875 C 6.722656 -14.617188 5.445312 -15.519531 4.375 -16.75 C 3.300781 -17.988281 2.765625 -19.664062 2.765625 -21.78125 C 2.765625 -23.550781 3.253906 -25.164062 4.234375 -26.625 C 5.210938 -28.082031 6.648438 -29.234375 8.546875 -30.078125 C 10.453125 -30.929688 12.71875 -31.359375 15.34375 -31.359375 C 19.226562 -31.359375 22.285156 -30.394531 24.515625 -28.46875 C 26.753906 -26.550781 28.039062 -24.003906 28.375 -20.828125 L 19.609375 -20.828125 C 19.460938 -21.898438 18.992188 -22.75 18.203125 -23.375 C 17.410156 -24.007812 16.367188 -24.328125 15.078125 -24.328125 C 13.960938 -24.328125 13.109375 -24.113281 12.515625 -23.6875 C 11.929688 -23.257812 11.640625 -22.675781 11.640625 -21.9375 C 11.640625 -21.050781 12.109375 -20.382812 13.046875 -19.9375 C 13.992188 -19.5 15.460938 -19.054688 17.453125 -18.609375 C 19.742188 -18.023438 21.609375 -17.445312 23.046875 -16.875 C 24.484375 -16.300781 25.75 -15.375 26.84375 -14.09375 C 27.9375 -12.820312 28.5 -11.113281 28.53125 -8.96875 C 28.53125 -7.164062 28.019531 -5.550781 27 -4.125 C 25.988281 -2.707031 24.53125 -1.59375 22.625 -0.78125 C 20.726562 0.03125 18.523438 0.4375 16.015625 0.4375 Z M 16.015625 0.4375 "/></g></g></g></g></g></g><g clip-path="url(#a8f7e2da5d)"><path stroke-linecap="round" transform="matrix(0.534815, 0, 0, 0.534815, -15.227274, -10.696293)" fill="none" stroke-linejoin="miter" d="M 160.001238 52.999155 C 159.161286 51.983909 158.292118 50.997878 157.393735 50.033759 C 156.502655 49.069641 155.58236 48.127434 154.632849 47.214442 C 153.683338 46.301451 152.711915 45.417675 151.711277 44.563115 C 150.710638 43.701252 149.688088 42.875907 148.643626 42.072475 C 147.599164 41.276346 146.53279 40.50213 145.444504 39.764433 C 144.356218 39.026736 143.246021 38.318255 142.121215 37.638989 C 140.989106 36.959723 139.842389 36.316978 138.681064 35.703447 C 137.512435 35.089917 136.329198 34.512907 135.131354 33.965112 C 133.933509 33.417317 132.721057 32.906042 131.5013 32.431286 C 130.27424 31.949227 129.032572 31.510991 127.783599 31.101971 C 126.527323 30.692951 125.263743 30.32045 123.992859 29.98447 C 122.721975 29.648489 121.443788 29.349028 120.150992 29.086086 C 118.8655 28.823145 117.5654 28.589419 116.265301 28.399517 C 114.957897 28.209614 113.657797 28.056232 112.34309 27.939369 C 111.035686 27.822506 109.720979 27.742163 108.406271 27.698339 C 107.091564 27.654516 105.769552 27.647212 104.454845 27.676427 C 103.140137 27.705643 101.82543 27.778683 100.518026 27.880938 C 99.203318 27.983193 97.895915 28.129271 96.588511 28.304566 C 95.288412 28.487164 93.988312 28.698978 92.695516 28.954615 C 91.40272 29.202949 90.117229 29.495106 88.846345 29.816479 C 87.568157 30.145156 86.304577 30.503049 85.048301 30.897461 C 83.792025 31.291873 82.550356 31.722805 81.315992 32.190257 C 80.088932 32.657708 78.869175 33.154376 77.671331 33.694866 C 76.466182 34.228053 75.275641 34.790456 74.107012 35.396682 C 72.938384 35.995605 71.784363 36.631047 70.652253 37.295704 C 69.51284 37.967666 68.395339 38.661539 67.299749 39.391932 C 66.204159 40.122325 65.130482 40.881934 64.078716 41.670759 C 63.02695 42.459583 61.997095 43.277624 60.989153 44.124879 C 59.98121 44.979439 59.002484 45.855911 58.045669 46.754295 C 57.088854 47.659982 56.153951 48.587581 55.255567 49.544396 C 54.34988 50.501211 53.473408 51.479938 52.618848 52.48788 C 51.771592 53.495823 50.953552 54.518373 50.157424 55.570139 C 49.368599 56.621905 48.60899 57.695583 47.878597 58.791172 C 47.148204 59.886762 46.447027 61.004263 45.782369 62.136373 C 45.110407 63.268482 44.474966 64.422503 43.876043 65.591132 C 43.269817 66.759761 42.70011 67.950302 42.166923 69.148146 C 41.626433 70.353295 41.129765 71.573051 40.662314 72.800112 C 40.194862 74.034476 39.756626 75.276144 39.362214 76.525116 C 38.967802 77.781392 38.602605 79.044972 38.273928 80.32316 C 37.952555 81.601348 37.660398 82.879536 37.404761 84.172332 C 37.156427 85.465127 36.937309 86.765227 36.754711 88.065327 C 36.579416 89.37273 36.433338 90.680134 36.323779 91.987538 C 36.221524 93.302245 36.148484 94.616953 36.119269 95.93166 C 36.082749 97.246368 36.090053 98.561075 36.133877 99.883087 C 36.170396 101.197794 36.25074 102.512502 36.367602 103.819905 C 36.484465 105.134613 36.637848 106.434713 36.82775 107.742116 C 37.017652 109.042216 37.244074 110.342316 37.507016 111.627807 C 37.769957 112.920603 38.069418 114.198791 38.398095 115.476979 C 38.734076 116.747863 39.106576 118.011443 39.515597 119.260415 C 39.917313 120.509387 40.362853 121.751055 40.837608 122.978116 C 41.312364 124.205176 41.823639 125.417629 42.36413 126.615473 C 42.911924 127.813318 43.488935 128.996555 44.102465 130.165184 C 44.715995 131.326509 45.358741 132.48053 46.030703 133.605335 C 46.709968 134.737444 47.41845 135.847642 48.156147 136.935927 C 48.893844 138.024213 49.660756 139.090587 50.456885 140.142353 C 51.260317 141.186815 52.085661 142.209365 52.940221 143.210004 C 53.802085 144.203338 54.685861 145.182065 55.591548 146.131576 C 56.504539 147.081087 57.446746 148.001382 58.403561 148.899766 C 59.36768 149.798149 60.361015 150.667317 61.368957 151.507269 C 62.384204 152.347221 63.421362 153.157957 64.480432 153.939478 C 65.539502 154.728303 66.61318 155.480607 67.716073 156.196393 C 68.818967 156.919482 69.936468 157.613355 71.075881 158.270709 C 72.215294 158.928063 73.376619 159.556201 74.552552 160.147819 C 75.721181 160.739438 76.911722 161.30184 78.124174 161.827723 C 79.329323 162.353606 80.549079 162.84297 81.783444 163.303117 C 83.017808 163.755961 84.26678 164.179589 85.523056 164.566697 C 86.779332 164.953806 88.050216 165.304394 89.328404 165.618463 C 90.606592 165.932532 91.892084 166.217386 93.18488 166.458415 C 94.477675 166.699445 95.777775 166.903955 97.085179 167.079249 C 98.385278 167.24724 99.692682 167.378711 101.007389 167.473662 C 102.322097 167.568613 103.636804 167.627044 104.951512 167.648956 C 106.26622 167.670868 107.580927 167.65626 108.895635 167.605132 C 110.217646 167.546701 111.52505 167.459054 112.839757 167.334887 C 114.147161 167.203416 115.454564 167.04273 116.754664 166.845524 C 118.054764 166.641014 119.347559 166.407288 120.633051 166.129738 C 121.925847 165.859493 123.204035 165.552728 124.474919 165.202139 C 125.745803 164.858855 127.002079 164.47905 128.251051 164.062726 C 129.500023 163.646402 130.734387 163.193558 131.961448 162.704195 C 133.181204 162.222136 134.393657 161.696252 135.584197 161.148458 C 136.774738 160.593359 137.957975 160.001741 139.1193 159.380906 C 140.273321 158.760072 141.420038 158.110023 142.544843 157.423453 C 143.669649 156.736884 144.772542 156.021098 145.853524 155.276097 C 146.934506 154.523793 148.00088 153.749576 149.038038 152.93884 C 150.075196 152.135407 151.090442 151.295455 152.083777 150.433591 C 153.077112 149.564424 154.04123 148.673344 154.983438 147.753049 C 155.925645 146.840057 156.84594 145.890546 157.729715 144.919124 C 158.620795 143.947701 159.482659 142.954366 160.315307 141.931816 C 161.147955 140.91657 161.951387 139.872107 162.725604 138.805734 C 163.499821 137.746664 164.237518 136.658378 164.953303 135.54818 C 165.669088 134.445287 166.348354 133.320482 166.998404 132.173764 C 167.648453 131.027047 168.261984 129.865722 168.846298 128.682486 C 169.430612 127.506553 169.978407 126.308708 170.496986 125.096256 C 171.008262 123.891107 171.490321 122.664047 171.935861 121.429682 C 172.381401 120.188014 172.797725 118.939042 173.170225 117.675462 C 173.550029 116.419186 173.893314 115.148302 174.192775 113.86281 C 174.49954 112.584622 174.769786 111.29913 175.003512 109.999031 " stroke="#ffffff" stroke-width="14" stroke-opacity="1" stroke-miterlimit="4"/></g><path fill="#3059a7" d="M 62.320312 41.179688 C 62.320312 41.882812 62.285156 42.582031 62.21875 43.277344 C 62.148438 43.976562 62.046875 44.667969 61.910156 45.355469 C 61.773438 46.042969 61.601562 46.71875 61.398438 47.390625 C 61.195312 48.0625 60.960938 48.71875 60.691406 49.367188 C 60.425781 50.015625 60.125 50.648438 59.792969 51.265625 C 59.464844 51.882812 59.105469 52.484375 58.714844 53.066406 C 58.328125 53.648438 57.910156 54.210938 57.464844 54.753906 C 57.019531 55.292969 56.550781 55.8125 56.054688 56.308594 C 55.558594 56.804688 55.042969 57.273438 54.5 57.71875 C 53.957031 58.160156 53.394531 58.578125 52.8125 58.96875 C 52.230469 59.355469 51.628906 59.71875 51.011719 60.046875 C 50.394531 60.378906 49.761719 60.675781 49.113281 60.945312 C 48.46875 61.214844 47.808594 61.449219 47.136719 61.652344 C 46.46875 61.855469 45.789062 62.027344 45.101562 62.164062 C 44.414062 62.300781 43.722656 62.402344 43.023438 62.46875 C 42.328125 62.539062 41.628906 62.574219 40.929688 62.574219 C 40.226562 62.574219 39.527344 62.539062 38.832031 62.46875 C 38.132812 62.402344 37.441406 62.300781 36.753906 62.164062 C 36.066406 62.027344 35.390625 61.855469 34.71875 61.652344 C 34.046875 61.449219 33.390625 61.214844 32.742188 60.945312 C 32.09375 60.675781 31.460938 60.378906 30.84375 60.046875 C 30.226562 59.71875 29.625 59.355469 29.042969 58.96875 C 28.460938 58.578125 27.898438 58.160156 27.355469 57.71875 C 26.816406 57.273438 26.296875 56.804688 25.800781 56.308594 C 25.304688 55.8125 24.835938 55.292969 24.390625 54.753906 C 23.945312 54.210938 23.53125 53.648438 23.140625 53.066406 C 22.75 52.484375 22.390625 51.882812 22.0625 51.265625 C 21.730469 50.648438 21.433594 50.015625 21.164062 49.367188 C 20.894531 48.71875 20.660156 48.0625 20.457031 47.390625 C 20.253906 46.71875 20.082031 46.042969 19.945312 45.355469 C 19.808594 44.667969 19.707031 43.976562 19.640625 43.277344 C 19.570312 42.582031 19.535156 41.882812 19.535156 41.179688 C 19.535156 40.480469 19.570312 39.78125 19.640625 39.082031 C 19.707031 38.386719 19.808594 37.695312 19.945312 37.007812 C 20.082031 36.320312 20.253906 35.640625 20.457031 34.972656 C 20.660156 34.300781 20.894531 33.640625 21.164062 32.996094 C 21.433594 32.347656 21.730469 31.714844 22.0625 31.097656 C 22.390625 30.476562 22.75 29.878906 23.140625 29.296875 C 23.53125 28.714844 23.945312 28.152344 24.390625 27.609375 C 24.835938 27.066406 25.304688 26.550781 25.800781 26.054688 C 26.296875 25.558594 26.816406 25.089844 27.355469 24.644531 C 27.898438 24.199219 28.460938 23.78125 29.042969 23.394531 C 29.625 23.003906 30.226562 22.644531 30.84375 22.3125 C 31.460938 21.984375 32.09375 21.683594 32.742188 21.417969 C 33.390625 21.148438 34.046875 20.914062 34.71875 20.710938 C 35.390625 20.507812 36.066406 20.335938 36.753906 20.199219 C 37.441406 20.0625 38.132812 19.960938 38.832031 19.890625 C 39.527344 19.824219 40.226562 19.789062 40.929688 19.789062 C 41.628906 19.789062 42.328125 19.824219 43.023438 19.890625 C 43.722656 19.960938 44.414062 20.0625 45.101562 20.199219 C 45.789062 20.335938 46.46875 20.507812 47.136719 20.710938 C 47.808594 20.914062 48.46875 21.148438 49.113281 21.417969 C 49.761719 21.683594 50.394531 21.984375 51.011719 22.3125 C 51.628906 22.644531 52.230469 23.003906 52.8125 23.394531 C 53.394531 23.78125 53.957031 24.199219 54.5 24.644531 C 55.042969 25.089844 55.558594 25.558594 56.054688 26.054688 C 56.550781 26.550781 57.019531 27.066406 57.464844 27.609375 C 57.910156 28.152344 58.328125 28.714844 58.714844 29.296875 C 59.105469 29.878906 59.464844 30.476562 59.792969 31.097656 C 60.125 31.714844 60.425781 32.347656 60.691406 32.996094 C 60.960938 33.640625 61.195312 34.300781 61.398438 34.972656 C 61.601562 35.640625 61.773438 36.320312 61.910156 37.007812 C 62.046875 37.695312 62.148438 38.386719 62.21875 39.082031 C 62.285156 39.78125 62.320312 40.480469 62.320312 41.179688 Z M 62.320312 41.179688 " fill-opacity="1" fill-rule="nonzero"/><path fill="#ffffff" d="M 51.089844 41.179688 C 51.089844 41.847656 51.023438 42.507812 50.894531 43.164062 C 50.765625 43.816406 50.570312 44.453125 50.316406 45.070312 C 50.0625 45.6875 49.746094 46.269531 49.378906 46.824219 C 49.007812 47.382812 48.585938 47.894531 48.113281 48.367188 C 47.640625 48.835938 47.128906 49.257812 46.574219 49.628906 C 46.019531 50 45.433594 50.3125 44.816406 50.570312 C 44.199219 50.824219 43.566406 51.015625 42.910156 51.148438 C 42.257812 51.277344 41.59375 51.34375 40.929688 51.34375 C 40.261719 51.34375 39.601562 51.277344 38.945312 51.148438 C 38.292969 51.015625 37.65625 50.824219 37.039062 50.570312 C 36.421875 50.3125 35.835938 50 35.28125 49.628906 C 34.726562 49.257812 34.214844 48.835938 33.742188 48.367188 C 33.269531 47.894531 32.851562 47.382812 32.480469 46.824219 C 32.109375 46.269531 31.796875 45.6875 31.539062 45.070312 C 31.285156 44.453125 31.09375 43.816406 30.960938 43.164062 C 30.832031 42.507812 30.765625 41.847656 30.765625 41.179688 C 30.765625 40.511719 30.832031 39.851562 30.960938 39.199219 C 31.09375 38.542969 31.285156 37.910156 31.539062 37.292969 C 31.796875 36.675781 32.109375 36.089844 32.480469 35.535156 C 32.851562 34.980469 33.269531 34.46875 33.742188 33.996094 C 34.214844 33.523438 34.726562 33.101562 35.28125 32.730469 C 35.835938 32.359375 36.421875 32.046875 37.039062 31.792969 C 37.65625 31.539062 38.292969 31.34375 38.945312 31.214844 C 39.601562 31.085938 40.261719 31.019531 40.929688 31.019531 C 41.59375 31.019531 42.257812 31.085938 42.910156 31.214844 C 43.566406 31.34375 44.199219 31.539062 44.816406 31.792969 C 45.433594 32.046875 46.019531 32.359375 46.574219 32.730469 C 47.128906 33.101562 47.640625 33.523438 48.113281 33.996094 C 48.585938 34.46875 49.007812 34.980469 49.378906 35.535156 C 49.746094 36.089844 50.0625 36.675781 50.316406 37.292969 C 50.570312 37.910156 50.765625 38.542969 50.894531 39.199219 C 51.023438 39.851562 51.089844 40.511719 51.089844 41.179688 Z M 51.089844 41.179688 " fill-opacity="1" fill-rule="nonzero"/><path fill="#db9d00" d="M 83.179688 32.089844 C 83.179688 32.40625 83.148438 32.71875 83.085938 33.027344 C 83.023438 33.339844 82.933594 33.640625 82.8125 33.929688 C 82.691406 34.222656 82.542969 34.5 82.367188 34.761719 C 82.191406 35.027344 81.992188 35.269531 81.769531 35.492188 C 81.546875 35.714844 81.300781 35.914062 81.039062 36.089844 C 80.777344 36.265625 80.5 36.414062 80.207031 36.535156 C 79.914062 36.65625 79.613281 36.75 79.304688 36.808594 C 78.996094 36.871094 78.679688 36.902344 78.367188 36.902344 C 78.050781 36.902344 77.734375 36.871094 77.425781 36.808594 C 77.117188 36.75 76.816406 36.65625 76.523438 36.535156 C 76.230469 36.414062 75.953125 36.265625 75.691406 36.089844 C 75.429688 35.914062 75.183594 35.714844 74.960938 35.492188 C 74.738281 35.269531 74.539062 35.027344 74.363281 34.761719 C 74.1875 34.5 74.039062 34.222656 73.917969 33.929688 C 73.796875 33.640625 73.707031 33.339844 73.644531 33.027344 C 73.582031 32.71875 73.550781 32.40625 73.550781 32.089844 C 73.550781 31.773438 73.582031 31.460938 73.644531 31.148438 C 73.707031 30.839844 73.796875 30.539062 73.917969 30.246094 C 74.039062 29.953125 74.1875 29.675781 74.363281 29.414062 C 74.539062 29.152344 74.738281 28.910156 74.960938 28.683594 C 75.183594 28.460938 75.429688 28.261719 75.691406 28.085938 C 75.953125 27.910156 76.230469 27.761719 76.523438 27.640625 C 76.816406 27.519531 77.117188 27.429688 77.425781 27.367188 C 77.734375 27.304688 78.050781 27.277344 78.367188 27.277344 C 78.679688 27.277344 78.996094 27.304688 79.304688 27.367188 C 79.613281 27.429688 79.914062 27.519531 80.207031 27.640625 C 80.5 27.761719 80.777344 27.910156 81.039062 28.085938 C 81.300781 28.261719 81.546875 28.460938 81.769531 28.683594 C 81.992188 28.910156 82.191406 29.152344 82.367188 29.414062 C 82.542969 29.675781 82.691406 29.953125 82.8125 30.246094 C 82.933594 30.539062 83.023438 30.839844 83.085938 31.148438 C 83.148438 31.460938 83.179688 31.773438 83.179688 32.089844 Z M 83.179688 32.089844 " fill-opacity="1" fill-rule="nonzero"/></svg>