<svg xmlns="http://www.w3.org/2000/svg" xmlns:xlink="http://www.w3.org/1999/xlink" width="500" zoomAndPan="magnify" viewBox="0 0 375 374.999991" height="500" preserveAspectRatio="xMidYMid meet" version="1.0"><defs><clipPath id="7502e3236e"><path d="M 0.390625 125 L 125.390625 125 L 125.390625 250 L 0.390625 250 Z M 0.390625 125 " clip-rule="nonzero"/></clipPath><clipPath id="522e127c38"><path d="M 62.890625 125 C 28.375 125 0.390625 152.980469 0.390625 187.5 C 0.390625 222.019531 28.375 250 62.890625 250 C 97.410156 250 125.390625 222.019531 125.390625 187.5 C 125.390625 152.980469 97.410156 125 62.890625 125 Z M 62.890625 125 " clip-rule="nonzero"/></clipPath><clipPath id="52cd816af1"><path d="M 0.390625 0 L 125.390625 0 L 125.390625 125 L 0.390625 125 Z M 0.390625 0 " clip-rule="nonzero"/></clipPath><clipPath id="3e930f5670"><path d="M 62.890625 0 C 28.375 0 0.390625 27.980469 0.390625 62.5 C 0.390625 97.019531 28.375 125 62.890625 125 C 97.410156 125 125.390625 97.019531 125.390625 62.5 C 125.390625 27.980469 97.410156 0 62.890625 0 Z M 62.890625 0 " clip-rule="nonzero"/></clipPath><clipPath id="a506c0e4de"><rect x="0" width="126" y="0" height="125"/></clipPath><clipPath id="2e7eff983c"><path d="M 124 125 L 249 125 L 249 250 L 124 250 Z M 124 125 " clip-rule="nonzero"/></clipPath><clipPath id="cc9e23025b"><path d="M 186.5 125 C 151.980469 125 124 152.980469 124 187.5 C 124 222.019531 151.980469 250 186.5 250 C 221.019531 250 249 222.019531 249 187.5 C 249 152.980469 221.019531 125 186.5 125 Z M 186.5 125 " clip-rule="nonzero"/></clipPath><clipPath id="c3e9ba85f3"><path d="M 0 0 L 125 0 L 125 125 L 0 125 Z M 0 0 " clip-rule="nonzero"/></clipPath><clipPath id="b31785c41a"><path d="M 62.5 0 C 27.980469 0 0 27.980469 0 62.5 C 0 97.019531 27.980469 125 62.5 125 C 97.019531 125 125 97.019531 125 62.5 C 125 27.980469 97.019531 0 62.5 0 Z M 62.5 0 " clip-rule="nonzero"/></clipPath><clipPath id="e69e8b8d16"><rect x="0" width="125" y="0" height="125"/></clipPath><clipPath id="69c9b3181b"><path d="M 124 1.390625 L 249 1.390625 L 249 126.390625 L 124 126.390625 Z M 124 1.390625 " clip-rule="nonzero"/></clipPath><clipPath id="1ef7cc0976"><path d="M 186.5 1.390625 C 151.980469 1.390625 124 29.375 124 63.890625 C 124 98.410156 151.980469 126.390625 186.5 126.390625 C 221.019531 126.390625 249 98.410156 249 63.890625 C 249 29.375 221.019531 1.390625 186.5 1.390625 Z M 186.5 1.390625 " clip-rule="nonzero"/></clipPath><clipPath id="990c25a9b0"><path d="M 0 0.390625 L 125 0.390625 L 125 125.390625 L 0 125.390625 Z M 0 0.390625 " clip-rule="nonzero"/></clipPath><clipPath id="fcffd0a144"><path d="M 62.5 0.390625 C 27.980469 0.390625 0 28.375 0 62.890625 C 0 97.410156 27.980469 125.390625 62.5 125.390625 C 97.019531 125.390625 125 97.410156 125 62.890625 C 125 28.375 97.019531 0.390625 62.5 0.390625 Z M 62.5 0.390625 " clip-rule="nonzero"/></clipPath><clipPath id="a38f48c733"><rect x="0" width="125" y="0" height="126"/></clipPath><clipPath id="f97d6a5a9f"><path d="M 247.609375 0 L 372.609375 0 L 372.609375 125 L 247.609375 125 Z M 247.609375 0 " clip-rule="nonzero"/></clipPath><clipPath id="b9f2dd18e0"><path d="M 310.109375 0 C 275.589844 0 247.609375 27.980469 247.609375 62.5 C 247.609375 97.019531 275.589844 125 310.109375 125 C 344.625 125 372.609375 97.019531 372.609375 62.5 C 372.609375 27.980469 344.625 0 310.109375 0 Z M 310.109375 0 " clip-rule="nonzero"/></clipPath><clipPath id="17d0a1bdf5"><path d="M 0.609375 0 L 125.609375 0 L 125.609375 125 L 0.609375 125 Z M 0.609375 0 " clip-rule="nonzero"/></clipPath><clipPath id="b1699cf552"><path d="M 63.109375 0 C 28.589844 0 0.609375 27.980469 0.609375 62.5 C 0.609375 97.019531 28.589844 125 63.109375 125 C 97.625 125 125.609375 97.019531 125.609375 62.5 C 125.609375 27.980469 97.625 0 63.109375 0 Z M 63.109375 0 " clip-rule="nonzero"/></clipPath><clipPath id="81dd3cfa9d"><rect x="0" width="126" y="0" height="125"/></clipPath><clipPath id="cc8dd2eb7f"><path d="M 124 248.609375 L 249 248.609375 L 249 373.609375 L 124 373.609375 Z M 124 248.609375 " clip-rule="nonzero"/></clipPath><clipPath id="6678b6dadc"><path d="M 186.5 248.609375 C 151.980469 248.609375 124 276.589844 124 311.109375 C 124 345.625 151.980469 373.609375 186.5 373.609375 C 221.019531 373.609375 249 345.625 249 311.109375 C 249 276.589844 221.019531 248.609375 186.5 248.609375 Z M 186.5 248.609375 " clip-rule="nonzero"/></clipPath><clipPath id="c15ef212f1"><path d="M 0 0.609375 L 125 0.609375 L 125 125.609375 L 0 125.609375 Z M 0 0.609375 " clip-rule="nonzero"/></clipPath><clipPath id="4088f9a902"><path d="M 62.5 0.609375 C 27.980469 0.609375 0 28.589844 0 63.109375 C 0 97.625 27.980469 125.609375 62.5 125.609375 C 97.019531 125.609375 125 97.625 125 63.109375 C 125 28.589844 97.019531 0.609375 62.5 0.609375 Z M 62.5 0.609375 " clip-rule="nonzero"/></clipPath><clipPath id="8a26ae539d"><rect x="0" width="125" y="0" height="126"/></clipPath><clipPath id="8151c41374"><path d="M 247.609375 250 L 372.609375 250 L 372.609375 375 L 247.609375 375 Z M 247.609375 250 " clip-rule="nonzero"/></clipPath><clipPath id="8139339ffd"><path d="M 310.109375 250 C 275.589844 250 247.609375 277.980469 247.609375 312.5 C 247.609375 347.019531 275.589844 375 310.109375 375 C 344.625 375 372.609375 347.019531 372.609375 312.5 C 372.609375 277.980469 344.625 250 310.109375 250 Z M 310.109375 250 " clip-rule="nonzero"/></clipPath><clipPath id="f37bd97cc9"><path d="M 0.609375 0 L 125.609375 0 L 125.609375 125 L 0.609375 125 Z M 0.609375 0 " clip-rule="nonzero"/></clipPath><clipPath id="cecff9fbe3"><path d="M 63.109375 0 C 28.589844 0 0.609375 27.980469 0.609375 62.5 C 0.609375 97.019531 28.589844 125 63.109375 125 C 97.625 125 125.609375 97.019531 125.609375 62.5 C 125.609375 27.980469 97.625 0 63.109375 0 Z M 63.109375 0 " clip-rule="nonzero"/></clipPath><clipPath id="09faa62e72"><rect x="0" width="126" y="0" height="125"/></clipPath><clipPath id="d11638b36e"><rect x="0" width="373" y="0" height="375"/></clipPath></defs><g transform="matrix(1, 0, 0, 1, 1, 0)"><g clip-path="url(#d11638b36e)"><g clip-path="url(#7502e3236e)"><g clip-path="url(#522e127c38)"><g transform="matrix(1, 0, 0, 1, 0, 125)"><g clip-path="url(#a506c0e4de)"><g clip-path="url(#52cd816af1)"><g clip-path="url(#3e930f5670)"><path fill="#fd6500" d="M 0.390625 0 L 125.390625 0 L 125.390625 125 L 0.390625 125 Z M 0.390625 0 " fill-opacity="1" fill-rule="nonzero"/></g></g></g></g></g></g><g clip-path="url(#2e7eff983c)"><g clip-path="url(#cc9e23025b)"><g transform="matrix(1, 0, 0, 1, 124, 125)"><g clip-path="url(#e69e8b8d16)"><g clip-path="url(#c3e9ba85f3)"><g clip-path="url(#b31785c41a)"><rect x="-261.5" width="648" fill="#fd6500" y="-261.499997" height="647.999984" fill-opacity="1"/></g></g></g></g></g></g><g clip-path="url(#69c9b3181b)"><g clip-path="url(#1ef7cc0976)"><g transform="matrix(1, 0, 0, 1, 124, 1)"><g clip-path="url(#a38f48c733)"><g clip-path="url(#990c25a9b0)"><g clip-path="url(#fcffd0a144)"><path fill="#fd6500" d="M 0 0.390625 L 125 0.390625 L 125 125.390625 L 0 125.390625 Z M 0 0.390625 " fill-opacity="1" fill-rule="nonzero"/></g></g></g></g></g></g><g clip-path="url(#f97d6a5a9f)"><g clip-path="url(#b9f2dd18e0)"><g transform="matrix(1, 0, 0, 1, 247, 0)"><g clip-path="url(#81dd3cfa9d)"><g clip-path="url(#17d0a1bdf5)"><g clip-path="url(#b1699cf552)"><path fill="#fd6500" d="M 0.609375 0 L 125.609375 0 L 125.609375 125 L 0.609375 125 Z M 0.609375 0 " fill-opacity="1" fill-rule="nonzero"/></g></g></g></g></g></g><g clip-path="url(#cc8dd2eb7f)"><g clip-path="url(#6678b6dadc)"><g transform="matrix(1, 0, 0, 1, 124, 248)"><g clip-path="url(#8a26ae539d)"><g clip-path="url(#c15ef212f1)"><g clip-path="url(#4088f9a902)"><path fill="#fd6500" d="M 0 0.609375 L 125 0.609375 L 125 125.609375 L 0 125.609375 Z M 0 0.609375 " fill-opacity="1" fill-rule="nonzero"/></g></g></g></g></g></g><g clip-path="url(#8151c41374)"><g clip-path="url(#8139339ffd)"><g transform="matrix(1, 0, 0, 1, 247, 250)"><g clip-path="url(#09faa62e72)"><g clip-path="url(#f37bd97cc9)"><g clip-path="url(#cecff9fbe3)"><path fill="#fd6500" d="M 0.609375 0 L 125.609375 0 L 125.609375 125 L 0.609375 125 Z M 0.609375 0 " fill-opacity="1" fill-rule="nonzero"/></g></g></g></g></g></g></g></g></svg>