<svg xmlns="http://www.w3.org/2000/svg" xmlns:xlink="http://www.w3.org/1999/xlink" width="500" zoomAndPan="magnify" viewBox="0 0 375 374.999991" height="500" preserveAspectRatio="xMidYMid meet" version="1.0"><defs><clipPath id="28accab4e3"><path d="M 97 143 L 375 143 L 375 287.792969 L 97 287.792969 Z M 97 143 " clip-rule="nonzero"/></clipPath></defs><path fill="#aeb0b3" d="M 170.878906 131.199219 C 178.535156 132.910156 185.550781 136.121094 192.058594 140.457031 L 192.058594 143.105469 L 194.707031 143.105469 L 194.707031 145.75 L 197.1875 146.742188 C 200 148.394531 200 148.394531 201.65625 151.207031 L 202.648438 153.6875 L 205.296875 153.6875 C 210.507812 161.992188 210.507812 161.992188 210.921875 166.835938 L 210.589844 169.5625 L 213.238281 169.5625 C 214.527344 200.785156 214.527344 200.785156 208.457031 212.945312 C 206.640625 215.828125 204.867188 218.566406 202.648438 221.15625 L 200 221.15625 L 200 223.800781 L 197.351562 223.800781 L 197.351562 226.449219 L 194.707031 226.449219 L 194.707031 229.09375 L 190.734375 231.738281 L 186.761719 231.738281 L 186.761719 234.386719 C 175.738281 239.929688 165.164062 240.617188 153.0625 240.183594 C 144.144531 239.597656 136.917969 237.222656 129.402344 232.40625 C 125.277344 229.425781 121.316406 226.289062 117.929688 222.480469 L 117.929688 219.832031 L 115.28125 219.832031 C 112.46875 216.195312 112.46875 216.195312 109.984375 211.894531 L 109.984375 206.605469 L 107.339844 206.605469 L 107.339844 198.667969 L 104.691406 198.667969 C 103.730469 172.695312 103.730469 172.695312 108.570312 162.828125 L 109.984375 160.300781 C 110.871094 158.539062 111.753906 156.777344 112.632812 155.011719 L 115.28125 155.011719 L 116.320312 152.6875 C 119.308594 147.164062 123.664062 143.066406 128.519531 139.136719 C 142.234375 131.515625 155.382812 129.570312 170.878906 131.199219 " fill-opacity="1" fill-rule="nonzero"/><path fill="#2e528e" d="M 202.648438 94.15625 L 206.648438 94.695312 C 240.164062 99.25 271.105469 108.253906 300.769531 124.546875 C 302.914062 125.71875 305.074219 126.863281 307.238281 128.003906 L 310.449219 129.710938 L 313.09375 131.105469 C 315.167969 132.519531 315.167969 132.519531 317.8125 136.488281 C 312.210938 135.667969 307.855469 133.703125 302.839844 131.117188 L 298.550781 128.917969 L 295.308594 127.230469 L 295.308594 124.582031 L 290.015625 124.582031 L 290.015625 121.9375 L 286.652344 121.472656 C 281.707031 120.546875 277.070312 119.070312 272.308594 117.472656 C 262.929688 114.414062 253.578125 112.429688 243.859375 110.796875 C 239.714844 110.03125 239.714844 110.03125 237.066406 108.707031 C 233.09375 108.527344 229.15625 108.425781 225.183594 108.394531 L 221.535156 108.351562 C 217.613281 108.320312 213.6875 108.300781 209.761719 108.296875 L 205.734375 108.285156 C 186.800781 108.277344 168.765625 108.996094 150.242188 113.265625 C 147.101562 113.988281 143.957031 114.628906 140.792969 115.25 C 126.867188 118.0625 113.363281 122.105469 99.800781 126.300781 C 95.355469 127.652344 90.882812 128.882812 86.40625 130.125 C 80.425781 131.804688 74.609375 133.925781 68.949219 136.488281 C 67.140625 137.121094 65.324219 137.734375 63.5 138.328125 C 59.269531 139.714844 55.054688 141.132812 50.847656 142.582031 L 44.707031 144.675781 L 41.5625 145.769531 L 38.519531 146.796875 L 35.808594 147.730469 C 33.207031 148.394531 33.207031 148.394531 27.914062 148.394531 L 27.914062 145.75 L 25.265625 145.75 L 25.265625 143.105469 L 22.949219 141.945312 L 14.675781 137.8125 L 14.675781 135.167969 L 12.027344 135.167969 L 12.027344 132.519531 L 9.710938 131.363281 L 6.734375 129.875 L 3.839844 128.71875 L 1.4375 127.230469 C 0.445312 124.417969 0.445312 124.417969 0.113281 121.9375 C 15.839844 114.453125 33.359375 111.34375 50.257812 107.597656 C 55.230469 106.488281 60.144531 105.257812 65.0625 103.914062 C 73.675781 101.683594 82.484375 100.617188 91.296875 99.449219 L 94.808594 98.980469 C 95.851562 98.847656 96.894531 98.714844 97.96875 98.574219 C 100.96875 98.160156 100.96875 98.160156 104.691406 96.800781 C 106.597656 96.535156 108.511719 96.308594 110.429688 96.125 L 113.949219 95.777344 L 117.769531 95.421875 L 121.742188 95.046875 C 175.625 90.09375 175.625 90.09375 202.648438 94.15625 " fill-opacity="1" fill-rule="nonzero"/><path fill="#9ec04e" d="M 311.625 227.382812 L 316.546875 227.398438 C 321.6875 227.421875 326.824219 227.472656 331.960938 227.523438 C 335.464844 227.542969 338.972656 227.558594 342.476562 227.574219 C 351.023438 227.621094 359.570312 227.683594 368.117188 227.769531 L 365.46875 231.738281 C 362.191406 233.292969 362.191406 233.292969 358.023438 234.800781 L 353.34375 236.519531 L 350.839844 237.421875 C 346.410156 239.023438 342 240.675781 337.585938 242.324219 L 334.847656 243.339844 C 329.636719 245.289062 324.484375 247.375 319.386719 249.597656 C 293.3125 260.574219 264.816406 267.609375 237.066406 272.75 C 233.644531 273.464844 230.226562 274.179688 226.804688 274.898438 C 219.707031 276.328125 212.75 277.304688 205.523438 277.761719 C 202.410156 277.957031 202.410156 277.957031 198.675781 279.363281 C 196.640625 279.554688 194.601562 279.695312 192.558594 279.78125 L 188.847656 279.953125 L 184.859375 280.109375 L 180.726562 280.277344 C 147.171875 281.539062 113.445312 281.714844 80.863281 272.75 L 78.339844 272.074219 C 55.984375 266.042969 34.046875 257.875 14.675781 244.96875 L 14.675781 242.324219 C 18.640625 243.152344 21.664062 244.480469 25.183594 246.457031 C 43.195312 255.617188 63.753906 260.929688 83.511719 264.8125 L 86.757812 265.523438 C 98.660156 267.867188 110.46875 267.90625 122.546875 267.875 C 126.089844 267.871094 129.632812 267.902344 133.175781 267.933594 C 147.949219 267.992188 161.734375 266.589844 176.171875 263.488281 L 180.3125 262.648438 C 183.824219 261.921875 187.320312 261.144531 190.816406 260.347656 L 194.179688 259.613281 C 211.855469 255.609375 229.050781 249.484375 246.226562 243.761719 C 249.101562 242.804688 251.976562 241.855469 254.851562 240.90625 L 260.441406 239.046875 L 265.433594 237.390625 C 270.140625 235.785156 270.140625 235.785156 274.488281 233.761719 C 286.800781 228.472656 298.308594 227.207031 311.625 227.382812 " fill-opacity="1" fill-rule="nonzero"/><path fill="#c4c6c9" d="M 136.460938 135.167969 L 139.109375 136.488281 L 138.457031 139.917969 C 137.792969 144.371094 137.617188 148.539062 137.613281 153.039062 L 137.601562 158.132812 L 137.609375 163.582031 L 137.605469 169.214844 C 137.601562 173.136719 137.605469 177.058594 137.613281 180.980469 C 137.617188 186.007812 137.617188 191.035156 137.605469 196.0625 C 137.601562 199.933594 137.601562 203.804688 137.605469 207.671875 C 137.605469 209.527344 137.605469 211.382812 137.605469 213.238281 C 137.601562 215.824219 137.605469 218.410156 137.613281 220.996094 L 137.617188 225.457031 C 137.625 229.214844 137.625 229.214844 139.109375 233.0625 C 141.753906 234.660156 141.753906 234.660156 144.402344 235.707031 C 142.160156 236.539062 142.160156 236.539062 139.109375 237.03125 C 132.332031 234.785156 126.203125 231.15625 121.070312 226.199219 L 117.929688 222.480469 L 117.929688 219.832031 L 115.28125 219.832031 C 112.46875 216.195312 112.46875 216.195312 109.984375 211.894531 L 109.984375 206.605469 L 107.339844 206.605469 L 107.339844 198.667969 L 104.691406 198.667969 C 103.730469 172.695312 103.730469 172.695312 108.570312 162.828125 L 109.984375 160.300781 C 110.871094 158.539062 111.753906 156.777344 112.632812 155.011719 L 115.28125 155.011719 L 116.292969 152.699219 C 120.070312 145.808594 126.355469 140.457031 132.984375 136.40625 Z M 136.460938 135.167969 " fill-opacity="1" fill-rule="nonzero"/><g clip-path="url(#28accab4e3)"><path fill="#919294" d="M 186.761719 143.105469 L 194.707031 143.105469 L 194.707031 145.75 L 197.1875 146.742188 C 200 148.394531 200 148.394531 201.65625 151.207031 L 202.648438 153.6875 L 205.296875 153.6875 C 210.507812 161.992188 210.507812 161.992188 210.921875 166.835938 L 210.589844 169.5625 L 213.238281 169.5625 C 214.527344 200.785156 214.527344 200.785156 208.457031 212.945312 C 206.640625 215.828125 204.867188 218.566406 202.648438 221.15625 L 200 221.15625 L 200 223.800781 L 197.351562 223.800781 L 197.351562 226.449219 L 194.707031 226.449219 L 194.707031 229.09375 C 191.808594 230.582031 191.808594 230.582031 188.085938 231.738281 C 184.363281 230.582031 184.363281 230.582031 181.46875 229.09375 L 183.535156 227.027344 L 185.4375 223.800781 L 184.117188 214.542969 C 186.019531 211.316406 186.019531 211.316406 188.085938 209.25 L 185.4375 209.25 C 185.40625 202.964844 185.382812 196.679688 185.367188 190.394531 C 185.359375 188.257812 185.351562 186.121094 185.339844 183.988281 C 185.324219 180.910156 185.316406 177.832031 185.308594 174.753906 L 185.289062 171.878906 C 185.289062 166.992188 185.355469 162.359375 186.761719 157.65625 L 189.410156 156.332031 L 189.410156 152.363281 L 186.761719 152.363281 C 186.019531 149.96875 186.019531 149.96875 185.4375 147.074219 Z M 154.746094 326.410156 L 157.640625 328.3125 L 157.640625 330.957031 L 159.957031 331.207031 C 162.9375 332.28125 162.9375 332.28125 165.75 335.421875 C 169.414062 340.550781 171.9375 344.679688 173.527344 350.800781 C 173.867188 355.117188 173.832031 359.40625 173.785156 363.730469 L 173.773438 367.433594 C 173.753906 371.316406 173.726562 375.199219 173.691406 379.078125 C 173.675781 381.71875 173.664062 384.359375 173.65625 387 C 173.625 393.457031 173.582031 399.910156 173.527344 406.363281 L 165.582031 407.6875 L 165.523438 403.039062 C 165.445312 397.292969 165.34375 391.550781 165.234375 385.804688 C 165.191406 383.328125 165.15625 380.851562 165.125 378.375 C 165.007812 359.597656 165.007812 359.597656 160.289062 341.539062 L 157.640625 341.539062 L 157.640625 338.894531 L 154.992188 338.894531 L 154.992188 336.25 C 148.765625 333.820312 143.082031 333.121094 136.460938 333.105469 L 133.710938 333.007812 C 128.789062 332.980469 125.851562 333.613281 121.511719 335.980469 C 118.503906 338.425781 115.984375 340.703125 113.542969 343.691406 L 111.574219 346.058594 C 109.882812 348.15625 109.882812 348.15625 108.660156 350.800781 C 108.511719 352.597656 108.421875 354.398438 108.390625 356.203125 L 108.3125 359.574219 L 108.242188 363.214844 L 108.160156 366.941406 C 108.074219 370.875 107.992188 374.8125 107.917969 378.746094 L 107.746094 386.742188 C 107.601562 393.28125 107.46875 399.824219 107.339844 406.363281 C 104.703125 406.867188 102.054688 407.308594 99.394531 407.6875 L 98.070312 406.363281 C 97.957031 403.847656 97.90625 401.328125 97.921875 398.804688 L 97.921875 393.910156 L 97.941406 388.582031 L 97.949219 383.160156 C 97.953125 378.394531 97.964844 373.628906 97.980469 368.863281 C 97.992188 364.003906 98 359.144531 98.007812 354.285156 C 98.019531 344.746094 98.042969 335.207031 98.070312 325.667969 C 100.261719 325.152344 102.46875 324.710938 104.691406 324.34375 L 107.339844 325.667969 C 107.503906 334.59375 107.503906 334.59375 106.015625 337.570312 L 108.097656 335.6875 C 119.871094 325.179688 119.871094 325.179688 127.195312 323.351562 C 136.007812 322.421875 146.707031 322.375 154.746094 326.410156 M 300.605469 325.667969 L 361.496094 325.667969 C 360.175781 332.28125 360.175781 332.28125 358.851562 334.925781 L 356.203125 334.925781 L 355.042969 337.988281 C 353.554688 341.539062 353.554688 341.539062 350.90625 345.507812 L 348.261719 345.507812 L 347.882812 347.722656 C 346.683594 351.625 344.734375 354.410156 342.386719 357.746094 L 339.910156 361.324219 L 337.671875 364.03125 L 335.023438 364.03125 L 333.863281 367.089844 C 332.375 370.644531 332.375 370.644531 329.726562 374.613281 L 327.082031 374.613281 L 326.703125 376.824219 C 325.503906 380.730469 323.554688 383.511719 321.207031 386.851562 L 318.730469 390.425781 L 316.492188 393.132812 L 313.84375 393.132812 L 313.84375 395.78125 L 311.195312 395.78125 L 311.195312 399.75 L 313.238281 399.097656 C 317.589844 398.199219 321.734375 398.253906 326.179688 398.25 L 328.988281 398.246094 C 330.941406 398.246094 332.890625 398.25 334.84375 398.253906 C 337.835938 398.261719 340.828125 398.253906 343.816406 398.246094 C 345.714844 398.246094 347.613281 398.246094 349.511719 398.25 L 354.746094 398.253906 C 358.851562 398.425781 358.851562 398.425781 361.496094 399.75 L 361.496094 407.6875 L 296.632812 407.6875 L 299.28125 402.394531 L 300.605469 398.425781 L 303.253906 398.425781 L 304.246094 396.277344 C 306.292969 392.390625 308.757812 388.851562 311.195312 385.195312 C 312.125 383.457031 313.007812 381.691406 313.84375 379.90625 L 316.492188 379.90625 L 317.648438 377.589844 L 321.785156 369.320312 L 324.433594 369.320312 L 325.425781 367.171875 C 327.472656 363.285156 329.941406 359.746094 332.375 356.09375 C 333.304688 354.351562 334.1875 352.589844 335.023438 350.800781 L 337.671875 350.800781 L 338.828125 348.484375 L 342.964844 340.21875 L 345.613281 340.21875 L 346.855469 337.738281 L 349.585938 332.28125 L 300.605469 332.28125 L 299.28125 328.3125 Z M 530.9375 324.34375 C 534.8125 325.332031 537.90625 326.574219 541.527344 328.3125 L 537.554688 334.925781 L 534.738281 334.285156 C 528.195312 333.113281 521.671875 333.066406 515.050781 333.601562 C 510.414062 335.363281 510.414062 335.363281 507.109375 337.570312 L 504.460938 337.570312 L 504.460938 340.21875 L 501.816406 340.21875 L 501.816406 342.863281 L 499.167969 342.863281 C 495.816406 355.636719 496.308594 368.136719 496.519531 381.226562 C 496.589844 385.664062 496.644531 390.101562 496.6875 394.539062 L 496.75 397.617188 C 496.777344 400.09375 496.660156 402.570312 496.519531 405.039062 L 493.871094 407.6875 C 490.480469 407.273438 490.480469 407.273438 487.253906 406.363281 L 485.929688 405.039062 C 485.796875 402.613281 485.761719 400.179688 485.757812 397.746094 L 485.746094 393.023438 L 485.753906 387.882812 L 485.75 382.648438 C 485.75 378.988281 485.753906 375.328125 485.757812 371.667969 C 485.761719 366.964844 485.761719 362.261719 485.753906 357.558594 C 485.746094 353.085938 485.75 348.617188 485.753906 344.144531 L 485.746094 339.003906 L 485.757812 334.28125 L 485.761719 330.101562 L 485.929688 326.988281 L 487.253906 325.667969 L 493.871094 325.667969 L 493.871094 338.894531 C 497.773438 335.414062 497.773438 335.414062 499.167969 332.28125 L 501.816406 332.28125 L 501.816406 329.636719 C 511.285156 323.574219 519.851562 323.226562 530.9375 324.34375 " fill-opacity="1" fill-rule="nonzero"/></g></svg>