<svg xmlns="http://www.w3.org/2000/svg" xmlns:xlink="http://www.w3.org/1999/xlink" width="500" zoomAndPan="magnify" viewBox="0 0 375 374.999991" height="500" preserveAspectRatio="xMidYMid meet" version="1.0"><path fill="#4dafca" d="M 216.007812 16.953125 C 216.332031 16.933594 216.65625 16.925781 216.984375 16.925781 L 218.996094 16.925781 C 219.488281 16.925781 219.976562 16.925781 220.464844 16.925781 C 221.214844 16.925781 221.964844 16.925781 222.71875 16.925781 C 223.191406 16.925781 223.664062 16.925781 224.140625 16.925781 L 226.015625 16.925781 C 226.460938 16.953125 226.460938 16.953125 226.878906 17.164062 C 227.191406 17.199219 227.503906 17.230469 227.820312 17.253906 C 229.351562 17.398438 230.792969 17.648438 232.226562 18.230469 C 232.761719 18.429688 233.308594 18.582031 233.863281 18.738281 C 235.648438 19.253906 237.210938 20.003906 238.828125 20.910156 C 239.566406 21.324219 240.316406 21.65625 241.09375 21.976562 L 241.09375 22.394531 L 242.347656 22.8125 L 242.347656 23.230469 L 242.871094 23.347656 C 243.839844 23.746094 244.566406 24.347656 245.277344 25.113281 L 245.277344 25.53125 L 245.625 25.679688 C 247.101562 26.5 248.46875 27.933594 249.457031 29.300781 L 249.457031 29.71875 L 249.875 29.71875 C 250.273438 30.199219 250.65625 30.691406 251.027344 31.195312 L 251.363281 31.652344 C 254.75 36.273438 254.75 36.273438 255.730469 38.714844 L 255.730469 39.34375 L 256.148438 39.34375 L 256.398438 40.039062 C 256.664062 40.753906 256.964844 41.449219 257.285156 42.144531 C 258.527344 44.847656 259.417969 47.574219 259.992188 50.496094 L 260.121094 51.0625 L 260.328125 51.273438 L 260.539062 52.738281 L 260.75 52.945312 C 260.808594 53.234375 260.855469 53.527344 260.898438 53.820312 L 260.980469 54.355469 L 261.0625 54.921875 C 261.117188 55.285156 261.171875 55.652344 261.226562 56.019531 L 261.296875 56.511719 C 261.359375 56.9375 261.359375 56.9375 261.585938 57.339844 C 261.648438 57.984375 261.691406 58.628906 261.734375 59.277344 C 261.757812 59.84375 261.757812 59.84375 262.003906 60.269531 C 262.058594 60.984375 262.09375 61.695312 262.128906 62.410156 C 262.15625 63.25 262.15625 63.25 262.421875 64.035156 C 262.449219 64.425781 262.46875 64.816406 262.480469 65.207031 L 262.503906 65.925781 L 262.523438 66.679688 C 262.539062 67.164062 262.554688 67.652344 262.570312 68.136719 L 262.589844 68.792969 C 262.621094 69.492188 262.621094 69.492188 262.734375 70.238281 C 262.886719 71.382812 262.867188 72.527344 262.867188 73.683594 L 262.867188 74.410156 C 262.867188 74.914062 262.867188 75.417969 262.867188 75.925781 C 262.863281 76.695312 262.867188 77.464844 262.867188 78.234375 C 262.867188 78.726562 262.867188 79.21875 262.867188 79.710938 L 262.867188 80.40625 C 262.863281 81.597656 262.796875 82.734375 262.628906 83.917969 C 262.605469 84.34375 262.585938 84.773438 262.570312 85.203125 L 262.546875 85.890625 L 262.503906 87.316406 L 262.480469 88 L 262.460938 88.621094 C 262.421875 89.148438 262.421875 89.148438 262.210938 89.777344 C 262.171875 90.257812 262.136719 90.742188 262.105469 91.226562 C 262.058594 92.03125 261.988281 92.765625 261.792969 93.542969 C 261.730469 94.253906 261.6875 94.964844 261.644531 95.675781 L 261.585938 96.261719 L 261.375 96.472656 C 261.335938 96.808594 261.308594 97.144531 261.285156 97.480469 C 261.179688 98.757812 261.015625 100.027344 260.75 101.285156 L 260.539062 101.496094 C 260.480469 101.785156 260.429688 102.082031 260.390625 102.378906 L 260.308594 102.914062 L 260.226562 103.480469 C 260.171875 103.851562 260.117188 104.21875 260.0625 104.585938 L 259.988281 105.085938 L 259.910156 105.46875 L 259.703125 105.679688 C 259.589844 106.269531 259.484375 106.863281 259.390625 107.457031 C 259.292969 108.050781 259.1875 108.644531 259.074219 109.238281 L 258.867188 109.445312 L 258.761719 110.179688 L 258.65625 110.910156 L 258.449219 111.121094 L 258.371094 111.746094 C 258.269531 112.5 258.058594 113.164062 257.808594 113.875 C 257.554688 114.640625 257.328125 115.410156 257.101562 116.183594 L 256.964844 116.648438 C 256.753906 117.375 256.542969 118.101562 256.34375 118.832031 C 255.992188 120.097656 255.613281 121.3125 255.105469 122.523438 C 254.863281 123.125 254.664062 123.730469 254.464844 124.34375 C 254.164062 125.253906 253.820312 126.148438 253.429688 127.023438 C 253.015625 128.019531 252.621094 129.015625 252.292969 130.046875 C 251.996094 130.960938 251.605469 131.8125 251.199219 132.683594 C 250.902344 133.34375 250.648438 134.011719 250.398438 134.6875 C 250.042969 135.640625 249.605469 136.554688 249.089844 137.429688 C 248.851562 137.871094 248.675781 138.289062 248.503906 138.757812 C 247.871094 140.375 247.070312 141.910156 246.292969 143.460938 C 246.023438 144 245.753906 144.539062 245.484375 145.078125 C 245.3125 145.425781 245.136719 145.773438 244.964844 146.121094 L 244.726562 146.601562 C 244.265625 147.515625 243.757812 148.40625 243.203125 149.265625 C 242.90625 149.734375 242.640625 150.21875 242.375 150.710938 L 242.0625 151.292969 L 241.722656 151.925781 L 241.316406 152.679688 C 240.964844 153.332031 240.609375 153.988281 240.257812 154.644531 L 239.839844 154.644531 L 239.765625 155.007812 C 239.621094 155.523438 239.414062 155.921875 239.148438 156.386719 L 238.867188 156.878906 L 238.585938 157.367188 L 238.101562 158.214844 L 237.75 158.832031 L 237.332031 158.832031 L 237.273438 159.167969 C 237.074219 159.832031 236.75 160.378906 236.402344 160.976562 L 236.011719 161.660156 L 235.660156 162.179688 L 235.242188 162.179688 L 235.148438 162.570312 C 235.03125 163.015625 235.03125 163.015625 234.824219 163.433594 L 234.40625 163.433594 L 234.34375 163.785156 C 234.160156 164.386719 233.871094 164.832031 233.527344 165.359375 L 233.132812 165.964844 L 232.730469 166.574219 L 232.371094 167.144531 C 232.261719 167.3125 232.152344 167.484375 232.039062 167.660156 L 231.742188 168.125 L 231.476562 168.457031 L 231.058594 168.457031 L 231.003906 168.804688 C 230.800781 169.453125 230.449219 169.890625 230.039062 170.433594 C 229.605469 171.007812 229.195312 171.566406 228.835938 172.191406 L 228.550781 172.640625 L 228.132812 172.640625 L 227.992188 173.070312 C 227.628906 173.878906 227.128906 174.519531 226.589844 175.21875 L 225.914062 176.109375 L 225.5625 176.570312 C 224.976562 177.335938 224.398438 178.109375 223.820312 178.882812 L 223.5 179.308594 L 223.199219 179.710938 L 222.933594 180.058594 C 222.707031 180.371094 222.492188 180.691406 222.277344 181.011719 L 221.859375 181.011719 L 221.71875 181.453125 C 221.378906 182.195312 220.910156 182.769531 220.382812 183.378906 L 220.070312 183.742188 C 217.449219 186.742188 214.273438 188.289062 210.570312 189.59375 C 207.261719 190.703125 203.917969 191.695312 200.554688 192.617188 C 199.003906 193.042969 197.46875 193.507812 195.933594 193.988281 C 194.183594 194.535156 192.425781 195.054688 190.65625 195.542969 C 187.796875 196.332031 184.957031 197.191406 182.117188 198.050781 C 178.722656 199.078125 175.320312 200.097656 171.90625 201.066406 C 169.757812 201.679688 167.617188 202.308594 165.476562 202.945312 L 164.96875 203.097656 C 162.695312 203.769531 162.695312 203.769531 160.445312 204.503906 C 159.332031 204.871094 158.207031 205.199219 157.085938 205.535156 L 156.671875 205.660156 C 153.96875 206.46875 151.253906 207.246094 148.535156 208.019531 C 145.722656 208.824219 142.917969 209.648438 140.125 210.519531 C 138.121094 211.140625 136.109375 211.722656 134.085938 212.28125 C 132.640625 212.683594 131.199219 213.109375 129.761719 213.554688 C 127.878906 214.136719 125.984375 214.675781 124.082031 215.199219 C 122.625 215.609375 121.171875 216.035156 119.726562 216.484375 C 117.84375 217.0625 115.949219 217.605469 114.046875 218.128906 C 112.386719 218.59375 110.742188 219.085938 109.09375 219.597656 C 107.652344 220.039062 106.207031 220.449219 104.75 220.851562 C 102.832031 221.378906 100.929688 221.953125 99.027344 222.550781 C 96.9375 223.210938 94.835938 223.828125 92.722656 224.414062 C 90.832031 224.9375 88.949219 225.492188 87.066406 226.054688 C 86.628906 226.1875 86.1875 226.316406 85.746094 226.445312 C 85.351562 226.5625 84.957031 226.6875 84.5625 226.816406 C 83.050781 227.289062 81.609375 227.363281 80.03125 227.351562 C 79.613281 227.351562 79.195312 227.355469 78.773438 227.363281 C 76.609375 227.363281 74.632812 227.023438 72.722656 225.953125 L 72.164062 225.585938 L 72.164062 225.167969 L 71.535156 225.167969 C 71.183594 224.828125 71.183594 224.828125 70.816406 224.382812 C 70.410156 223.894531 70.015625 223.4375 69.5625 222.996094 L 69.234375 222.65625 L 69.234375 222.238281 L 68.816406 222.238281 L 68.816406 221.820312 L 68.398438 221.820312 L 68.398438 220.980469 L 67.980469 220.980469 L 67.5625 219.726562 L 67.144531 219.726562 L 67.144531 218.46875 L 66.726562 218.46875 L 66.726562 217.214844 L 66.308594 217.214844 L 66.308594 216.378906 L 65.890625 216.378906 L 65.890625 215.121094 L 65.472656 215.121094 C 65.195312 214.363281 65.054688 213.847656 65.054688 213.03125 L 64.636719 213.03125 L 64.636719 211.773438 L 64.21875 211.773438 L 64.21875 210.519531 L 63.800781 210.519531 L 63.800781 209.679688 L 63.382812 209.679688 L 63.382812 208.425781 L 62.964844 208.425781 L 62.964844 207.171875 L 62.542969 207.171875 L 62.542969 205.914062 L 62.125 205.914062 L 62.125 205.078125 L 61.707031 205.078125 L 61.707031 203.820312 L 61.289062 203.820312 L 61.289062 202.566406 L 60.871094 202.566406 L 60.871094 201.3125 L 60.453125 201.3125 L 60.453125 200.054688 L 60.035156 200.054688 L 60.035156 198.800781 L 59.617188 198.800781 L 59.617188 197.542969 L 59.199219 197.542969 L 59.199219 196.289062 L 58.78125 196.289062 L 58.78125 195.035156 L 58.363281 195.035156 L 58.363281 193.777344 L 57.945312 193.777344 L 57.945312 192.523438 L 57.527344 192.523438 L 57.527344 191.265625 L 57.109375 191.265625 L 57.109375 190.011719 L 56.691406 190.011719 L 56.597656 189.292969 L 56.480469 188.546875 L 56.273438 188.335938 C 56.265625 187.917969 56.261719 187.5 56.273438 187.082031 L 55.855469 187.082031 L 55.855469 185.824219 L 55.4375 185.824219 L 55.34375 185.105469 L 55.226562 184.359375 L 55.019531 184.152344 C 55.007812 183.734375 55.007812 183.316406 55.019531 182.894531 L 54.601562 182.894531 L 54.601562 181.640625 L 54.183594 181.640625 L 54.183594 179.964844 L 53.761719 179.964844 L 53.671875 179.246094 L 53.554688 178.5 L 53.34375 178.292969 C 53.335938 177.875 53.335938 177.457031 53.34375 177.035156 L 52.925781 177.035156 L 52.925781 175.363281 L 52.507812 175.363281 L 52.507812 173.6875 L 52.089844 173.6875 L 52.089844 172.015625 L 51.671875 172.015625 L 51.671875 170.339844 L 51.253906 170.339844 L 51.253906 168.667969 L 50.835938 168.667969 C 50.816406 168.464844 50.816406 168.464844 50.796875 168.261719 L 50.746094 167.738281 C 50.726562 167.566406 50.710938 167.394531 50.695312 167.214844 L 50.628906 166.785156 L 50.417969 166.574219 C 50.390625 166.015625 50.410156 165.460938 50.417969 164.898438 L 50 164.898438 C 49.980469 164.699219 49.980469 164.699219 49.960938 164.496094 L 49.910156 163.972656 C 49.890625 163.800781 49.875 163.625 49.855469 163.449219 L 49.792969 163.015625 L 49.582031 162.808594 C 49.515625 162.320312 49.476562 161.835938 49.433594 161.347656 L 49.371094 160.925781 L 49.164062 160.714844 C 49.097656 160.230469 49.058594 159.746094 49.011719 159.257812 L 48.953125 158.832031 L 48.746094 158.621094 C 48.730469 158.269531 48.726562 157.917969 48.734375 157.5625 L 48.738281 156.980469 L 48.746094 156.53125 L 48.328125 156.53125 L 48.328125 154.4375 L 47.910156 154.4375 L 47.910156 151.925781 L 47.492188 151.925781 L 47.453125 151.339844 L 47.398438 150.578125 L 47.347656 149.820312 L 47.28125 149.207031 L 47.074219 148.996094 C 47.003906 148.292969 46.964844 147.589844 46.921875 146.882812 L 46.863281 146.277344 L 46.65625 146.066406 C 46.640625 145.574219 46.636719 145.082031 46.640625 144.589844 L 46.648438 143.769531 L 46.65625 143.136719 L 46.238281 143.136719 L 46.238281 139.371094 L 45.820312 139.371094 L 45.820312 135.183594 L 45.402344 135.183594 L 45.402344 129.746094 L 44.980469 129.746094 C 44.925781 127.894531 44.871094 126.046875 44.820312 124.199219 C 44.792969 123.339844 44.769531 122.480469 44.742188 121.621094 C 44.71875 120.789062 44.695312 119.960938 44.667969 119.128906 C 44.660156 118.8125 44.652344 118.5 44.640625 118.183594 C 44.546875 115.089844 44.519531 112 44.65625 108.902344 L 44.683594 108.214844 C 44.714844 107.503906 44.742188 106.792969 44.773438 106.085938 L 44.832031 104.621094 C 44.882812 103.4375 44.933594 102.257812 44.980469 101.074219 L 45.402344 101.074219 L 45.378906 100.707031 C 45.335938 99.414062 45.535156 98.3125 45.875 97.070312 C 46.070312 96.3125 46.164062 95.574219 46.238281 94.796875 L 46.65625 94.796875 L 46.65625 93.125 L 47.074219 93.125 L 47.074219 91.867188 L 47.492188 91.867188 L 47.464844 91.320312 C 47.492188 90.585938 47.648438 90.039062 47.910156 89.355469 L 48.328125 89.355469 L 48.417969 88.898438 C 48.582031 88.082031 48.582031 88.082031 48.746094 87.265625 L 49.164062 87.265625 L 49.164062 86.425781 L 49.582031 86.425781 L 49.582031 85.589844 L 50 85.589844 L 50 84.753906 L 50.417969 84.753906 L 50.835938 83.496094 L 51.253906 83.496094 L 51.347656 83.105469 C 51.464844 82.660156 51.464844 82.660156 51.671875 82.242188 L 52.089844 82.242188 L 52.507812 80.988281 L 52.925781 80.988281 L 52.925781 80.566406 L 53.34375 80.566406 L 53.34375 80.148438 L 53.761719 80.148438 L 53.761719 79.730469 L 54.183594 79.730469 L 54.183594 79.3125 L 54.601562 79.3125 L 54.601562 78.894531 L 55.019531 78.894531 L 55.019531 78.476562 C 55.617188 78.03125 55.617188 78.03125 56.273438 77.636719 L 56.691406 77.636719 L 56.691406 77.21875 L 57.316406 76.800781 L 57.945312 76.800781 L 57.945312 76.382812 L 58.78125 76.382812 L 58.78125 75.964844 L 59.277344 75.835938 L 59.917969 75.664062 L 60.558594 75.496094 C 61.0625 75.386719 61.0625 75.386719 61.289062 75.128906 C 61.644531 75.113281 61.996094 75.109375 62.347656 75.113281 L 62.929688 75.121094 L 63.382812 75.128906 L 63.382812 74.707031 C 63.863281 74.703125 64.347656 74.699219 64.832031 74.695312 L 65.648438 74.6875 L 66.308594 74.707031 L 66.515625 74.917969 C 66.871094 74.953125 67.222656 74.976562 67.574219 74.996094 C 68.460938 75.070312 69.1875 75.207031 70.003906 75.554688 C 70.679688 75.832031 71.367188 76.074219 72.058594 76.316406 L 72.835938 76.59375 L 73.417969 76.800781 L 73.417969 77.21875 L 74.253906 77.21875 L 74.253906 77.636719 L 74.828125 77.820312 C 75.367188 78.007812 75.84375 78.207031 76.34375 78.476562 L 76.34375 78.894531 L 77.597656 79.3125 L 77.597656 79.730469 L 77.957031 79.894531 C 79.777344 80.863281 81.242188 82.480469 82.679688 83.9375 C 82.996094 84.257812 83.316406 84.578125 83.636719 84.898438 C 84.59375 85.863281 85.542969 86.816406 86.378906 87.890625 L 86.378906 88.3125 L 86.796875 88.3125 C 87.128906 88.632812 87.128906 88.632812 87.503906 89.070312 L 87.875 89.496094 C 88.261719 89.984375 88.261719 89.984375 88.65625 90.578125 C 89.144531 91.308594 89.675781 91.992188 90.222656 92.679688 C 90.855469 93.476562 91.484375 94.277344 92.089844 95.097656 C 92.480469 95.625 92.886719 96.125 93.316406 96.617188 C 93.796875 97.164062 94.167969 97.726562 94.535156 98.355469 L 94.847656 98.667969 C 95.160156 98.984375 95.160156 98.984375 95.421875 99.425781 C 95.859375 100.144531 96.367188 100.78125 96.890625 101.433594 C 97.261719 101.925781 97.5625 102.433594 97.878906 102.957031 C 98.214844 103.449219 98.5625 103.929688 98.910156 104.410156 C 99.5625 105.308594 100.195312 106.214844 100.804688 107.144531 C 101.519531 108.222656 102.246094 109.292969 102.976562 110.363281 L 103.324219 110.875 C 103.980469 111.835938 104.648438 112.777344 105.355469 113.699219 C 105.6875 114.144531 105.964844 114.617188 106.242188 115.097656 C 106.519531 115.515625 106.796875 115.933594 107.078125 116.351562 L 111.257812 122.628906 L 111.652344 123.203125 C 112.148438 123.964844 112.597656 124.75 113.042969 125.542969 L 113.351562 125.976562 L 113.976562 126.1875 C 114.015625 126.074219 114.054688 125.957031 114.09375 125.839844 L 115.230469 122.421875 L 115.648438 122.421875 L 115.648438 121.582031 L 116.066406 121.582031 L 116.132812 121.179688 C 116.328125 120.3125 116.613281 119.488281 116.90625 118.652344 L 117.324219 118.652344 L 117.324219 117.816406 L 117.742188 117.816406 L 117.742188 116.980469 L 118.160156 116.980469 L 118.222656 116.5625 C 118.488281 115.402344 118.96875 114.3125 119.414062 113.210938 L 119.832031 113.210938 L 119.832031 112.375 L 120.25 112.375 L 120.25 111.539062 L 120.667969 111.539062 L 120.71875 111.121094 C 120.886719 110.449219 121.148438 109.917969 121.476562 109.3125 C 121.679688 108.886719 121.84375 108.472656 122 108.027344 C 122.328125 107.144531 122.75 106.335938 123.203125 105.507812 C 123.894531 104.226562 124.546875 102.921875 125.164062 101.597656 C 125.835938 100.15625 126.550781 98.734375 127.304688 97.328125 C 128.050781 95.941406 128.753906 94.535156 129.449219 93.125 L 129.867188 93.125 L 129.867188 92.285156 L 130.285156 92.285156 L 130.285156 91.449219 L 130.703125 91.449219 L 130.703125 90.613281 L 131.121094 90.613281 L 131.195312 90.257812 C 131.351562 89.707031 131.578125 89.238281 131.839844 88.730469 L 132.113281 88.191406 L 132.375 87.683594 C 132.515625 87.402344 132.65625 87.125 132.792969 86.847656 L 133.210938 86.847656 L 133.210938 86.007812 L 133.628906 86.007812 L 133.722656 85.617188 C 133.839844 85.171875 133.839844 85.171875 134.046875 84.753906 L 134.464844 84.753906 L 134.625 84.113281 C 134.863281 83.261719 135.261719 82.578125 135.722656 81.824219 L 136.140625 81.824219 L 136.140625 80.988281 L 136.558594 80.988281 L 136.707031 80.5625 C 137.042969 79.785156 137.476562 79.097656 137.929688 78.382812 L 138.210938 77.941406 C 138.96875 76.738281 139.734375 75.542969 140.507812 74.351562 C 140.800781 73.890625 141.089844 73.433594 141.375 72.96875 L 141.769531 72.328125 L 142.117188 71.761719 L 142.410156 71.359375 L 142.828125 71.359375 L 143.246094 70.105469 L 143.664062 70.105469 L 143.835938 69.753906 C 144.109375 69.214844 144.40625 68.691406 144.710938 68.167969 L 145.039062 67.605469 L 145.339844 67.175781 L 145.757812 67.175781 L 145.941406 66.808594 L 146.59375 65.5 L 147.011719 65.5 L 147.15625 64.9375 C 147.46875 64.144531 147.863281 63.78125 148.476562 63.199219 L 148.828125 62.609375 L 149.101562 62.152344 L 149.519531 62.152344 L 149.675781 61.8125 C 150.003906 61.195312 150.363281 60.625 150.773438 60.0625 L 151.191406 60.0625 L 151.363281 59.699219 C 151.621094 59.207031 151.910156 58.777344 152.238281 58.335938 L 152.566406 57.886719 L 152.867188 57.550781 L 153.285156 57.550781 L 153.445312 57.183594 C 153.726562 56.667969 154.050781 56.285156 154.445312 55.847656 C 154.972656 55.277344 154.972656 55.277344 155.375 54.621094 L 155.792969 54.621094 L 155.792969 54.203125 L 156.210938 54.203125 L 156.359375 53.84375 C 156.695312 53.246094 157.113281 52.847656 157.609375 52.371094 C 158.238281 51.761719 158.835938 51.148438 159.402344 50.484375 C 160.246094 49.511719 161.140625 48.605469 162.050781 47.703125 L 162.53125 47.21875 C 163.414062 46.335938 164.316406 45.492188 165.261719 44.679688 C 165.800781 44.207031 166.289062 43.691406 166.78125 43.171875 L 167.082031 42.902344 L 167.5 42.902344 L 167.5 42.484375 L 167.917969 42.484375 L 167.917969 42.0625 C 168.273438 41.753906 168.273438 41.753906 168.753906 41.398438 C 169.421875 40.894531 170.0625 40.382812 170.6875 39.828125 C 171.921875 38.738281 171.921875 38.738281 172.519531 38.296875 L 172.9375 38.296875 L 172.9375 37.878906 C 173.289062 37.5625 173.289062 37.5625 173.746094 37.226562 L 174.203125 36.882812 L 174.609375 36.625 L 175.027344 36.625 L 175.027344 36.203125 C 175.628906 35.761719 175.628906 35.761719 176.28125 35.367188 L 176.699219 35.367188 L 176.699219 34.949219 C 177.300781 34.503906 177.300781 34.503906 177.953125 34.113281 L 178.371094 34.113281 L 178.371094 33.695312 C 178.972656 33.25 178.972656 33.25 179.625 32.855469 L 180.046875 32.855469 L 180.046875 32.4375 L 180.671875 32.019531 L 181.300781 32.019531 L 181.300781 31.601562 L 181.925781 31.183594 L 182.554688 31.183594 L 182.554688 30.765625 L 183.179688 30.347656 L 183.808594 30.347656 L 183.808594 29.925781 L 184.4375 29.507812 L 185.0625 29.507812 L 185.0625 29.089844 L 186.316406 28.671875 L 186.316406 28.253906 L 187.152344 28.253906 L 187.152344 27.835938 L 187.78125 27.417969 L 188.40625 27.417969 L 188.40625 26.996094 L 189.246094 26.996094 L 189.246094 26.578125 C 190.328125 25.925781 190.328125 25.925781 190.707031 25.742188 L 191.335938 25.742188 L 191.335938 25.324219 L 192.171875 25.324219 L 192.171875 24.90625 L 193.007812 24.90625 L 193.007812 24.488281 L 193.84375 24.488281 L 193.84375 24.066406 C 194.242188 23.855469 194.644531 23.648438 195.046875 23.441406 L 195.722656 23.085938 C 196.351562 22.8125 196.351562 22.8125 197.1875 22.8125 L 197.1875 22.394531 L 198.027344 22.394531 L 198.027344 21.976562 C 198.78125 21.699219 199.300781 21.558594 200.117188 21.558594 L 200.117188 21.136719 C 200.875 20.863281 201.390625 20.71875 202.207031 20.71875 L 202.207031 20.300781 L 203.460938 20.300781 L 203.460938 19.882812 L 204.714844 19.882812 L 204.714844 19.464844 L 205.96875 19.464844 L 205.96875 19.046875 L 206.6875 18.953125 L 207.433594 18.835938 L 207.644531 18.628906 L 209.105469 18.417969 L 209.316406 18.207031 L 210.777344 18 L 210.988281 17.789062 C 211.472656 17.722656 211.957031 17.683594 212.445312 17.640625 L 212.871094 17.582031 L 213.078125 17.371094 C 213.78125 17.304688 214.484375 17.265625 215.1875 17.222656 L 215.796875 17.164062 Z M 216.007812 16.953125 " fill-opacity="1" fill-rule="nonzero"/><path fill="#a6d11d" d="M 221.441406 195.242188 C 222.367188 195.191406 223.296875 195.195312 224.222656 195.191406 C 224.6875 195.191406 225.152344 195.183594 225.617188 195.175781 C 227.140625 195.164062 228.40625 195.207031 229.804688 195.871094 C 230.074219 195.960938 230.339844 196.042969 230.613281 196.125 L 231.015625 196.246094 L 231.425781 196.367188 C 232.683594 196.75 233.882812 197.203125 235.089844 197.730469 C 235.628906 197.949219 236.15625 198.121094 236.71875 198.277344 C 237.441406 198.484375 238.101562 198.738281 238.78125 199.0625 C 239.84375 199.5625 240.929688 199.96875 242.035156 200.371094 C 243.3125 200.832031 244.554688 201.320312 245.78125 201.902344 C 246.382812 202.175781 246.996094 202.402344 247.617188 202.632812 C 248.851562 203.097656 250.011719 203.664062 251.1875 204.265625 C 251.925781 204.644531 252.65625 204.992188 253.429688 205.285156 C 255.726562 206.164062 257.890625 207.414062 260.054688 208.570312 C 261.511719 209.347656 263.007812 210.046875 264.511719 210.726562 L 264.511719 211.144531 L 265.054688 211.316406 C 265.773438 211.566406 266.421875 211.871094 267.097656 212.21875 L 267.769531 212.558594 L 268.273438 212.820312 L 268.273438 213.238281 L 268.832031 213.40625 C 269.519531 213.652344 270.035156 213.945312 270.640625 214.351562 C 271.898438 215.175781 273.199219 215.921875 274.546875 216.585938 L 274.546875 217.003906 L 275.042969 217.125 C 275.898438 217.460938 276.535156 217.914062 277.277344 218.453125 C 278.125 219.050781 279 219.597656 279.882812 220.140625 C 280.203125 220.339844 280.511719 220.554688 280.820312 220.773438 L 280.820312 221.191406 L 281.167969 221.359375 C 281.707031 221.636719 282.230469 221.929688 282.753906 222.238281 L 283.320312 222.5625 L 283.746094 222.863281 L 283.746094 223.285156 L 284.085938 223.441406 C 285.378906 224.121094 286.449219 225.03125 287.570312 225.957031 C 288.015625 226.324219 288.46875 226.671875 288.933594 227.011719 C 289.878906 227.707031 290.757812 228.484375 291.640625 229.253906 C 292.503906 230 293.386719 230.707031 294.308594 231.378906 L 294.617188 231.652344 L 294.617188 232.074219 L 294.984375 232.226562 C 295.527344 232.53125 295.886719 232.890625 296.316406 233.339844 C 296.871094 233.9375 296.871094 233.9375 297.546875 234.375 L 297.546875 234.792969 L 297.964844 234.792969 L 297.964844 235.210938 L 298.324219 235.367188 C 298.878906 235.671875 299.257812 236.03125 299.703125 236.480469 L 300.210938 236.984375 L 300.734375 237.511719 L 302.230469 239.007812 L 302.5625 239.394531 L 302.5625 239.816406 L 302.980469 239.816406 L 302.980469 240.234375 L 303.398438 240.234375 C 303.679688 240.511719 303.679688 240.511719 304.015625 240.914062 C 304.558594 241.558594 305.117188 242.1875 305.691406 242.804688 C 306.679688 243.871094 307.625 244.953125 308.535156 246.085938 C 308.917969 246.5625 309.304688 247.035156 309.691406 247.507812 C 311.160156 249.285156 312.53125 251.109375 313.851562 253 C 314.15625 253.421875 314.460938 253.84375 314.769531 254.265625 L 315.152344 254.796875 C 315.410156 255.144531 315.675781 255.488281 315.953125 255.824219 C 316.347656 256.328125 316.667969 256.835938 316.988281 257.394531 C 317.292969 257.882812 317.597656 258.371094 317.902344 258.859375 L 318.761719 260.230469 C 318.980469 260.582031 319.203125 260.9375 319.421875 261.289062 C 321.980469 265.378906 321.980469 265.378906 323.050781 267.4375 L 323.425781 268.117188 C 325.371094 271.683594 327.050781 275.355469 328.488281 279.15625 L 328.660156 279.605469 C 331.742188 287.679688 333.039062 296.535156 331.6875 305.101562 C 331.417969 306.667969 331.042969 308.1875 330.578125 309.707031 L 330.351562 310.480469 C 329.066406 314.617188 326.847656 318.445312 323.980469 321.683594 C 323.644531 322.066406 323.320312 322.457031 323.011719 322.863281 L 322.632812 323.308594 L 322.214844 323.308594 L 322.214844 323.726562 L 321.796875 323.726562 L 321.796875 324.148438 L 321.378906 324.148438 L 321.378906 324.566406 C 320.65625 325.242188 319.859375 325.835938 319.082031 326.449219 L 318.742188 326.71875 C 314.730469 329.902344 310.378906 332.105469 305.566406 333.804688 C 305.117188 333.964844 304.671875 334.132812 304.222656 334.300781 C 299.59375 336.007812 294.492188 336.839844 289.601562 337.332031 L 289.058594 337.386719 C 287.511719 337.539062 285.964844 337.605469 284.414062 337.65625 L 283.605469 337.683594 C 272.5 338.023438 261.296875 337.074219 250.464844 334.535156 C 249.929688 334.414062 249.398438 334.296875 248.859375 334.1875 C 244.742188 333.332031 240.753906 332.003906 236.757812 330.710938 L 236.207031 330.535156 C 234.359375 329.941406 232.535156 329.332031 230.75 328.558594 C 230.007812 328.238281 229.253906 327.957031 228.5 327.679688 L 227.683594 327.375 L 227.289062 327.230469 C 226.59375 326.972656 225.898438 326.710938 225.207031 326.449219 L 225.207031 326.03125 L 224.683594 325.964844 C 223.828125 325.796875 223.089844 325.515625 222.277344 325.191406 L 222.277344 324.773438 L 221.839844 324.710938 C 221.125 324.539062 220.523438 324.257812 219.859375 323.9375 C 218.804688 323.421875 218.804688 323.421875 217.679688 323.101562 L 217.679688 322.683594 L 216.84375 322.683594 L 216.84375 322.261719 L 216.007812 322.261719 L 216.007812 321.84375 L 215.167969 321.84375 L 215.167969 321.425781 L 214.75 321.367188 C 213.941406 321.171875 213.238281 320.832031 212.492188 320.472656 L 212.050781 320.261719 C 211.695312 320.09375 211.34375 319.921875 210.988281 319.753906 L 210.988281 319.332031 L 210.628906 319.257812 C 208.234375 318.589844 205.898438 316.917969 203.78125 315.65625 C 203.253906 315.335938 203.253906 315.335938 202.625 315.148438 L 202.625 314.730469 L 202.277344 314.660156 C 201.703125 314.496094 201.21875 314.253906 200.691406 313.984375 L 200.125 313.695312 L 199.699219 313.472656 L 199.699219 313.054688 L 199.347656 312.984375 C 198.777344 312.824219 198.292969 312.582031 197.765625 312.308594 L 197.199219 312.023438 L 196.769531 311.800781 L 196.769531 311.382812 L 196.421875 311.3125 C 195.851562 311.148438 195.363281 310.90625 194.835938 310.636719 L 194.273438 310.347656 L 193.84375 310.125 L 193.84375 309.707031 L 193.285156 309.542969 C 192.601562 309.292969 192.082031 309 191.480469 308.597656 C 189.949219 307.597656 188.371094 306.746094 186.734375 305.941406 L 186.734375 305.523438 L 186.390625 305.457031 C 185.773438 305.277344 185.289062 304.988281 184.734375 304.660156 L 184.066406 304.261719 C 183.246094 303.761719 182.4375 303.242188 181.628906 302.722656 C 181 302.328125 180.351562 301.96875 179.695312 301.617188 C 178.914062 301.167969 178.160156 300.671875 177.40625 300.175781 C 176.90625 299.847656 176.90625 299.847656 176.28125 299.664062 L 176.28125 299.246094 L 175.746094 299.101562 C 175.015625 298.824219 174.511719 298.488281 173.902344 298.015625 C 173.539062 297.738281 173.539062 297.738281 172.9375 297.570312 L 172.9375 297.152344 L 172.578125 297.085938 C 172.011719 296.917969 171.628906 296.652344 171.144531 296.316406 C 170.609375 295.9375 170.21875 295.6875 169.589844 295.476562 L 169.589844 295.058594 L 169.070312 294.921875 C 168.148438 294.566406 167.425781 294.054688 166.625 293.476562 C 166.332031 293.265625 166.035156 293.058594 165.742188 292.847656 L 165.351562 292.566406 C 164.964844 292.300781 164.964844 292.300781 164.363281 292.128906 L 164.367188 292.578125 C 164.386719 300.019531 164.382812 307.460938 164.308594 314.898438 C 164.300781 315.621094 164.296875 316.339844 164.292969 317.058594 C 164.265625 320.882812 164.160156 324.6875 163.859375 328.5 L 163.820312 329.007812 C 163.691406 330.613281 163.558594 332.203125 163.199219 333.777344 C 163.054688 334.445312 163.019531 335.105469 162.980469 335.785156 L 162.933594 336.554688 L 162.902344 337.121094 L 162.484375 337.121094 L 162.484375 339.214844 L 162.066406 339.214844 L 162.066406 341.304688 L 161.644531 341.304688 L 161.671875 341.945312 C 161.644531 342.808594 161.492188 343.421875 161.226562 344.234375 L 160.808594 344.234375 L 160.875 344.824219 C 160.882812 345.808594 160.449219 346.5625 160.023438 347.429688 C 159.789062 347.949219 159.636719 348.417969 159.515625 348.96875 L 159.347656 349.675781 L 158.929688 349.886719 C 158.707031 350.367188 158.5 350.855469 158.300781 351.351562 L 157.882812 351.351562 L 157.792969 351.742188 C 157.675781 352.1875 157.675781 352.1875 157.464844 352.605469 L 157.046875 352.605469 L 157.007812 352.953125 C 156.648438 353.996094 155.652344 354.746094 154.851562 355.476562 C 153.394531 356.726562 151.707031 357.398438 149.847656 357.773438 C 147.003906 358.023438 144.273438 357.496094 141.574219 356.582031 L 141.574219 356.164062 L 140.738281 356.164062 L 140.738281 355.746094 L 140.273438 355.667969 C 138.464844 355.257812 136.875 354.050781 135.34375 353.042969 C 134.925781 352.769531 134.5 352.507812 134.066406 352.261719 L 133.628906 351.976562 L 133.628906 351.558594 C 133.511719 351.503906 133.394531 351.453125 133.269531 351.394531 C 132.75 351.117188 132.324219 350.792969 131.867188 350.421875 C 131.34375 350.003906 130.851562 349.640625 130.273438 349.296875 L 129.867188 349.046875 L 129.867188 348.628906 L 129.503906 348.46875 C 128.984375 348.1875 128.601562 347.863281 128.167969 347.464844 C 127.597656 346.941406 127.597656 346.941406 126.941406 346.539062 L 126.941406 346.117188 L 126.523438 346.117188 L 126.523438 345.699219 L 126.105469 345.699219 L 126.105469 345.28125 L 125.753906 345.136719 C 125.125 344.78125 124.679688 344.332031 124.167969 343.816406 L 123.605469 343.253906 L 123.175781 342.769531 L 123.175781 342.351562 L 122.757812 342.351562 L 122.757812 341.933594 L 122.339844 341.933594 C 122.023438 341.582031 122.023438 341.582031 121.6875 341.121094 L 121.34375 340.667969 L 121.085938 340.257812 L 121.085938 339.839844 L 120.667969 339.839844 C 120.367188 339.4375 120.367188 339.4375 120.039062 338.914062 C 119.839844 338.589844 119.628906 338.269531 119.414062 337.957031 L 118.996094 337.75 L 118.996094 337.332031 L 118.578125 337.332031 L 118.160156 336.074219 L 117.742188 336.074219 L 117.742188 335.65625 L 117.324219 335.65625 C 117.257812 335.53125 117.191406 335.410156 117.125 335.28125 C 116.621094 334.355469 116.113281 333.539062 115.441406 332.726562 C 115.175781 332.367188 114.914062 332.003906 114.65625 331.640625 L 114.269531 331.09375 L 113.976562 330.632812 L 113.976562 330.214844 L 113.558594 330.214844 L 113.558594 329.796875 L 113.140625 329.796875 L 112.722656 328.542969 L 112.304688 328.542969 C 112.164062 328.269531 112.023438 328 111.886719 327.730469 L 111.652344 327.273438 C 111.46875 326.867188 111.46875 326.867188 111.46875 326.449219 L 111.050781 326.449219 C 110.878906 326.148438 110.710938 325.847656 110.539062 325.546875 L 110.253906 325.039062 C 110.003906 324.566406 110.003906 324.566406 109.796875 323.9375 L 109.378906 323.9375 L 109.378906 323.101562 L 108.960938 323.101562 L 108.542969 321.84375 L 108.125 321.84375 C 107.984375 321.574219 107.84375 321.304688 107.703125 321.035156 L 107.46875 320.578125 C 107.285156 320.171875 107.285156 320.171875 107.285156 319.753906 L 106.867188 319.753906 L 106.867188 318.914062 L 106.449219 318.914062 C 106.308594 318.644531 106.171875 318.375 106.03125 318.105469 L 105.796875 317.648438 C 105.613281 317.242188 105.613281 317.242188 105.613281 316.824219 L 105.195312 316.824219 L 105.195312 315.984375 L 104.777344 315.984375 C 104.636719 315.714844 104.5 315.445312 104.359375 315.175781 L 104.125 314.71875 C 103.941406 314.3125 103.941406 314.3125 103.941406 313.894531 L 103.523438 313.894531 L 103.523438 313.054688 L 103.105469 313.054688 L 103.105469 312.21875 L 102.6875 312.21875 L 102.6875 311.382812 L 102.269531 311.382812 C 101.957031 310.742188 101.648438 310.101562 101.339844 309.460938 L 101.074219 308.910156 L 100.820312 308.378906 L 100.582031 307.890625 C 100.378906 307.382812 100.269531 306.898438 100.179688 306.359375 L 99.761719 306.359375 L 99.761719 305.523438 L 99.34375 305.523438 L 99.34375 304.6875 L 98.925781 304.6875 L 98.925781 303.847656 L 98.503906 303.847656 L 98.503906 303.011719 L 98.085938 303.011719 L 98.085938 302.175781 L 97.667969 302.175781 L 97.667969 301.335938 L 97.25 301.335938 C 96.976562 300.578125 96.832031 300.0625 96.832031 299.246094 L 96.414062 299.246094 L 96.414062 298.40625 L 95.996094 298.40625 L 95.996094 297.570312 L 95.578125 297.570312 L 95.578125 296.734375 L 95.160156 296.734375 L 95.160156 295.476562 L 94.742188 295.476562 L 94.742188 294.640625 L 94.324219 294.640625 L 94.324219 293.804688 L 93.90625 293.804688 L 93.90625 292.546875 L 93.488281 292.546875 L 93.488281 291.710938 L 93.070312 291.710938 C 92.792969 290.953125 92.652344 290.4375 92.652344 289.617188 L 92.234375 289.617188 C 91.957031 288.859375 91.816406 288.34375 91.816406 287.527344 L 91.398438 287.527344 C 91.121094 286.769531 90.980469 286.25 90.980469 285.433594 L 90.5625 285.433594 L 90.5625 284.179688 L 90.144531 284.179688 L 90.144531 283.339844 L 89.722656 283.339844 L 89.722656 282.085938 L 89.304688 282.085938 C 89.03125 281.328125 88.886719 280.808594 88.886719 279.992188 L 88.46875 279.992188 L 88.46875 278.738281 L 88.050781 278.738281 C 87.777344 277.980469 87.632812 277.460938 87.632812 276.644531 L 87.214844 276.644531 L 87.214844 275.390625 L 86.796875 275.390625 L 86.796875 274.132812 L 86.378906 274.132812 L 86.378906 272.878906 L 85.960938 272.878906 C 85.6875 272.121094 85.542969 271.601562 85.542969 270.785156 L 85.125 270.785156 L 85.125 269.53125 L 84.707031 269.53125 L 84.707031 268.273438 L 84.289062 268.273438 L 84.289062 267.019531 L 83.871094 267.019531 L 83.871094 265.761719 L 83.453125 265.761719 L 83.453125 264.507812 L 83.035156 264.507812 L 83.035156 263.253906 L 82.617188 263.253906 L 82.617188 261.996094 L 82.199219 261.996094 L 82.199219 260.742188 L 81.78125 260.742188 L 81.78125 259.484375 L 81.363281 259.484375 L 81.363281 258.230469 L 80.945312 258.230469 L 80.945312 256.972656 L 80.523438 256.972656 L 80.523438 255.71875 L 80.105469 255.71875 L 80.105469 254.464844 L 79.6875 254.464844 L 79.6875 253.207031 L 79.269531 253.207031 L 79.269531 251.953125 L 78.851562 251.953125 C 78.519531 251.078125 78.390625 250.375 78.433594 249.441406 L 78.015625 249.441406 C 77.699219 246.890625 77.496094 244.136719 78.433594 241.699219 L 78.851562 241.699219 L 78.851562 240.859375 L 79.269531 240.859375 L 79.363281 240.46875 C 79.480469 240.023438 79.480469 240.023438 79.6875 239.605469 L 80.105469 239.605469 L 80.238281 239.265625 C 80.636719 238.574219 81.164062 238.015625 81.78125 237.511719 L 82.199219 237.511719 L 82.199219 237.09375 C 82.585938 236.777344 82.585938 236.777344 83.097656 236.441406 L 83.605469 236.097656 C 84.078125 235.839844 84.078125 235.839844 84.707031 235.839844 L 84.707031 235.421875 L 85.542969 235.421875 L 85.542969 235.003906 L 86.378906 235.003906 L 86.378906 234.582031 C 87.136719 234.308594 87.652344 234.164062 88.46875 234.164062 L 88.46875 233.746094 C 89.34375 233.414062 90.042969 233.285156 90.980469 233.328125 L 90.980469 232.910156 C 91.851562 232.578125 92.554688 232.445312 93.488281 232.492188 L 93.488281 232.074219 L 94.015625 231.957031 L 94.730469 231.796875 L 95.425781 231.644531 C 96.003906 231.496094 96.550781 231.332031 97.113281 231.140625 C 98.253906 230.753906 99.410156 230.460938 100.574219 230.167969 C 101.394531 229.957031 102.199219 229.730469 103 229.457031 C 104.128906 229.070312 105.273438 228.785156 106.429688 228.492188 C 107.25 228.28125 108.054688 228.054688 108.855469 227.78125 C 109.980469 227.398438 111.128906 227.109375 112.28125 226.820312 C 113.101562 226.609375 113.90625 226.382812 114.710938 226.109375 C 115.835938 225.722656 116.984375 225.4375 118.136719 225.144531 C 118.957031 224.933594 119.761719 224.707031 120.5625 224.433594 C 121.691406 224.050781 122.835938 223.761719 123.992188 223.472656 C 124.808594 223.261719 125.617188 223.035156 126.417969 222.761719 C 127.542969 222.375 128.691406 222.089844 129.84375 221.796875 C 130.664062 221.585938 131.46875 221.359375 132.269531 221.085938 C 133.398438 220.703125 134.546875 220.414062 135.699219 220.121094 C 136.515625 219.914062 137.320312 219.6875 138.117188 219.414062 C 139.296875 219.011719 140.496094 218.714844 141.699219 218.410156 L 142.214844 218.277344 L 142.679688 218.160156 C 143.042969 218.082031 143.042969 218.082031 143.246094 217.84375 C 143.664062 217.835938 144.085938 217.832031 144.503906 217.84375 L 144.503906 217.425781 L 145.03125 217.308594 L 145.742188 217.148438 L 146.441406 216.996094 C 147.019531 216.847656 147.566406 216.683594 148.128906 216.492188 C 149.265625 216.105469 150.425781 215.8125 151.589844 215.519531 C 152.589844 215.261719 153.566406 214.964844 154.542969 214.617188 C 155.105469 214.449219 155.628906 214.449219 156.210938 214.496094 L 156.210938 214.074219 L 156.796875 213.945312 L 157.554688 213.773438 L 158.3125 213.605469 L 158.929688 213.449219 L 159.136719 213.238281 C 159.554688 213.230469 159.972656 213.230469 160.390625 213.238281 L 160.390625 212.820312 L 160.921875 212.707031 C 162.546875 212.339844 164.097656 211.898438 165.65625 211.316406 C 166.296875 211.132812 166.839844 211.113281 167.5 211.144531 L 167.5 210.726562 L 168.140625 210.664062 C 168.96875 210.550781 168.96875 210.550781 169.710938 210.191406 C 170.4375 209.886719 170.902344 209.832031 171.683594 209.890625 L 171.683594 209.472656 L 172.402344 209.378906 L 173.144531 209.261719 L 173.355469 209.054688 C 173.773438 209.046875 174.191406 209.042969 174.609375 209.054688 L 174.609375 208.636719 L 175.328125 208.542969 L 176.074219 208.425781 L 176.28125 208.214844 C 176.699219 208.207031 177.117188 208.207031 177.535156 208.214844 L 177.535156 207.796875 L 178.125 207.667969 L 178.882812 207.496094 L 179.640625 207.328125 L 180.253906 207.171875 L 180.464844 206.960938 C 180.882812 206.953125 181.300781 206.953125 181.71875 206.960938 L 181.71875 206.542969 L 182.359375 206.476562 C 183.058594 206.355469 183.554688 206.175781 184.191406 205.878906 C 185.03125 205.558594 185.917969 205.398438 186.800781 205.214844 L 187.363281 205.078125 L 187.570312 204.867188 C 187.988281 204.859375 188.40625 204.859375 188.828125 204.867188 L 188.828125 204.449219 L 189.546875 204.359375 L 190.289062 204.242188 L 190.5 204.03125 C 190.917969 204.023438 191.335938 204.023438 191.753906 204.03125 L 191.753906 203.613281 L 192.472656 203.523438 L 193.21875 203.402344 L 193.425781 203.195312 C 193.84375 203.1875 194.261719 203.183594 194.679688 203.195312 L 194.679688 202.777344 L 195.269531 202.644531 L 196.027344 202.476562 L 196.785156 202.304688 L 197.398438 202.148438 L 197.605469 201.9375 C 198.027344 201.929688 198.445312 201.929688 198.863281 201.9375 L 198.863281 201.519531 L 199.582031 201.429688 L 200.324219 201.3125 L 200.535156 201.101562 C 200.953125 201.09375 201.371094 201.09375 201.789062 201.101562 L 201.789062 200.683594 L 202.507812 200.59375 L 203.253906 200.472656 L 203.460938 200.265625 C 203.878906 200.257812 204.296875 200.253906 204.714844 200.265625 L 204.714844 199.847656 L 205.355469 199.78125 C 206.054688 199.660156 206.554688 199.480469 207.1875 199.183594 C 208.03125 198.863281 208.917969 198.703125 209.796875 198.515625 L 210.359375 198.382812 L 210.570312 198.171875 C 210.988281 198.164062 211.40625 198.164062 211.824219 198.171875 L 211.824219 197.753906 L 212.542969 197.664062 L 213.289062 197.542969 L 213.496094 197.335938 C 213.914062 197.328125 214.332031 197.328125 214.75 197.335938 L 214.75 196.917969 L 215.46875 196.824219 L 216.214844 196.707031 L 216.425781 196.5 C 216.84375 196.488281 217.261719 196.488281 217.679688 196.5 L 217.679688 196.078125 L 219.351562 196.078125 L 219.351562 195.660156 C 219.550781 195.640625 219.550781 195.640625 219.753906 195.621094 L 220.277344 195.570312 C 220.453125 195.550781 220.625 195.535156 220.800781 195.519531 L 221.234375 195.453125 Z M 221.441406 195.242188 " fill-opacity="1" fill-rule="nonzero"/><path fill="#5999cd" d="M 63.382812 74.707031 C 63.863281 74.703125 64.347656 74.699219 64.832031 74.695312 L 65.648438 74.6875 L 66.308594 74.707031 L 66.515625 74.917969 C 66.871094 74.953125 67.222656 74.976562 67.574219 74.996094 C 68.460938 75.070312 69.1875 75.207031 70.003906 75.554688 C 70.679688 75.832031 71.367188 76.074219 72.058594 76.316406 L 72.835938 76.59375 L 73.417969 76.800781 L 73.417969 77.21875 L 74.253906 77.21875 L 74.253906 77.636719 L 74.828125 77.820312 C 75.367188 78.007812 75.84375 78.207031 76.34375 78.476562 L 76.34375 78.894531 L 77.597656 79.3125 L 77.597656 79.730469 L 77.957031 79.894531 C 79.777344 80.863281 81.242188 82.480469 82.679688 83.9375 C 82.996094 84.257812 83.316406 84.578125 83.636719 84.898438 C 84.59375 85.863281 85.542969 86.816406 86.378906 87.890625 L 86.378906 88.3125 L 86.796875 88.3125 C 87.128906 88.632812 87.128906 88.632812 87.503906 89.070312 L 87.875 89.496094 C 88.261719 89.984375 88.261719 89.984375 88.65625 90.578125 C 89.144531 91.308594 89.675781 91.992188 90.222656 92.679688 C 90.855469 93.476562 91.484375 94.277344 92.089844 95.097656 C 92.480469 95.625 92.886719 96.125 93.316406 96.617188 C 93.796875 97.164062 94.167969 97.726562 94.535156 98.355469 L 94.847656 98.667969 C 95.160156 98.984375 95.160156 98.984375 95.421875 99.425781 C 95.859375 100.144531 96.367188 100.78125 96.890625 101.433594 C 97.261719 101.925781 97.5625 102.433594 97.878906 102.957031 C 98.214844 103.449219 98.5625 103.929688 98.910156 104.410156 C 99.5625 105.308594 100.195312 106.214844 100.804688 107.144531 C 101.519531 108.222656 102.246094 109.292969 102.976562 110.363281 L 103.324219 110.875 C 103.980469 111.835938 104.648438 112.777344 105.355469 113.699219 C 105.6875 114.144531 105.964844 114.617188 106.242188 115.097656 C 106.519531 115.515625 106.796875 115.933594 107.078125 116.351562 L 111.257812 122.628906 L 111.636719 123.191406 C 112.054688 123.820312 112.46875 124.453125 112.878906 125.089844 L 113.269531 125.6875 L 113.558594 126.1875 L 113.558594 126.605469 L 113.976562 126.605469 C 114.199219 126.898438 114.199219 126.898438 114.441406 127.316406 L 114.726562 127.796875 L 115.035156 128.332031 C 115.265625 128.71875 115.492188 129.109375 115.722656 129.496094 L 116.097656 130.132812 C 116.703125 131.160156 117.328125 132.179688 117.949219 133.199219 C 119.410156 135.597656 120.851562 138.007812 122.277344 140.425781 C 123.4375 142.382812 124.605469 144.332031 125.789062 146.277344 C 127.265625 148.699219 128.71875 151.136719 130.160156 153.578125 C 131.027344 155.046875 131.90625 156.511719 132.804688 157.960938 C 133.488281 159.074219 134.167969 160.1875 134.84375 161.304688 L 135.070312 161.675781 C 136.398438 163.859375 137.703125 166.054688 139.003906 168.253906 C 140.304688 170.453125 141.621094 172.640625 142.949219 174.820312 C 144.09375 176.695312 145.214844 178.585938 146.332031 180.476562 C 147.527344 182.503906 148.738281 184.515625 149.984375 186.511719 C 151.027344 188.183594 152.027344 189.878906 153.027344 191.578125 C 154.058594 193.324219 155.101562 195.066406 156.160156 196.800781 L 157.46875 198.957031 C 158.097656 199.988281 158.722656 201.023438 159.347656 202.058594 C 159.449219 202.226562 159.554688 202.398438 159.664062 202.578125 L 159.949219 203.050781 L 160.195312 203.460938 C 160.390625 203.820312 160.390625 203.820312 160.601562 204.449219 C 156.585938 205.679688 152.566406 206.878906 148.523438 208.023438 C 145.714844 208.820312 142.914062 209.652344 140.125 210.519531 C 138.121094 211.140625 136.109375 211.722656 134.085938 212.28125 C 132.640625 212.683594 131.199219 213.109375 129.761719 213.554688 C 127.878906 214.136719 125.984375 214.675781 124.082031 215.199219 C 122.625 215.609375 121.171875 216.035156 119.726562 216.484375 C 117.84375 217.0625 115.949219 217.605469 114.046875 218.128906 C 112.386719 218.59375 110.742188 219.085938 109.09375 219.597656 C 107.652344 220.039062 106.207031 220.449219 104.75 220.851562 C 102.832031 221.378906 100.929688 221.953125 99.027344 222.550781 C 96.9375 223.210938 94.835938 223.828125 92.722656 224.414062 C 90.832031 224.9375 88.949219 225.492188 87.066406 226.054688 C 86.628906 226.1875 86.1875 226.316406 85.746094 226.445312 C 85.351562 226.5625 84.957031 226.6875 84.5625 226.816406 C 83.050781 227.289062 81.609375 227.363281 80.03125 227.351562 C 79.613281 227.351562 79.195312 227.355469 78.773438 227.363281 C 76.609375 227.363281 74.632812 227.023438 72.722656 225.953125 L 72.164062 225.585938 L 72.164062 225.167969 L 71.535156 225.167969 C 71.183594 224.828125 71.183594 224.828125 70.816406 224.382812 C 70.410156 223.894531 70.015625 223.4375 69.5625 222.996094 L 69.234375 222.65625 L 69.234375 222.238281 L 68.816406 222.238281 L 68.816406 221.820312 L 68.398438 221.820312 L 68.398438 220.980469 L 67.980469 220.980469 L 67.5625 219.726562 L 67.144531 219.726562 L 67.144531 218.46875 L 66.726562 218.46875 L 66.726562 217.214844 L 66.308594 217.214844 L 66.308594 216.378906 L 65.890625 216.378906 L 65.890625 215.121094 L 65.472656 215.121094 C 65.195312 214.363281 65.054688 213.847656 65.054688 213.03125 L 64.636719 213.03125 L 64.636719 211.773438 L 64.21875 211.773438 L 64.21875 210.519531 L 63.800781 210.519531 L 63.800781 209.679688 L 63.382812 209.679688 L 63.382812 208.425781 L 62.964844 208.425781 L 62.964844 207.171875 L 62.542969 207.171875 L 62.542969 205.914062 L 62.125 205.914062 L 62.125 205.078125 L 61.707031 205.078125 L 61.707031 203.820312 L 61.289062 203.820312 L 61.289062 202.566406 L 60.871094 202.566406 L 60.871094 201.3125 L 60.453125 201.3125 L 60.453125 200.054688 L 60.035156 200.054688 L 60.035156 198.800781 L 59.617188 198.800781 L 59.617188 197.542969 L 59.199219 197.542969 L 59.199219 196.289062 L 58.78125 196.289062 L 58.78125 195.035156 L 58.363281 195.035156 L 58.363281 193.777344 L 57.945312 193.777344 L 57.945312 192.523438 L 57.527344 192.523438 L 57.527344 191.265625 L 57.109375 191.265625 L 57.109375 190.011719 L 56.691406 190.011719 L 56.597656 189.292969 L 56.480469 188.546875 L 56.273438 188.335938 C 56.265625 187.917969 56.261719 187.5 56.273438 187.082031 L 55.855469 187.082031 L 55.855469 185.824219 L 55.4375 185.824219 L 55.34375 185.105469 L 55.226562 184.359375 L 55.019531 184.152344 C 55.007812 183.734375 55.007812 183.316406 55.019531 182.894531 L 54.601562 182.894531 L 54.601562 181.640625 L 54.183594 181.640625 L 54.183594 179.964844 L 53.761719 179.964844 L 53.671875 179.246094 L 53.554688 178.5 L 53.34375 178.292969 C 53.335938 177.875 53.335938 177.457031 53.34375 177.035156 L 52.925781 177.035156 L 52.925781 175.363281 L 52.507812 175.363281 L 52.507812 173.6875 L 52.089844 173.6875 L 52.089844 172.015625 L 51.671875 172.015625 L 51.671875 170.339844 L 51.253906 170.339844 L 51.253906 168.667969 L 50.835938 168.667969 L 50.796875 168.261719 L 50.746094 167.738281 C 50.726562 167.566406 50.710938 167.394531 50.695312 167.214844 L 50.628906 166.785156 L 50.417969 166.574219 C 50.390625 166.015625 50.410156 165.460938 50.417969 164.898438 L 50 164.898438 L 49.960938 164.496094 L 49.910156 163.972656 C 49.890625 163.800781 49.875 163.625 49.855469 163.449219 L 49.792969 163.015625 L 49.582031 162.808594 C 49.515625 162.320312 49.476562 161.835938 49.433594 161.347656 L 49.371094 160.925781 L 49.164062 160.714844 C 49.097656 160.230469 49.058594 159.746094 49.011719 159.257812 L 48.953125 158.832031 L 48.746094 158.621094 C 48.730469 158.269531 48.726562 157.917969 48.734375 157.5625 L 48.738281 156.980469 L 48.746094 156.53125 L 48.328125 156.53125 L 48.328125 154.4375 L 47.910156 154.4375 L 47.910156 151.925781 L 47.492188 151.925781 C 47.472656 151.636719 47.472656 151.636719 47.453125 151.339844 L 47.398438 150.578125 L 47.347656 149.820312 L 47.28125 149.207031 L 47.074219 148.996094 C 47.003906 148.292969 46.964844 147.589844 46.921875 146.882812 L 46.863281 146.277344 L 46.65625 146.066406 C 46.640625 145.574219 46.636719 145.082031 46.640625 144.589844 L 46.648438 143.769531 L 46.65625 143.136719 L 46.238281 143.136719 L 46.238281 139.371094 L 45.820312 139.371094 L 45.820312 135.183594 L 45.402344 135.183594 L 45.402344 129.746094 L 44.980469 129.746094 C 44.925781 127.894531 44.871094 126.046875 44.820312 124.199219 C 44.792969 123.339844 44.769531 122.480469 44.742188 121.621094 C 44.71875 120.789062 44.695312 119.960938 44.667969 119.128906 C 44.660156 118.8125 44.652344 118.5 44.640625 118.183594 C 44.546875 115.089844 44.519531 112 44.65625 108.902344 L 44.683594 108.214844 C 44.714844 107.503906 44.742188 106.792969 44.773438 106.085938 L 44.832031 104.621094 C 44.882812 103.4375 44.933594 102.257812 44.980469 101.074219 L 45.402344 101.074219 L 45.378906 100.707031 C 45.335938 99.414062 45.535156 98.3125 45.875 97.070312 C 46.070312 96.3125 46.164062 95.574219 46.238281 94.796875 L 46.65625 94.796875 L 46.65625 93.125 L 47.074219 93.125 L 47.074219 91.867188 L 47.492188 91.867188 L 47.464844 91.320312 C 47.492188 90.585938 47.648438 90.039062 47.910156 89.355469 L 48.328125 89.355469 L 48.417969 88.898438 L 48.746094 87.265625 L 49.164062 87.265625 L 49.164062 86.425781 L 49.582031 86.425781 L 49.582031 85.589844 L 50 85.589844 L 50 84.753906 L 50.417969 84.753906 L 50.835938 83.496094 L 51.253906 83.496094 L 51.347656 83.105469 C 51.464844 82.660156 51.464844 82.660156 51.671875 82.242188 L 52.089844 82.242188 L 52.507812 80.988281 L 52.925781 80.988281 L 52.925781 80.566406 L 53.34375 80.566406 L 53.34375 80.148438 L 53.761719 80.148438 L 53.761719 79.730469 L 54.183594 79.730469 L 54.183594 79.3125 L 54.601562 79.3125 L 54.601562 78.894531 L 55.019531 78.894531 L 55.019531 78.476562 C 55.617188 78.03125 55.617188 78.03125 56.273438 77.636719 L 56.691406 77.636719 L 56.691406 77.21875 L 57.316406 76.800781 L 57.945312 76.800781 L 57.945312 76.382812 L 58.78125 76.382812 L 58.78125 75.964844 L 59.277344 75.835938 L 59.917969 75.664062 L 60.558594 75.496094 C 61.0625 75.386719 61.0625 75.386719 61.289062 75.128906 C 61.644531 75.113281 61.996094 75.109375 62.347656 75.113281 L 62.929688 75.121094 L 63.382812 75.128906 Z M 63.382812 74.707031 " fill-opacity="1" fill-rule="nonzero"/><path fill="#77d8af" d="M 160.390625 212.820312 L 161.4375 213.03125 C 161.640625 214.953125 161.726562 216.882812 161.804688 218.816406 L 161.847656 219.863281 C 161.878906 220.617188 161.910156 221.371094 161.941406 222.125 C 161.988281 223.339844 162.039062 224.554688 162.089844 225.769531 C 162.164062 227.515625 162.234375 229.261719 162.304688 231.007812 C 162.472656 235.117188 162.644531 239.230469 162.8125 243.34375 L 162.929688 246.113281 C 163.195312 252.570312 163.46875 259.027344 163.746094 265.484375 C 163.867188 268.347656 163.992188 271.210938 164.117188 274.070312 C 164.589844 284.917969 164.589844 284.917969 164.710938 288.492188 C 164.722656 288.910156 164.738281 289.324219 164.753906 289.742188 L 164.777344 290.457031 L 164.796875 291.0625 L 164.78125 291.503906 L 164.574219 291.710938 C 164.550781 292.113281 164.539062 292.511719 164.535156 292.914062 L 164.527344 293.707031 L 164.519531 294.585938 L 164.511719 295.507812 C 164.503906 296.171875 164.5 296.832031 164.492188 297.496094 C 164.484375 298.554688 164.472656 299.613281 164.460938 300.671875 C 164.429688 303.679688 164.398438 306.691406 164.371094 309.699219 C 164.355469 311.359375 164.335938 313.019531 164.320312 314.679688 C 164.308594 315.554688 164.300781 316.429688 164.292969 317.304688 C 164.265625 321.042969 164.152344 324.757812 163.859375 328.484375 L 163.820312 328.992188 C 163.691406 330.605469 163.558594 332.199219 163.199219 333.777344 C 163.054688 334.445312 163.019531 335.105469 162.980469 335.785156 L 162.933594 336.554688 L 162.902344 337.121094 L 162.484375 337.121094 L 162.484375 339.214844 L 162.066406 339.214844 L 162.066406 341.304688 L 161.644531 341.304688 L 161.671875 341.945312 C 161.644531 342.808594 161.492188 343.421875 161.226562 344.234375 L 160.808594 344.234375 L 160.875 344.824219 C 160.882812 345.808594 160.449219 346.5625 160.023438 347.429688 C 159.789062 347.949219 159.636719 348.417969 159.515625 348.96875 L 159.347656 349.675781 L 158.929688 349.886719 C 158.707031 350.367188 158.5 350.855469 158.300781 351.351562 L 157.882812 351.351562 L 157.792969 351.742188 C 157.675781 352.1875 157.675781 352.1875 157.464844 352.605469 L 157.046875 352.605469 L 157.007812 352.953125 C 156.648438 353.996094 155.652344 354.746094 154.851562 355.476562 C 153.394531 356.726562 151.707031 357.398438 149.847656 357.773438 C 147.003906 358.023438 144.273438 357.496094 141.574219 356.582031 L 141.574219 356.164062 L 140.738281 356.164062 L 140.738281 355.746094 L 140.273438 355.667969 C 138.464844 355.257812 136.875 354.050781 135.34375 353.042969 C 134.925781 352.769531 134.5 352.507812 134.066406 352.261719 L 133.628906 351.976562 L 133.628906 351.558594 C 133.511719 351.503906 133.394531 351.453125 133.269531 351.394531 C 132.75 351.117188 132.324219 350.792969 131.867188 350.421875 C 131.34375 350.003906 130.851562 349.640625 130.273438 349.296875 L 129.867188 349.046875 L 129.867188 348.628906 L 129.503906 348.46875 C 128.984375 348.1875 128.601562 347.863281 128.167969 347.464844 C 127.597656 346.941406 127.597656 346.941406 126.941406 346.539062 L 126.941406 346.117188 L 126.523438 346.117188 L 126.523438 345.699219 L 126.105469 345.699219 L 126.105469 345.28125 L 125.753906 345.136719 C 125.125 344.78125 124.679688 344.332031 124.167969 343.816406 L 123.605469 343.253906 L 123.175781 342.769531 L 123.175781 342.351562 L 122.757812 342.351562 L 122.757812 341.933594 L 122.339844 341.933594 C 122.023438 341.582031 122.023438 341.582031 121.6875 341.121094 L 121.34375 340.667969 L 121.085938 340.257812 L 121.085938 339.839844 L 120.667969 339.839844 C 120.367188 339.4375 120.367188 339.4375 120.039062 338.914062 C 119.839844 338.589844 119.628906 338.269531 119.414062 337.957031 L 118.996094 337.75 L 118.996094 337.332031 L 118.578125 337.332031 L 118.160156 336.074219 L 117.742188 336.074219 L 117.742188 335.65625 L 117.324219 335.65625 C 117.257812 335.53125 117.191406 335.410156 117.125 335.28125 C 116.621094 334.355469 116.113281 333.539062 115.441406 332.726562 C 115.175781 332.367188 114.914062 332.003906 114.65625 331.640625 L 114.269531 331.09375 L 113.976562 330.632812 L 113.976562 330.214844 L 113.558594 330.214844 L 113.558594 329.796875 L 113.140625 329.796875 L 112.722656 328.542969 L 112.304688 328.542969 C 112.164062 328.269531 112.023438 328 111.886719 327.730469 L 111.652344 327.273438 C 111.46875 326.867188 111.46875 326.867188 111.46875 326.449219 L 111.050781 326.449219 C 110.878906 326.148438 110.710938 325.847656 110.539062 325.546875 L 110.253906 325.039062 C 110.003906 324.566406 110.003906 324.566406 109.796875 323.9375 L 109.378906 323.9375 L 109.378906 323.101562 L 108.960938 323.101562 L 108.542969 321.84375 L 108.125 321.84375 C 107.984375 321.574219 107.84375 321.304688 107.703125 321.035156 L 107.46875 320.578125 C 107.285156 320.171875 107.285156 320.171875 107.285156 319.753906 L 106.867188 319.753906 L 106.867188 318.914062 L 106.449219 318.914062 C 106.308594 318.644531 106.171875 318.375 106.03125 318.105469 L 105.796875 317.648438 C 105.613281 317.242188 105.613281 317.242188 105.613281 316.824219 L 105.195312 316.824219 L 105.195312 315.984375 L 104.777344 315.984375 C 104.636719 315.714844 104.5 315.445312 104.359375 315.175781 L 104.125 314.71875 C 103.941406 314.3125 103.941406 314.3125 103.941406 313.894531 L 103.523438 313.894531 L 103.523438 313.054688 L 103.105469 313.054688 L 103.105469 312.21875 L 102.6875 312.21875 L 102.6875 311.382812 L 102.269531 311.382812 C 101.957031 310.742188 101.648438 310.101562 101.339844 309.460938 L 101.074219 308.910156 L 100.820312 308.378906 L 100.582031 307.890625 C 100.378906 307.382812 100.269531 306.898438 100.179688 306.359375 L 99.761719 306.359375 L 99.761719 305.523438 L 99.34375 305.523438 L 99.34375 304.6875 L 98.925781 304.6875 L 98.925781 303.847656 L 98.503906 303.847656 L 98.503906 303.011719 L 98.085938 303.011719 L 98.085938 302.175781 L 97.667969 302.175781 L 97.667969 301.335938 L 97.25 301.335938 C 96.976562 300.578125 96.832031 300.0625 96.832031 299.246094 L 96.414062 299.246094 L 96.414062 298.40625 L 95.996094 298.40625 L 95.996094 297.570312 L 95.578125 297.570312 L 95.578125 296.734375 L 95.160156 296.734375 L 95.160156 295.476562 L 94.742188 295.476562 L 94.742188 294.640625 L 94.324219 294.640625 L 94.324219 293.804688 L 93.90625 293.804688 L 93.90625 292.546875 L 93.488281 292.546875 L 93.488281 291.710938 L 93.070312 291.710938 C 92.792969 290.953125 92.652344 290.4375 92.652344 289.617188 L 92.234375 289.617188 C 91.957031 288.859375 91.816406 288.34375 91.816406 287.527344 L 91.398438 287.527344 C 91.121094 286.769531 90.980469 286.25 90.980469 285.433594 L 90.5625 285.433594 L 90.5625 284.179688 L 90.144531 284.179688 L 90.144531 283.339844 L 89.722656 283.339844 L 89.722656 282.085938 L 89.304688 282.085938 C 89.03125 281.328125 88.886719 280.808594 88.886719 279.992188 L 88.46875 279.992188 L 88.46875 278.738281 L 88.050781 278.738281 C 87.777344 277.980469 87.632812 277.460938 87.632812 276.644531 L 87.214844 276.644531 L 87.214844 275.390625 L 86.796875 275.390625 L 86.796875 274.132812 L 86.378906 274.132812 L 86.378906 272.878906 L 85.960938 272.878906 C 85.6875 272.121094 85.542969 271.601562 85.542969 270.785156 L 85.125 270.785156 L 85.125 269.53125 L 84.707031 269.53125 L 84.707031 268.273438 L 84.289062 268.273438 L 84.289062 267.019531 L 83.871094 267.019531 L 83.871094 265.761719 L 83.453125 265.761719 L 83.453125 264.507812 L 83.035156 264.507812 L 83.035156 263.253906 L 82.617188 263.253906 L 82.617188 261.996094 L 82.199219 261.996094 L 82.199219 260.742188 L 81.78125 260.742188 L 81.78125 259.484375 L 81.363281 259.484375 L 81.363281 258.230469 L 80.945312 258.230469 L 80.945312 256.972656 L 80.523438 256.972656 L 80.523438 255.71875 L 80.105469 255.71875 L 80.105469 254.464844 L 79.6875 254.464844 L 79.6875 253.207031 L 79.269531 253.207031 L 79.269531 251.953125 L 78.851562 251.953125 C 78.519531 251.078125 78.390625 250.375 78.433594 249.441406 L 78.015625 249.441406 C 77.699219 246.890625 77.496094 244.136719 78.433594 241.699219 L 78.851562 241.699219 L 78.851562 240.859375 L 79.269531 240.859375 L 79.363281 240.46875 C 79.480469 240.023438 79.480469 240.023438 79.6875 239.605469 L 80.105469 239.605469 L 80.238281 239.265625 C 80.636719 238.574219 81.164062 238.015625 81.78125 237.511719 L 82.199219 237.511719 L 82.199219 237.09375 C 82.585938 236.777344 82.585938 236.777344 83.097656 236.441406 L 83.605469 236.097656 C 84.078125 235.839844 84.078125 235.839844 84.707031 235.839844 L 84.707031 235.421875 L 85.542969 235.421875 L 85.542969 235.003906 L 86.378906 235.003906 L 86.378906 234.582031 C 87.136719 234.308594 87.652344 234.164062 88.46875 234.164062 L 88.46875 233.746094 C 89.34375 233.414062 90.042969 233.285156 90.980469 233.328125 L 90.980469 232.910156 C 91.851562 232.578125 92.554688 232.445312 93.488281 232.492188 L 93.488281 232.074219 L 94.015625 231.957031 L 94.730469 231.796875 L 95.425781 231.644531 C 96.003906 231.496094 96.550781 231.332031 97.113281 231.140625 C 98.253906 230.753906 99.410156 230.460938 100.574219 230.167969 C 101.394531 229.957031 102.199219 229.730469 103 229.457031 C 104.128906 229.070312 105.273438 228.785156 106.429688 228.492188 C 107.25 228.28125 108.054688 228.054688 108.855469 227.78125 C 109.980469 227.398438 111.128906 227.109375 112.28125 226.820312 C 113.101562 226.609375 113.90625 226.382812 114.710938 226.109375 C 115.835938 225.722656 116.984375 225.4375 118.136719 225.144531 C 118.957031 224.933594 119.761719 224.707031 120.5625 224.433594 C 121.691406 224.050781 122.835938 223.761719 123.992188 223.472656 C 124.808594 223.261719 125.617188 223.035156 126.417969 222.761719 C 127.542969 222.375 128.691406 222.089844 129.84375 221.796875 C 130.664062 221.585938 131.46875 221.359375 132.269531 221.085938 C 133.398438 220.703125 134.546875 220.414062 135.699219 220.121094 C 136.515625 219.914062 137.320312 219.6875 138.117188 219.414062 C 139.296875 219.011719 140.496094 218.714844 141.699219 218.410156 L 142.214844 218.277344 L 142.679688 218.160156 C 143.042969 218.082031 143.042969 218.082031 143.246094 217.84375 C 143.664062 217.835938 144.085938 217.832031 144.503906 217.84375 L 144.503906 217.425781 L 145.03125 217.308594 L 145.742188 217.148438 L 146.441406 216.996094 C 147.019531 216.847656 147.566406 216.683594 148.128906 216.492188 C 149.265625 216.105469 150.425781 215.8125 151.589844 215.519531 C 152.589844 215.261719 153.566406 214.964844 154.542969 214.617188 C 155.105469 214.449219 155.628906 214.449219 156.210938 214.496094 L 156.210938 214.074219 L 156.796875 213.945312 L 157.554688 213.773438 L 158.3125 213.605469 L 158.929688 213.449219 L 159.136719 213.238281 C 159.554688 213.230469 159.972656 213.230469 160.390625 213.238281 Z M 160.390625 212.820312 " fill-opacity="1" fill-rule="nonzero"/><path fill="#277dbc" d="M 113.558594 126.605469 L 113.976562 126.605469 C 114.199219 126.898438 114.199219 126.898438 114.441406 127.316406 L 114.726562 127.796875 L 115.035156 128.332031 C 115.265625 128.71875 115.492188 129.109375 115.722656 129.496094 L 116.097656 130.132812 C 116.703125 131.160156 117.328125 132.179688 117.949219 133.199219 C 119.410156 135.597656 120.851562 138.007812 122.277344 140.425781 C 123.4375 142.382812 124.605469 144.332031 125.789062 146.277344 C 127.265625 148.699219 128.71875 151.136719 130.160156 153.578125 C 131.027344 155.046875 131.90625 156.511719 132.804688 157.960938 C 133.488281 159.074219 134.167969 160.1875 134.84375 161.304688 L 135.070312 161.675781 C 136.398438 163.859375 137.703125 166.054688 139.003906 168.253906 C 140.304688 170.453125 141.621094 172.640625 142.949219 174.820312 C 144.09375 176.695312 145.214844 178.585938 146.332031 180.476562 C 147.527344 182.503906 148.738281 184.515625 149.984375 186.511719 C 151.027344 188.183594 152.027344 189.878906 153.027344 191.578125 C 154.058594 193.324219 155.101562 195.066406 156.160156 196.800781 L 157.46875 198.957031 C 158.097656 199.988281 158.722656 201.023438 159.347656 202.058594 C 159.449219 202.226562 159.554688 202.398438 159.664062 202.578125 L 159.949219 203.050781 L 160.195312 203.460938 C 160.390625 203.820312 160.390625 203.820312 160.601562 204.449219 C 156.585938 205.679688 152.566406 206.878906 148.523438 208.023438 C 145.714844 208.820312 142.914062 209.652344 140.125 210.519531 C 138.121094 211.140625 136.109375 211.722656 134.085938 212.28125 C 132.640625 212.683594 131.199219 213.109375 129.761719 213.554688 C 127.878906 214.136719 125.984375 214.675781 124.082031 215.199219 C 122.625 215.609375 121.171875 216.035156 119.726562 216.484375 C 117.84375 217.0625 115.949219 217.605469 114.046875 218.128906 C 112.386719 218.59375 110.742188 219.085938 109.09375 219.597656 C 107.652344 220.039062 106.207031 220.449219 104.75 220.851562 C 102.832031 221.378906 100.929688 221.953125 99.027344 222.550781 C 96.9375 223.210938 94.835938 223.828125 92.722656 224.414062 C 90.832031 224.9375 88.949219 225.492188 87.066406 226.054688 C 86.628906 226.1875 86.191406 226.316406 85.75 226.445312 C 85.34375 226.566406 84.941406 226.691406 84.539062 226.820312 C 83.09375 227.257812 81.78125 227.335938 80.277344 227.296875 L 79.613281 227.289062 C 79.082031 227.28125 78.546875 227.273438 78.015625 227.257812 L 77.808594 226.839844 C 77.972656 226.277344 78.148438 225.730469 78.347656 225.175781 L 78.53125 224.65625 C 78.730469 224.082031 78.9375 223.503906 79.140625 222.929688 L 79.570312 221.707031 C 80.808594 218.199219 82.070312 214.699219 83.339844 211.203125 C 84.386719 208.316406 85.425781 205.429688 86.457031 202.539062 L 86.957031 201.144531 L 88.46875 196.917969 C 89.222656 194.808594 89.976562 192.703125 90.734375 190.59375 C 91.890625 187.363281 93.050781 184.132812 94.21875 180.910156 C 96.996094 173.238281 99.738281 165.558594 102.476562 157.875 L 104.386719 152.523438 L 105.46875 149.492188 L 106.269531 147.246094 L 106.53125 146.507812 C 107.394531 144.085938 108.257812 141.667969 109.121094 139.246094 C 109.96875 136.875 110.816406 134.503906 111.671875 132.132812 C 111.929688 131.410156 112.191406 130.691406 112.449219 129.96875 L 112.800781 129 L 112.960938 128.558594 C 113.191406 127.914062 113.414062 127.277344 113.558594 126.605469 " fill-opacity="1" fill-rule="nonzero"/><path fill="#23ab75" d="M 160.390625 212.820312 L 161.4375 213.03125 C 161.640625 214.953125 161.726562 216.882812 161.804688 218.816406 L 161.847656 219.863281 C 161.878906 220.617188 161.910156 221.371094 161.941406 222.125 C 161.988281 223.339844 162.039062 224.554688 162.089844 225.769531 C 162.164062 227.515625 162.234375 229.261719 162.304688 231.007812 C 162.472656 235.117188 162.644531 239.230469 162.8125 243.34375 L 162.929688 246.113281 C 163.195312 252.570312 163.46875 259.027344 163.746094 265.484375 C 163.867188 268.347656 163.992188 271.210938 164.117188 274.070312 C 164.648438 286.242188 164.648438 286.242188 164.78125 291.503906 L 164.15625 291.710938 C 163.722656 291.476562 163.304688 291.21875 162.902344 290.9375 L 162.515625 290.675781 C 162.082031 290.386719 161.65625 290.09375 161.226562 289.800781 C 160.925781 289.597656 160.621094 289.390625 160.316406 289.183594 C 159.652344 288.738281 158.988281 288.289062 158.328125 287.835938 C 156.621094 286.675781 154.914062 285.519531 153.203125 284.367188 L 152.027344 283.570312 C 149.796875 282.0625 147.5625 280.5625 145.28125 279.132812 C 143.722656 278.152344 142.191406 277.132812 140.660156 276.109375 C 138.472656 274.640625 136.277344 273.1875 134.074219 271.742188 L 133.65625 271.464844 L 131.550781 270.085938 C 130.277344 269.25 129.007812 268.417969 127.738281 267.582031 C 121.265625 263.328125 114.785156 259.082031 108.296875 254.847656 L 105.300781 252.894531 L 104.699219 252.503906 C 103.691406 251.84375 102.683594 251.183594 101.671875 250.523438 C 99.613281 249.179688 97.550781 247.835938 95.484375 246.492188 C 93.953125 245.496094 92.425781 244.5 90.894531 243.5 C 89.910156 242.855469 88.925781 242.214844 87.9375 241.574219 C 83.414062 238.644531 83.414062 238.644531 82.824219 238.140625 L 82.824219 237.722656 L 83.367188 237.445312 C 84.035156 237.101562 84.703125 236.757812 85.371094 236.414062 C 85.65625 236.265625 85.945312 236.121094 86.234375 235.972656 C 86.648438 235.757812 87.066406 235.546875 87.480469 235.332031 L 87.871094 235.132812 C 88.53125 234.789062 89.164062 234.453125 89.722656 233.957031 L 89.933594 233.328125 L 90.980469 233.328125 L 90.980469 232.910156 C 91.851562 232.578125 92.554688 232.445312 93.488281 232.492188 L 93.488281 232.074219 L 94.015625 231.957031 L 94.730469 231.796875 L 95.425781 231.644531 C 96.003906 231.496094 96.550781 231.332031 97.113281 231.140625 C 98.253906 230.753906 99.410156 230.460938 100.574219 230.167969 C 101.394531 229.957031 102.199219 229.730469 103 229.457031 C 104.128906 229.070312 105.273438 228.785156 106.429688 228.492188 C 107.25 228.28125 108.054688 228.054688 108.855469 227.78125 C 109.980469 227.398438 111.128906 227.109375 112.28125 226.820312 C 113.101562 226.609375 113.90625 226.382812 114.710938 226.109375 C 115.835938 225.722656 116.984375 225.4375 118.136719 225.144531 C 118.957031 224.933594 119.761719 224.707031 120.5625 224.433594 C 121.691406 224.050781 122.835938 223.761719 123.992188 223.472656 C 124.808594 223.261719 125.617188 223.035156 126.417969 222.761719 C 127.542969 222.375 128.691406 222.089844 129.84375 221.796875 C 130.664062 221.585938 131.46875 221.359375 132.269531 221.085938 C 133.398438 220.703125 134.546875 220.414062 135.699219 220.121094 C 136.515625 219.914062 137.320312 219.6875 138.117188 219.414062 C 139.296875 219.011719 140.496094 218.714844 141.699219 218.410156 L 142.214844 218.277344 L 142.679688 218.160156 C 143.042969 218.082031 143.042969 218.082031 143.246094 217.84375 C 143.664062 217.835938 144.085938 217.832031 144.503906 217.84375 L 144.503906 217.425781 L 145.03125 217.308594 L 145.742188 217.148438 L 146.441406 216.996094 C 147.019531 216.847656 147.566406 216.683594 148.128906 216.492188 C 149.265625 216.105469 150.425781 215.8125 151.589844 215.519531 C 152.589844 215.261719 153.566406 214.964844 154.542969 214.617188 C 155.105469 214.449219 155.628906 214.449219 156.210938 214.496094 L 156.210938 214.074219 L 156.796875 213.945312 L 157.554688 213.773438 L 158.3125 213.605469 L 158.929688 213.449219 L 159.136719 213.238281 C 159.554688 213.230469 159.972656 213.230469 160.390625 213.238281 Z M 160.390625 212.820312 " fill-opacity="1" fill-rule="nonzero"/></svg>