<svg xmlns="http://www.w3.org/2000/svg" xmlns:xlink="http://www.w3.org/1999/xlink" width="500" zoomAndPan="magnify" viewBox="0 0 375 374.999991" height="500" preserveAspectRatio="xMidYMid meet" version="1.0"><defs><clipPath id="b6567b5085"><path d="M 0 0 L 375 0 L 375 373.917969 L 0 373.917969 Z M 0 0 " clip-rule="nonzero"/></clipPath><clipPath id="3d0fb0e035"><path d="M 187.5 -1.082031 C 83.945312 -1.082031 0 82.863281 0 186.417969 C 0 289.972656 83.945312 373.917969 187.5 373.917969 C 291.054688 373.917969 375 289.972656 375 186.417969 C 375 82.863281 291.054688 -1.082031 187.5 -1.082031 Z M 187.5 -1.082031 " clip-rule="nonzero"/></clipPath><clipPath id="7813337776"><path d="M 0 0 L 375 0 L 375 373.917969 L 0 373.917969 Z M 0 0 " clip-rule="nonzero"/></clipPath><clipPath id="e19f7d6dca"><path d="M 187.5 -1.082031 C 83.945312 -1.082031 0 82.863281 0 186.417969 C 0 289.972656 83.945312 373.917969 187.5 373.917969 C 291.054688 373.917969 375 289.972656 375 186.417969 C 375 82.863281 291.054688 -1.082031 187.5 -1.082031 Z M 187.5 -1.082031 " clip-rule="nonzero"/></clipPath><clipPath id="4fff5ea82a"><rect x="0" width="375" y="0" height="374"/></clipPath><clipPath id="fa7033895b"><path d="M 38 39 L 353.25 39 L 353.25 354.75 L 38 354.75 Z M 38 39 " clip-rule="nonzero"/></clipPath><clipPath id="501eeb32d4"><path d="M 122 39 L 353.25 39 L 353.25 354.75 L 122 354.75 Z M 122 39 " clip-rule="nonzero"/></clipPath></defs><g clip-path="url(#b6567b5085)"><g clip-path="url(#3d0fb0e035)"><g transform="matrix(1, 0, 0, 1, 0, 0)"><g clip-path="url(#4fff5ea82a)"><g clip-path="url(#7813337776)"><g clip-path="url(#e19f7d6dca)"><path fill="#ffffff" d="M 0 -1.082031 L 375 -1.082031 L 375 373.917969 L 0 373.917969 Z M 0 -1.082031 " fill-opacity="1" fill-rule="nonzero"/></g></g></g></g></g></g><path fill="#000000" d="M 194.914062 60.703125 C 195.371094 60.96875 195.820312 61.238281 196.269531 61.515625 C 196.671875 61.683594 197.078125 61.84375 197.488281 61.992188 C 199.242188 62.679688 200.863281 63.585938 202.507812 64.5 L 203.75 65.1875 C 205.601562 66.214844 207.449219 67.246094 209.285156 68.296875 L 209.285156 68.839844 L 209.792969 68.960938 C 210.371094 69.113281 210.371094 69.113281 210.914062 69.382812 L 210.914062 69.925781 L 211.382812 70.019531 C 212.054688 70.214844 212.558594 70.488281 213.148438 70.859375 L 213.730469 71.214844 L 214.167969 71.554688 L 214.167969 72.097656 L 214.792969 72.332031 C 215.523438 72.640625 215.523438 72.640625 216.335938 73.179688 L 216.335938 73.722656 L 216.929688 73.925781 C 217.765625 74.300781 218.375 74.734375 219.046875 75.351562 L 219.046875 75.894531 L 219.640625 76.097656 C 220.480469 76.46875 221.085938 76.902344 221.761719 77.519531 L 221.761719 78.0625 L 222.300781 78.0625 L 222.300781 78.605469 L 222.84375 78.605469 L 222.84375 79.148438 L 223.324219 79.367188 C 225.25 80.398438 226.808594 82.257812 228.335938 83.792969 L 228.90625 84.359375 C 230.773438 86.234375 230.773438 86.234375 231.523438 87.285156 L 231.523438 87.828125 L 232.066406 87.828125 C 232.59375 88.402344 232.59375 88.402344 233.183594 89.152344 L 233.777344 89.894531 L 234.234375 90.542969 L 234.234375 91.085938 L 234.777344 91.085938 C 235.210938 91.589844 235.621094 92.109375 236.015625 92.644531 L 236.351562 93.085938 C 236.917969 93.84375 237.359375 94.476562 237.488281 95.425781 L 238.03125 95.425781 C 238.46875 96.015625 238.886719 96.621094 239.285156 97.238281 L 239.648438 97.792969 C 240.621094 99.28125 241.558594 100.792969 242.480469 102.3125 C 242.796875 102.824219 243.121094 103.332031 243.453125 103.832031 L 243.453125 104.648438 L 243.996094 104.648438 C 248.335938 112.757812 248.335938 112.757812 248.335938 114.414062 L 248.878906 114.414062 L 249.136719 115.148438 C 249.921875 117.371094 249.921875 117.371094 250.792969 119.566406 C 251.363281 120.960938 251.75 122.390625 252.148438 123.839844 C 252.347656 124.519531 252.558594 125.152344 252.828125 125.804688 C 253.355469 127.125 253.582031 128.519531 253.855469 129.90625 L 254.03125 130.6875 L 254.300781 130.960938 C 254.445312 131.675781 254.574219 132.390625 254.691406 133.113281 C 254.765625 133.539062 254.839844 133.96875 254.910156 134.394531 L 255.019531 135.019531 C 255.128906 135.640625 255.253906 136.257812 255.386719 136.875 C 258.421875 152.03125 257.355469 168.261719 252.945312 183.039062 L 252.746094 183.726562 C 251.097656 189.257812 249.035156 194.699219 246.4375 199.859375 L 246.109375 200.511719 C 244.179688 204.335938 242.042969 207.964844 239.660156 211.523438 L 239.097656 212.363281 L 236.945312 215.59375 L 236.402344 215.59375 L 236.199219 216.183594 C 235.828125 217.023438 235.394531 217.628906 234.777344 218.304688 L 234.234375 218.304688 L 234.066406 218.863281 C 233.574219 219.910156 232.90625 220.765625 232.066406 221.558594 L 231.523438 221.558594 L 231.304688 222.039062 C 230.1875 224.132812 228.117188 225.820312 226.457031 227.476562 L 225.765625 228.171875 L 225.097656 228.839844 L 224.496094 229.4375 C 223.964844 229.933594 223.449219 230.378906 222.84375 230.78125 L 222.300781 230.78125 L 222.300781 231.324219 L 221.761719 231.324219 L 221.761719 231.867188 C 221.1875 232.394531 221.1875 232.394531 220.4375 232.984375 L 219.695312 233.582031 L 219.046875 234.039062 L 218.507812 234.039062 L 218.507812 234.578125 C 218 235.011719 217.480469 235.425781 216.945312 235.816406 L 216.503906 236.15625 C 215.746094 236.71875 215.113281 237.160156 214.167969 237.292969 L 214.167969 237.835938 C 213.558594 238.285156 212.9375 238.714844 212.304688 239.125 L 211.738281 239.492188 C 210.511719 240.292969 209.273438 241.070312 208.011719 241.808594 C 207.597656 242.050781 207.1875 242.296875 206.78125 242.550781 C 205.34375 243.433594 203.875 244.246094 202.386719 245.039062 L 201.828125 245.339844 C 191.640625 250.71875 180.289062 254.214844 168.878906 255.738281 L 167.882812 255.875 C 164.027344 256.371094 160.164062 256.375 156.28125 256.367188 C 155.519531 256.363281 154.757812 256.367188 153.996094 256.371094 C 149.464844 256.402344 145.027344 256.261719 140.539062 255.570312 C 139.65625 255.433594 138.769531 255.3125 137.886719 255.195312 C 131.652344 254.300781 125.71875 252.378906 119.796875 250.3125 L 118.90625 250.003906 C 117.394531 249.480469 115.882812 248.949219 114.371094 248.414062 L 114.371094 247.871094 L 113.847656 247.808594 C 112.671875 247.515625 111.644531 246.992188 110.558594 246.464844 L 109.867188 246.132812 C 108.105469 245.285156 106.351562 244.417969 104.609375 243.53125 L 104.609375 242.988281 L 103.863281 242.75 C 103.167969 242.511719 102.542969 242.253906 101.898438 241.902344 L 101.898438 241.363281 L 101.253906 241.207031 C 100.078125 240.742188 99.164062 240.085938 98.148438 239.34375 C 97.585938 238.914062 97.585938 238.914062 97.015625 238.648438 L 97.015625 238.105469 L 95.390625 237.5625 L 95.390625 237.019531 L 94.914062 236.785156 L 93.21875 235.9375 L 93.21875 235.394531 L 92.777344 235.191406 C 91.976562 234.769531 91.242188 234.300781 90.507812 233.765625 L 90.507812 233.222656 L 90.066406 233.039062 C 89.496094 232.722656 89.070312 232.402344 88.574219 231.984375 C 87.871094 231.335938 87.871094 231.335938 87.253906 231.054688 L 87.253906 230.511719 L 86.710938 230.511719 L 86.710938 229.96875 L 86.167969 229.96875 L 86.167969 229.425781 L 85.625 229.425781 L 85.625 228.882812 L 85.148438 228.671875 C 84.480469 228.308594 84.027344 227.898438 83.488281 227.359375 L 82.902344 226.777344 L 82.304688 226.171875 L 81.691406 225.566406 L 81.113281 224.984375 L 80.582031 224.453125 L 80.203125 224 L 80.203125 223.457031 L 79.660156 223.457031 L 79.660156 222.914062 L 79.117188 222.914062 L 79.117188 222.375 L 78.574219 222.375 C 77.945312 221.507812 77.398438 220.632812 76.949219 219.660156 L 76.40625 219.660156 L 76.40625 219.117188 L 75.863281 219.117188 C 75.234375 218.253906 74.683594 217.378906 74.238281 216.40625 L 73.695312 216.40625 C 73.210938 215.691406 72.882812 215.058594 72.609375 214.234375 L 72.066406 214.234375 L 71.523438 212.609375 L 70.984375 212.609375 L 70.441406 210.980469 L 69.898438 210.980469 L 69.628906 210.492188 C 69.117188 209.566406 68.605469 208.644531 68.050781 207.742188 C 67.726562 207.183594 67.726562 207.183594 67.726562 206.640625 L 67.1875 206.640625 L 66.75 205.746094 L 66.167969 204.570312 L 65.882812 203.984375 C 65.433594 203.078125 64.980469 202.25 64.402344 201.414062 L 63.933594 200.671875 L 63.933594 199.585938 L 63.390625 199.585938 L 63.390625 198.503906 L 62.847656 198.503906 C 62.625 197.945312 62.40625 197.382812 62.1875 196.824219 L 61.8125 195.878906 C 61.542969 195.121094 61.351562 194.414062 61.21875 193.621094 L 60.675781 193.621094 L 60.527344 193.082031 C 60.230469 192.046875 59.949219 191.074219 59.457031 190.109375 C 58.964844 189.105469 58.71875 188.101562 58.445312 187.023438 C 58.273438 186.417969 58.050781 185.828125 57.777344 185.261719 C 57.40625 184.355469 57.351562 183.738281 57.421875 182.769531 L 56.882812 182.769531 L 56.761719 181.835938 L 56.609375 180.871094 L 56.339844 180.597656 L 56.066406 178.699219 L 55.796875 178.429688 C 55.703125 178.066406 55.625 177.699219 55.550781 177.332031 L 55.414062 176.640625 L 55.269531 175.902344 L 55.125 175.152344 C 54.773438 173.355469 54.433594 171.558594 54.167969 169.75 L 54.027344 168.789062 C 52.707031 159.183594 52.746094 148.6875 54.167969 139.097656 L 54.296875 138.222656 C 54.539062 136.648438 54.875 135.121094 55.277344 133.585938 C 55.480469 132.769531 55.667969 131.953125 55.851562 131.132812 L 56.027344 130.335938 C 56.140625 129.8125 56.257812 129.289062 56.367188 128.765625 C 56.65625 127.46875 56.992188 126.246094 57.480469 125.011719 C 57.820312 124.117188 58.089844 123.203125 58.371094 122.289062 C 59.019531 120.191406 59.664062 118.144531 60.632812 116.167969 C 60.992188 115.40625 61.273438 114.628906 61.558594 113.835938 C 62.347656 111.730469 63.425781 109.785156 64.511719 107.820312 C 64.78125 107.3125 64.78125 107.3125 65.015625 106.546875 L 65.558594 106.546875 L 65.761719 105.867188 C 66.152344 104.777344 66.648438 103.773438 67.1875 102.75 L 67.726562 102.75 L 67.964844 102.003906 C 68.207031 101.304688 68.464844 100.683594 68.8125 100.035156 L 69.355469 100.035156 L 69.898438 98.410156 L 70.441406 98.410156 L 70.984375 96.78125 L 71.523438 96.78125 L 72.609375 94.609375 L 73.152344 94.609375 L 73.390625 94.136719 L 74.238281 92.441406 L 74.777344 92.441406 L 74.984375 92 C 75.40625 91.199219 75.875 90.460938 76.40625 89.726562 L 76.949219 89.726562 L 77.167969 89.238281 C 77.488281 88.644531 77.835938 88.300781 78.304688 87.828125 L 78.574219 87.015625 L 79.117188 87.015625 L 79.117188 86.472656 L 79.660156 86.472656 L 79.660156 85.929688 L 80.203125 85.929688 L 80.203125 85.386719 L 80.746094 85.386719 L 80.746094 84.84375 L 81.289062 84.84375 L 81.289062 84.304688 L 81.828125 84.304688 L 82.035156 83.832031 C 82.425781 83.121094 82.882812 82.636719 83.457031 82.066406 L 84.035156 81.484375 L 84.542969 81.046875 L 85.085938 81.046875 L 85.085938 80.503906 L 85.625 80.503906 L 85.625 79.960938 L 86.167969 79.960938 L 86.167969 79.421875 L 86.710938 79.421875 L 86.710938 78.878906 C 87.214844 78.417969 87.214844 78.417969 87.878906 77.910156 L 88.539062 77.402344 C 89.152344 76.980469 89.152344 76.980469 89.964844 76.707031 L 89.964844 76.164062 L 90.507812 76.164062 L 90.507812 75.621094 C 91.371094 74.992188 92.246094 74.445312 93.21875 73.996094 L 93.21875 73.453125 C 93.933594 72.96875 94.566406 72.640625 95.390625 72.367188 L 95.390625 71.824219 L 97.015625 71.28125 L 97.015625 70.738281 L 98.644531 70.199219 L 98.644531 69.65625 L 100.269531 69.113281 L 100.269531 68.570312 L 101.898438 68.027344 L 101.898438 67.484375 L 102.789062 67.046875 L 103.964844 66.46875 L 104.550781 66.179688 C 105.417969 65.75 106.230469 65.320312 107.03125 64.777344 C 108.109375 64.070312 109.238281 63.546875 110.40625 63.007812 L 111.734375 62.390625 L 112.390625 62.085938 C 112.972656 61.808594 113.550781 61.519531 114.128906 61.222656 C 115.183594 60.691406 116.261719 60.273438 117.371094 59.871094 C 118.410156 59.496094 119.433594 59.117188 120.445312 58.667969 C 121.617188 58.179688 122.800781 57.820312 124.015625 57.464844 L 124.742188 57.25 C 125.222656 57.109375 125.703125 56.96875 126.183594 56.828125 C 126.753906 56.660156 127.324219 56.492188 127.890625 56.316406 C 130.234375 55.617188 132.578125 55.160156 134.980469 54.734375 C 135.433594 54.648438 135.886719 54.554688 136.335938 54.464844 L 136.988281 54.335938 C 137.5 54.234375 138.007812 54.117188 138.519531 54 C 156.582031 50.0625 178.191406 53.292969 194.914062 60.703125 M 186.507812 108.171875 L 186.507812 108.714844 L 184.878906 109.257812 L 184.878906 109.800781 L 184.410156 110.023438 C 183.773438 110.355469 183.21875 110.730469 182.640625 111.15625 L 182.0625 111.582031 L 181.625 111.972656 L 181.625 112.511719 L 181.082031 112.511719 C 180.640625 113.015625 180.214844 113.535156 179.8125 114.074219 L 179.445312 114.558594 C 177.164062 117.621094 175.171875 121.164062 174.574219 124.992188 C 173.9375 130.664062 173.9375 130.664062 174.949219 136.179688 L 175.167969 136.679688 C 175.425781 137.285156 175.589844 137.898438 175.761719 138.539062 C 176.175781 139.941406 176.789062 141.113281 177.558594 142.351562 L 178.003906 143.105469 C 179.046875 144.777344 180.199219 146.179688 181.589844 147.574219 L 182.0625 148.046875 C 182.445312 148.421875 182.847656 148.777344 183.253906 149.132812 L 183.792969 149.132812 L 183.792969 149.675781 C 187.257812 152.261719 191.195312 153.785156 195.4375 154.457031 C 198.597656 154.761719 201.851562 154.742188 204.945312 154.015625 L 205.867188 153.804688 C 209.015625 152.996094 212.195312 151.503906 214.710938 149.40625 L 214.710938 148.863281 L 215.269531 148.710938 C 216.390625 148.160156 217.167969 147.375 217.964844 146.421875 C 218.355469 145.679688 218.355469 145.679688 218.507812 145.066406 L 219.046875 145.066406 L 219.589844 144.25 L 219.589844 143.4375 L 220.132812 143.4375 C 222.835938 138.269531 224.152344 133.632812 223.957031 127.761719 C 223.78125 124.023438 222.617188 120.582031 220.675781 117.394531 C 220.464844 117.03125 220.257812 116.664062 220.046875 116.292969 L 219.589844 115.496094 L 219.046875 115.496094 C 218.976562 115.292969 218.90625 115.09375 218.835938 114.882812 C 218.5 114.125 218.171875 113.703125 217.59375 113.117188 L 217.050781 112.574219 C 216.867188 112.394531 216.679688 112.210938 216.488281 112.023438 L 215.929688 111.453125 L 215.386719 110.914062 L 214.894531 110.425781 L 214.4375 110.074219 L 213.625 110.074219 L 213.625 109.53125 C 209.007812 106.820312 204.695312 105.070312 199.265625 104.890625 C 194.6875 105.039062 190.550781 105.949219 186.507812 108.171875 " fill-opacity="1" fill-rule="nonzero"/><g clip-path="url(#fa7033895b)"><path fill="#3bc1f8" d="M 355.996094 39.003906 L 359.25 39.003906 L 359.25 354.746094 L 355.996094 354.746094 C 355.996094 337.109375 355.992188 319.457031 355.980469 301.792969 L 355.980469 301.226562 C 355.980469 295.226562 355.976562 289.226562 355.976562 283.226562 C 355.972656 276.867188 355.972656 270.507812 355.96875 264.148438 C 355.96875 260.6875 355.96875 257.230469 355.96875 253.769531 C 355.949219 220.632812 355.949219 220.632812 356.554688 205.574219 L 356.628906 203.621094 C 356.6875 202.09375 356.75 200.570312 356.808594 199.046875 L 356.265625 199.046875 L 356.265625 198.503906 L 355.453125 198.503906 L 355.464844 199.023438 C 355.492188 201.097656 355.335938 203.125 355.113281 205.183594 L 355.003906 206.226562 C 354.203125 213.511719 353.019531 220.917969 350.917969 227.949219 C 350.65625 228.828125 350.433594 229.71875 350.21875 230.609375 C 349.589844 233.230469 348.777344 235.773438 347.910156 238.328125 L 347.476562 239.625 C 344.816406 247.496094 344.816406 247.496094 343.292969 250.71875 C 342.964844 251.429688 342.664062 252.148438 342.367188 252.871094 C 340.824219 256.609375 339.132812 260.28125 337.285156 263.875 L 336.742188 263.875 L 336.742188 264.960938 L 336.199219 264.960938 L 336.105469 265.414062 C 335.898438 266.15625 335.585938 266.785156 335.234375 267.46875 L 334.859375 268.203125 L 334.574219 268.757812 L 334.03125 268.757812 L 333.9375 269.210938 C 333.726562 269.953125 333.414062 270.582031 333.0625 271.269531 L 332.691406 272 L 332.402344 272.554688 L 331.859375 272.554688 L 331.785156 272.992188 C 331.527344 273.855469 331.109375 274.558594 330.65625 275.335938 L 330.148438 276.222656 L 329.691406 276.894531 L 329.148438 276.894531 L 329.03125 277.40625 C 328.878906 277.980469 328.878906 277.980469 328.605469 278.523438 L 328.0625 278.523438 L 327.84375 279.121094 C 327.523438 279.871094 327.160156 280.507812 326.707031 281.183594 L 326.285156 281.835938 L 325.894531 282.320312 L 325.351562 282.320312 L 325.273438 282.773438 C 325.027344 283.574219 324.628906 284.144531 324.148438 284.832031 L 323.640625 285.5625 L 323.183594 286.117188 L 322.640625 286.117188 L 322.402344 286.746094 C 322.097656 287.476562 322.097656 287.476562 321.554688 288.289062 L 321.011719 288.289062 L 320.808594 288.882812 C 320.4375 289.71875 320.003906 290.328125 319.386719 291 L 318.84375 291 L 318.640625 291.457031 C 318.234375 292.210938 317.75 292.839844 317.214844 293.511719 L 316.640625 294.242188 L 316.132812 294.800781 L 315.589844 294.800781 L 315.394531 295.257812 C 314.96875 296.027344 314.441406 296.597656 313.84375 297.242188 C 312.957031 298.199219 312.957031 298.199219 312.15625 299.222656 L 311.792969 299.683594 L 311.25 299.683594 L 311.25 300.222656 L 310.707031 300.222656 L 310.707031 300.765625 L 310.164062 300.765625 L 310.164062 301.308594 L 309.625 301.308594 L 309.625 301.851562 L 309.082031 301.851562 L 308.863281 302.335938 C 308.527344 302.957031 308.171875 303.375 307.675781 303.875 L 307.167969 304.382812 L 306.640625 304.902344 L 306.113281 305.4375 C 305.863281 305.6875 305.863281 305.6875 305.605469 305.941406 L 305.144531 306.402344 L 304.742188 306.734375 L 304.199219 306.734375 L 304.199219 307.277344 L 303.65625 307.277344 L 303.65625 307.820312 C 303.238281 308.238281 303.238281 308.238281 302.675781 308.71875 L 302.078125 309.226562 L 301.488281 309.71875 L 301 310.144531 C 300.628906 310.464844 300.246094 310.773438 299.859375 311.074219 L 299.320312 311.074219 L 299.320312 311.617188 L 298.777344 311.617188 L 298.777344 312.160156 C 298.203125 312.6875 298.203125 312.6875 297.453125 313.277344 L 296.710938 313.875 L 296.0625 314.328125 L 295.523438 314.328125 L 295.523438 314.871094 C 295.066406 315.28125 295.066406 315.28125 294.472656 315.71875 L 293.878906 316.164062 L 293.351562 316.5 L 292.808594 316.5 L 292.808594 317.042969 C 292.03125 317.617188 292.03125 317.617188 291.183594 318.128906 L 290.640625 318.128906 L 290.640625 318.671875 C 290.21875 319.046875 290.21875 319.046875 289.628906 319.476562 L 288.972656 319.957031 L 288.269531 320.46875 C 288.03125 320.640625 287.796875 320.8125 287.550781 320.988281 C 284.945312 322.875 282.277344 324.625 279.53125 326.300781 C 278.828125 326.734375 278.136719 327.1875 277.453125 327.65625 C 276.382812 328.378906 275.273438 328.996094 274.132812 329.605469 C 273.335938 330.039062 272.539062 330.484375 271.75 330.9375 C 269.582031 332.171875 267.382812 333.3125 265.144531 334.410156 C 264.617188 334.671875 264.09375 334.9375 263.570312 335.207031 C 259.488281 337.300781 255.25 339.027344 250.996094 340.742188 L 250.152344 341.085938 C 248.699219 341.667969 247.25 342.175781 245.742188 342.605469 C 245.054688 342.820312 244.402344 343.074219 243.738281 343.347656 C 233.914062 347.378906 222.503906 349.390625 211.996094 350.679688 L 211.472656 350.746094 C 208.089844 351.167969 204.710938 351.382812 201.304688 351.527344 L 200.507812 351.558594 C 196.289062 351.738281 192.085938 351.871094 187.863281 351.761719 L 187.238281 351.75 C 173.222656 351.429688 159.28125 349.570312 145.828125 345.523438 C 145.367188 345.390625 144.90625 345.253906 144.441406 345.121094 C 140.59375 343.992188 136.746094 342.835938 133.0625 341.242188 C 132.171875 340.871094 131.265625 340.550781 130.355469 340.234375 C 128.683594 339.648438 127.089844 338.957031 125.492188 338.199219 C 124.964844 337.960938 124.441406 337.726562 123.914062 337.488281 C 123.171875 337.152344 122.441406 336.8125 121.71875 336.4375 C 120.855469 336.015625 119.992188 335.699219 119.082031 335.386719 C 117.550781 334.847656 116.054688 334.257812 114.558594 333.625 C 113.074219 333 111.5625 332.460938 110.03125 331.960938 L 110.03125 331.417969 L 109.464844 331.335938 C 108.535156 331.113281 107.757812 330.75 106.898438 330.335938 C 105.527344 329.667969 105.527344 329.667969 104.066406 329.25 L 104.066406 328.707031 L 103.441406 328.589844 C 102.710938 328.433594 102.710938 328.433594 101.898438 328.164062 L 101.898438 327.621094 L 101.351562 327.546875 C 100.300781 327.292969 99.390625 326.851562 98.421875 326.382812 L 97.855469 326.113281 C 97.394531 325.894531 96.933594 325.671875 96.472656 325.453125 L 96.472656 324.910156 L 96.054688 324.832031 C 95.121094 324.558594 94.285156 324.113281 93.421875 323.671875 L 92.890625 323.402344 C 92.457031 323.179688 92.023438 322.960938 91.59375 322.738281 L 91.59375 322.195312 L 90.917969 322.011719 C 89.757812 321.574219 88.796875 320.96875 87.761719 320.296875 C 87.382812 320.054688 87.003906 319.8125 86.625 319.570312 L 86.121094 319.242188 C 85.609375 318.929688 85.082031 318.660156 84.542969 318.398438 L 84.542969 317.855469 L 82.914062 317.3125 L 82.914062 316.769531 L 81.289062 316.230469 L 81.289062 315.6875 L 80.847656 315.484375 C 80.050781 315.0625 79.324219 314.558594 78.574219 314.058594 C 78.21875 313.867188 77.855469 313.6875 77.492188 313.515625 L 77.492188 312.972656 L 76.863281 312.734375 C 76.136719 312.429688 76.136719 312.429688 75.320312 311.886719 L 75.320312 311.347656 L 74.847656 311.109375 L 73.152344 310.261719 L 73.152344 309.71875 L 72.660156 309.5 C 72.070312 309.179688 71.722656 308.832031 71.253906 308.363281 L 70.441406 308.089844 L 70.441406 307.546875 L 69.898438 307.546875 L 69.898438 307.007812 L 69.457031 306.800781 C 68.65625 306.378906 67.917969 305.910156 67.1875 305.378906 L 67.1875 304.835938 L 66.644531 304.835938 L 66.644531 304.292969 L 66.171875 304.082031 C 65.5 303.71875 65.003906 303.296875 64.441406 302.785156 C 63.699219 302.101562 63.699219 302.101562 62.847656 301.582031 L 62.847656 301.039062 L 62.304688 301.039062 L 62.304688 300.496094 L 61.761719 300.496094 L 61.761719 299.953125 L 61.21875 299.953125 L 61.21875 299.410156 L 60.675781 299.410156 L 60.675781 298.867188 L 60.136719 298.867188 L 60.136719 298.324219 L 59.59375 298.324219 L 59.59375 297.78125 L 59.050781 297.78125 L 59.050781 297.242188 L 58.507812 297.242188 L 58.507812 296.699219 L 57.964844 296.699219 L 57.964844 296.15625 L 57.421875 296.15625 L 57.421875 295.613281 L 56.882812 295.613281 L 56.882812 295.070312 L 56.339844 295.070312 L 56.339844 294.527344 L 55.796875 294.527344 L 55.796875 293.984375 L 55.253906 293.984375 L 55.253906 293.441406 L 54.710938 293.441406 L 54.710938 292.902344 L 54.167969 292.902344 L 54.167969 292.359375 L 53.625 292.359375 L 53.625 291.816406 L 53.085938 291.816406 L 53.085938 291.273438 L 52.542969 291.273438 L 52.542969 290.730469 L 52 290.730469 C 51.632812 290.191406 51.269531 289.648438 50.914062 289.101562 L 49.832031 288.019531 L 49.832031 287.476562 L 49.289062 287.476562 L 49.289062 286.933594 L 48.746094 286.933594 C 48.117188 286.066406 47.566406 285.191406 47.117188 284.21875 L 46.574219 284.21875 L 46.574219 283.675781 L 46.035156 283.675781 C 45.550781 282.960938 45.222656 282.328125 44.949219 281.507812 L 44.40625 281.507812 L 44.40625 280.964844 L 43.863281 280.964844 C 43.378906 280.25 43.054688 279.617188 42.78125 278.796875 L 42.238281 278.796875 C 41.753906 278.078125 41.425781 277.445312 41.152344 276.625 L 40.609375 276.625 C 40.328125 276.179688 40.054688 275.726562 39.796875 275.269531 L 39.339844 274.675781 L 38.984375 274.183594 L 38.984375 273.640625 C 39.457031 273.828125 39.457031 273.828125 40.066406 274.183594 L 40.542969 274.792969 C 41.234375 275.640625 41.988281 276.1875 42.886719 276.804688 L 43.320312 277.167969 L 43.320312 277.710938 L 43.933594 277.921875 C 44.707031 278.265625 45.140625 278.617188 45.746094 279.203125 C 46.976562 280.34375 48.300781 281.292969 49.6875 282.234375 C 50.105469 282.519531 50.511719 282.828125 50.914062 283.136719 L 50.914062 283.675781 L 51.5 283.886719 C 52.335938 284.25 53.027344 284.6875 53.777344 285.203125 L 54.640625 285.789062 L 55.523438 286.390625 C 56.09375 286.769531 56.667969 287.148438 57.238281 287.527344 C 58.113281 288.109375 58.980469 288.699219 59.832031 289.324219 C 60.628906 289.882812 61.421875 290.320312 62.304688 290.730469 L 62.304688 291.273438 L 62.769531 291.363281 C 63.476562 291.570312 63.988281 291.878906 64.609375 292.273438 C 65.894531 293.066406 67.21875 293.742188 68.578125 294.394531 C 69.355469 294.800781 69.355469 294.800781 70.113281 295.316406 C 71.183594 296.015625 72.296875 296.539062 73.457031 297.070312 C 73.921875 297.289062 74.382812 297.503906 74.847656 297.722656 L 75.523438 298.035156 C 76.28125 298.394531 77.03125 298.773438 77.777344 299.15625 C 81.65625 301.113281 85.679688 302.738281 89.75 304.242188 C 90.597656 304.554688 91.425781 304.882812 92.253906 305.246094 C 93.355469 305.707031 94.464844 306.046875 95.609375 306.378906 C 97.140625 306.828125 98.667969 307.28125 100.183594 307.78125 C 107.511719 310.167969 115.15625 311.839844 122.777344 312.972656 L 123.71875 313.117188 C 127.320312 313.65625 130.902344 314.164062 134.546875 314.28125 C 135.523438 314.328125 135.523438 314.328125 136.394531 314.464844 C 137.496094 314.609375 138.570312 314.640625 139.679688 314.636719 L 140.335938 314.636719 C 141.050781 314.636719 141.761719 314.636719 142.472656 314.636719 L 143.96875 314.636719 C 145.011719 314.636719 146.050781 314.636719 147.09375 314.636719 C 148.425781 314.636719 149.757812 314.636719 151.089844 314.636719 C 152.117188 314.636719 153.148438 314.636719 154.175781 314.636719 C 154.664062 314.636719 155.15625 314.636719 155.648438 314.636719 C 156.335938 314.636719 157.023438 314.636719 157.710938 314.636719 L 158.320312 314.636719 C 159.429688 314.632812 160.46875 314.535156 161.558594 314.328125 C 162.222656 314.285156 162.890625 314.242188 163.558594 314.210938 C 165.148438 314.121094 166.722656 313.984375 168.304688 313.789062 L 168.867188 313.71875 C 169.851562 313.59375 169.851562 313.59375 170.777344 313.246094 C 171.613281 313.160156 172.449219 313.105469 173.285156 313.050781 C 174.019531 313.019531 174.019531 313.019531 174.574219 312.703125 C 175.269531 312.617188 175.960938 312.5625 176.660156 312.507812 C 177.292969 312.464844 177.292969 312.464844 177.828125 312.160156 C 178.21875 312.085938 178.609375 312.023438 179 311.964844 L 179.695312 311.859375 L 181.152344 311.644531 L 181.847656 311.542969 L 182.484375 311.445312 L 182.980469 311.347656 L 183.253906 311.074219 C 183.894531 310.945312 184.539062 310.828125 185.183594 310.71875 C 187.980469 310.21875 190.710938 309.523438 193.394531 308.589844 C 194.179688 308.335938 194.976562 308.121094 195.773438 307.90625 C 197.699219 307.386719 199.59375 306.824219 201.472656 306.15625 L 202.03125 305.960938 C 203.203125 305.535156 204.34375 305.058594 205.488281 304.566406 C 206.175781 304.300781 206.867188 304.039062 207.558594 303.785156 L 208.699219 303.359375 C 209.25 303.152344 209.800781 302.949219 210.347656 302.742188 C 210.824219 302.566406 211.300781 302.386719 211.777344 302.207031 L 212.601562 301.898438 C 213.359375 301.597656 213.359375 301.597656 214.03125 301.171875 C 214.761719 300.734375 215.46875 300.472656 216.269531 300.191406 C 218.363281 299.402344 220.28125 298.355469 222.246094 297.289062 C 223.246094 296.753906 224.253906 296.242188 225.269531 295.730469 L 225.828125 295.445312 C 227.121094 294.800781 227.121094 294.800781 227.726562 294.800781 L 227.726562 294.257812 L 228.8125 294.257812 L 228.8125 293.714844 C 229.339844 293.441406 229.871094 293.171875 230.402344 292.902344 L 231.300781 292.441406 C 232.066406 292.085938 232.066406 292.085938 232.609375 292.085938 L 232.609375 291.542969 C 232.957031 291.363281 233.308594 291.179688 233.660156 291 L 234.25 290.695312 C 234.777344 290.460938 234.777344 290.460938 235.320312 290.460938 L 235.320312 289.917969 L 236.945312 289.375 L 236.945312 288.832031 C 237.335938 288.609375 237.726562 288.390625 238.117188 288.171875 L 238.773438 287.796875 C 239.386719 287.476562 239.386719 287.476562 240.199219 287.203125 L 240.199219 286.660156 L 241.828125 286.117188 L 241.828125 285.578125 C 242.273438 285.296875 242.726562 285.023438 243.183594 284.761719 C 243.679688 284.40625 244.171875 284.042969 244.660156 283.675781 L 245.082031 283.40625 L 245.625 283.40625 L 245.625 282.863281 C 246.402344 282.289062 246.402344 282.289062 247.25 281.777344 L 247.792969 281.777344 L 247.792969 281.238281 C 248.25 280.828125 248.25 280.828125 248.84375 280.386719 L 249.4375 279.945312 L 249.964844 279.609375 L 250.503906 279.609375 L 250.503906 279.066406 C 251.371094 278.4375 252.246094 277.886719 253.21875 277.4375 L 253.21875 276.894531 C 253.652344 276.507812 253.652344 276.507812 254.234375 276.082031 L 254.804688 275.660156 C 255.347656 275.296875 255.882812 275 256.472656 274.726562 L 256.472656 274.183594 L 257.015625 274.183594 L 257.015625 273.640625 L 257.554688 273.640625 L 257.554688 273.097656 C 257.917969 272.871094 258.28125 272.640625 258.644531 272.417969 C 259.636719 271.675781 260.453125 270.75 261.304688 269.855469 L 261.894531 269.300781 L 262.4375 269.300781 L 262.4375 268.757812 L 262.980469 268.757812 L 262.980469 268.214844 L 263.523438 268.214844 L 263.523438 267.671875 L 264.066406 267.671875 L 264.066406 267.132812 L 264.605469 267.132812 L 264.605469 266.589844 L 265.148438 266.589844 L 265.148438 266.046875 L 265.691406 266.046875 L 265.691406 265.503906 L 266.234375 265.503906 L 266.234375 264.960938 L 266.777344 264.960938 L 266.953125 264.511719 C 267.445312 263.660156 268.121094 263.039062 268.828125 262.367188 C 269.910156 261.375 269.910156 261.375 270.574219 260.078125 L 271.117188 260.078125 L 271.117188 259.535156 L 271.65625 259.535156 L 271.65625 258.992188 L 272.199219 258.992188 L 272.199219 258.449219 L 272.742188 258.449219 L 272.964844 257.960938 C 273.28125 257.371094 273.628906 257.023438 274.097656 256.550781 L 274.371094 255.738281 L 274.914062 255.738281 L 274.914062 255.195312 L 275.453125 255.195312 L 275.675781 254.703125 C 275.996094 254.113281 276.339844 253.765625 276.808594 253.296875 L 277.082031 252.484375 L 277.625 252.484375 L 277.859375 252.007812 L 278.707031 250.3125 L 279.25 250.3125 L 279.460938 249.855469 C 279.839844 249.136719 280.285156 248.5 280.757812 247.835938 C 281.410156 246.933594 281.410156 246.933594 281.960938 245.972656 L 282.503906 245.972656 L 283.046875 244.34375 L 283.589844 244.34375 L 283.808594 243.886719 C 284.164062 243.199219 284.5625 242.554688 284.980469 241.902344 L 285.484375 241.117188 C 286.230469 239.96875 286.996094 238.835938 287.765625 237.707031 C 288.234375 237.027344 288.234375 237.027344 288.472656 236.207031 L 289.011719 236.207031 L 289.210938 235.519531 C 289.609375 234.4375 290.148438 233.535156 290.757812 232.5625 C 291.566406 231.277344 292.246094 230.023438 292.808594 228.613281 L 293.351562 228.613281 L 293.351562 227.527344 L 293.894531 227.527344 L 293.894531 226.441406 L 294.4375 226.441406 L 294.4375 225.355469 L 294.980469 225.355469 L 295.183594 224.710938 C 295.613281 223.460938 296.109375 222.242188 296.605469 221.015625 L 297.148438 221.015625 L 297.238281 220.445312 C 297.445312 219.550781 297.785156 218.808594 298.183594 217.984375 C 298.789062 216.714844 299.335938 215.4375 299.851562 214.128906 C 300.125 213.441406 300.402344 212.753906 300.683594 212.066406 L 300.957031 211.386719 C 301.140625 210.933594 301.328125 210.484375 301.511719 210.03125 C 302.058594 208.683594 302.527344 207.308594 302.921875 205.90625 C 303.125 205.25 303.375 204.628906 303.640625 203.996094 C 304.226562 202.582031 304.625 201.128906 305.03125 199.65625 C 305.226562 198.96875 305.441406 198.316406 305.707031 197.65625 C 306.140625 196.558594 306.402344 195.4375 306.675781 194.292969 C 306.839844 193.625 307.023438 192.960938 307.214844 192.300781 C 308.117188 189.246094 308.742188 186.167969 309.320312 183.039062 C 309.539062 181.847656 309.789062 180.660156 310.0625 179.480469 C 310.515625 177.449219 310.738281 175.386719 310.980469 173.320312 L 311.074219 172.5 C 311.101562 172.257812 311.128906 172.015625 311.15625 171.765625 C 311.242188 171.167969 311.371094 170.605469 311.523438 170.019531 C 312.355469 163.222656 312.65625 156.347656 312.65625 149.507812 L 312.65625 148.835938 C 312.65625 148.203125 312.65625 147.570312 312.652344 146.9375 L 312.652344 146.375 C 312.640625 145.101562 312.5 143.882812 312.335938 142.625 C 312.300781 142.089844 312.277344 141.558594 312.257812 141.027344 L 312.226562 140.171875 L 312.171875 138.417969 L 312.140625 137.566406 L 312.117188 136.800781 C 312.070312 136.171875 311.953125 135.632812 311.792969 135.027344 C 311.722656 134.09375 311.671875 133.160156 311.628906 132.226562 C 311.589844 131.152344 311.589844 131.152344 311.25 130.144531 C 311.203125 129.621094 311.164062 129.09375 311.132812 128.570312 C 311.015625 125.472656 311.015625 125.472656 310.164062 122.550781 C 310.082031 121.917969 310.027344 121.285156 309.972656 120.648438 L 309.894531 120.109375 L 309.625 119.835938 C 309.546875 119.457031 309.484375 119.078125 309.429688 118.691406 L 309.324219 117.996094 L 309.109375 116.527344 L 309.003906 115.828125 L 308.910156 115.183594 L 308.808594 114.683594 L 308.539062 114.414062 C 308.410156 113.769531 308.292969 113.125 308.183594 112.480469 C 307.675781 109.644531 306.96875 106.875 306.019531 104.152344 C 305.792969 103.453125 305.605469 102.75 305.421875 102.035156 C 305.191406 101.164062 304.9375 100.359375 304.554688 99.542969 C 304.183594 98.640625 304.128906 98.019531 304.199219 97.050781 L 303.65625 97.050781 L 303.527344 96.503906 C 303.101562 94.824219 302.535156 93.3125 301.796875 91.746094 C 301.25 90.574219 300.945312 89.671875 300.945312 88.371094 L 300.402344 88.371094 L 300.402344 87.285156 L 299.859375 87.285156 C 299.503906 86.304688 299.320312 85.632812 299.320312 84.574219 L 298.777344 84.574219 L 298.566406 83.964844 C 297.753906 81.734375 296.742188 79.699219 295.613281 77.617188 C 294.988281 76.460938 294.394531 75.292969 293.808594 74.113281 L 293.554688 73.59375 C 293.390625 73.265625 293.226562 72.9375 293.0625 72.605469 C 292.878906 72.238281 292.695312 71.871094 292.507812 71.507812 L 292.207031 70.917969 L 291.925781 70.382812 C 291.726562 69.925781 291.726562 69.925781 291.726562 69.382812 L 291.183594 69.382812 C 291 69.035156 290.820312 68.683594 290.640625 68.332031 L 290.335938 67.742188 C 290.097656 67.214844 290.097656 67.214844 290.097656 66.671875 L 289.554688 66.671875 C 289.375 66.320312 289.191406 65.972656 289.011719 65.621094 L 288.707031 65.027344 C 288.472656 64.5 288.472656 64.5 288.472656 63.957031 L 287.929688 63.957031 L 287.679688 63.492188 C 287.117188 62.453125 286.550781 61.449219 285.84375 60.5 C 285.304688 59.742188 285.007812 59.117188 284.675781 58.261719 L 284.316406 57.902344 C 283.753906 57.339844 283.320312 56.726562 282.859375 56.074219 L 282.347656 55.351562 L 281.964844 54.734375 L 281.964844 54.191406 L 281.421875 54.191406 C 280.84375 53.414062 280.84375 53.414062 280.335938 52.566406 L 280.335938 52.023438 L 279.792969 52.023438 C 279.308594 51.308594 278.984375 50.675781 278.707031 49.851562 L 278.167969 49.851562 C 277.539062 48.988281 276.988281 48.113281 276.539062 47.140625 L 275.996094 47.140625 C 275.621094 46.609375 275.257812 46.066406 274.914062 45.511719 L 275.996094 45.511719 L 275.996094 46.054688 L 276.554688 46.257812 C 277.507812 46.664062 278.359375 47.160156 279.25 47.683594 L 279.25 48.226562 L 279.699219 48.304688 C 280.515625 48.550781 281.128906 48.960938 281.84375 49.429688 L 282.625 49.9375 C 283.128906 50.269531 283.628906 50.601562 284.132812 50.9375 L 284.132812 51.480469 L 284.585938 51.558594 C 285.386719 51.804688 285.957031 52.203125 286.640625 52.683594 L 287.375 53.191406 L 287.929688 53.652344 L 287.929688 54.191406 L 288.554688 54.429688 C 289.285156 54.734375 289.285156 54.734375 290.097656 55.277344 L 290.097656 55.820312 L 290.574219 55.90625 C 291.28125 56.121094 291.71875 56.414062 292.269531 56.90625 L 292.269531 57.449219 L 292.859375 57.652344 C 293.699219 58.023438 294.304688 58.457031 294.980469 59.074219 L 294.980469 59.617188 L 295.574219 59.820312 C 296.410156 60.195312 297.015625 60.628906 297.691406 61.246094 L 297.691406 61.789062 L 298.148438 61.980469 C 298.929688 62.414062 299.511719 62.960938 300.167969 63.566406 C 301.03125 64.402344 301.03125 64.402344 302.03125 65.042969 L 302.03125 65.585938 L 302.574219 65.585938 L 302.574219 66.128906 L 303.0625 66.351562 C 303.640625 66.660156 304.015625 66.960938 304.476562 67.421875 L 304.9375 67.875 L 305.425781 68.367188 L 305.929688 68.871094 C 306.28125 69.222656 306.632812 69.574219 306.984375 69.925781 C 307.523438 70.46875 308.0625 71.007812 308.605469 71.546875 L 310.121094 73.0625 C 310.507812 73.453125 310.878906 73.859375 311.25 74.265625 L 311.25 74.808594 L 311.792969 74.808594 L 311.792969 75.351562 L 312.335938 75.351562 L 312.335938 75.894531 L 312.878906 75.894531 C 313.277344 76.292969 313.277344 76.292969 313.742188 76.84375 C 314.585938 77.835938 315.449219 78.816406 316.324219 79.78125 L 316.675781 80.234375 L 316.675781 80.777344 L 317.214844 80.777344 C 317.742188 81.351562 317.742188 81.351562 318.335938 82.097656 L 318.929688 82.84375 L 319.386719 83.488281 L 319.386719 84.03125 L 319.929688 84.03125 C 320.347656 84.539062 320.75 85.058594 321.132812 85.589844 L 321.457031 86.035156 C 321.761719 86.449219 322.066406 86.867188 322.371094 87.285156 L 322.851562 87.902344 L 323.183594 88.371094 L 323.183594 88.914062 L 323.726562 88.914062 C 324.183594 89.46875 324.183594 89.46875 324.691406 90.203125 L 325.199219 90.925781 C 325.578125 91.550781 325.773438 92.003906 325.894531 92.710938 L 326.4375 92.710938 L 326.980469 93.527344 L 326.980469 94.339844 L 327.523438 94.339844 C 328.007812 94.984375 328.46875 95.648438 328.910156 96.324219 L 329.296875 96.890625 L 329.660156 97.4375 L 329.992188 97.941406 C 330.234375 98.410156 330.234375 98.410156 330.234375 99.222656 L 330.777344 99.222656 C 331.625 100.625 331.625 100.625 331.859375 101.121094 L 331.859375 101.933594 L 332.402344 101.933594 C 333.25 103.339844 333.25 103.339844 333.488281 103.832031 L 333.488281 104.648438 L 334.03125 104.648438 C 334.394531 105.308594 334.753906 105.96875 335.113281 106.632812 L 335.429688 107.199219 C 336.199219 108.625 336.199219 108.625 336.199219 109.53125 L 336.742188 109.53125 C 341.082031 117.640625 341.082031 117.640625 341.082031 119.296875 L 341.625 119.296875 L 341.792969 119.761719 L 342.011719 120.363281 L 342.234375 120.964844 C 342.398438 121.460938 342.398438 121.460938 342.707031 121.738281 C 342.71875 122.1875 342.71875 122.640625 342.707031 123.09375 L 343.25 123.09375 L 343.5 123.820312 C 344.144531 125.671875 344.84375 127.460938 345.671875 129.242188 C 346.238281 130.472656 346.585938 131.496094 346.503906 132.859375 L 347.046875 132.859375 C 347.710938 134.765625 348.28125 136.664062 348.75 138.625 C 348.914062 139.25 349.113281 139.855469 349.351562 140.453125 C 349.804688 141.59375 350.082031 142.761719 350.367188 143.953125 C 350.566406 144.765625 350.785156 145.566406 351.011719 146.371094 C 351.246094 147.210938 351.441406 148.03125 351.554688 148.894531 L 351.65625 149.675781 L 351.929688 149.949219 C 352.097656 150.84375 352.25 151.746094 352.394531 152.648438 C 352.589844 153.824219 352.839844 154.96875 353.140625 156.125 C 353.574219 157.828125 353.859375 159.535156 354.113281 161.273438 L 354.253906 162.207031 C 354.386719 163.09375 354.515625 163.980469 354.640625 164.867188 L 354.738281 165.542969 C 355.109375 168.207031 355.316406 170.863281 355.453125 173.546875 L 356.539062 173.546875 C 356.566406 170.683594 356.539062 167.835938 356.410156 164.976562 C 356.238281 160.8125 356.175781 156.648438 356.125 152.480469 L 356.097656 150.496094 C 355.964844 139.894531 355.960938 129.289062 355.96875 118.683594 C 355.96875 115.910156 355.96875 113.140625 355.96875 110.367188 C 355.972656 105.429688 355.972656 100.492188 355.976562 95.554688 C 355.976562 90.773438 355.980469 85.996094 355.980469 81.214844 L 355.980469 75.832031 C 355.984375 63.554688 355.988281 51.277344 355.996094 39.003906 " fill-opacity="1" fill-rule="nonzero"/></g><g clip-path="url(#501eeb32d4)"><path fill="#097bb4" d="M 355.996094 39.003906 L 359.25 39.003906 L 359.25 354.746094 L 355.996094 354.746094 C 355.996094 337.109375 355.992188 319.457031 355.980469 301.792969 L 355.980469 301.226562 C 355.980469 295.226562 355.976562 289.226562 355.976562 283.226562 C 355.972656 276.867188 355.972656 270.507812 355.96875 264.148438 C 355.96875 260.6875 355.96875 257.230469 355.96875 253.769531 C 355.949219 220.632812 355.949219 220.632812 356.554688 205.574219 L 356.628906 203.621094 C 356.6875 202.09375 356.75 200.570312 356.808594 199.046875 L 356.265625 199.046875 L 356.265625 198.503906 L 355.453125 198.503906 L 355.464844 199.023438 C 355.492188 201.097656 355.335938 203.125 355.113281 205.183594 L 355.003906 206.226562 C 354.203125 213.511719 353.019531 220.917969 350.917969 227.949219 C 350.65625 228.828125 350.433594 229.71875 350.21875 230.609375 C 349.589844 233.230469 348.777344 235.773438 347.910156 238.328125 L 347.476562 239.625 C 344.816406 247.496094 344.816406 247.496094 343.292969 250.71875 C 342.964844 251.429688 342.664062 252.148438 342.367188 252.871094 C 340.824219 256.609375 339.132812 260.28125 337.285156 263.875 L 336.742188 263.875 L 336.742188 264.960938 L 336.199219 264.960938 L 336.105469 265.414062 C 335.898438 266.15625 335.585938 266.785156 335.234375 267.46875 L 334.859375 268.203125 L 334.574219 268.757812 L 334.03125 268.757812 L 333.9375 269.210938 C 333.726562 269.953125 333.414062 270.582031 333.0625 271.269531 L 332.691406 272 L 332.402344 272.554688 L 331.859375 272.554688 L 331.785156 272.992188 C 331.527344 273.855469 331.109375 274.558594 330.65625 275.335938 L 330.148438 276.222656 L 329.691406 276.894531 L 329.148438 276.894531 L 329.03125 277.40625 C 328.878906 277.980469 328.878906 277.980469 328.605469 278.523438 L 328.0625 278.523438 L 327.84375 279.121094 C 327.523438 279.871094 327.160156 280.507812 326.707031 281.183594 L 326.285156 281.835938 L 325.894531 282.320312 L 325.351562 282.320312 L 325.273438 282.773438 C 325.027344 283.574219 324.628906 284.144531 324.148438 284.832031 L 323.640625 285.5625 L 323.183594 286.117188 L 322.640625 286.117188 L 322.402344 286.746094 C 322.097656 287.476562 322.097656 287.476562 321.554688 288.289062 L 321.011719 288.289062 L 320.808594 288.882812 C 320.4375 289.71875 320.003906 290.328125 319.386719 291 L 318.84375 291 L 318.640625 291.457031 C 318.234375 292.210938 317.75 292.839844 317.214844 293.511719 L 316.640625 294.242188 L 316.132812 294.800781 L 315.589844 294.800781 L 315.394531 295.257812 C 314.96875 296.027344 314.441406 296.597656 313.84375 297.242188 C 312.957031 298.199219 312.957031 298.199219 312.15625 299.222656 L 311.792969 299.683594 L 311.25 299.683594 L 311.25 300.222656 L 310.707031 300.222656 L 310.707031 300.765625 L 310.164062 300.765625 L 310.164062 301.308594 L 309.625 301.308594 L 309.625 301.851562 L 309.082031 301.851562 L 308.863281 302.335938 C 308.527344 302.957031 308.171875 303.375 307.675781 303.875 L 307.167969 304.382812 L 306.640625 304.902344 L 306.113281 305.4375 C 305.863281 305.6875 305.863281 305.6875 305.605469 305.941406 L 305.144531 306.402344 L 304.742188 306.734375 L 304.199219 306.734375 L 304.199219 307.277344 L 303.65625 307.277344 L 303.65625 307.820312 C 303.238281 308.238281 303.238281 308.238281 302.675781 308.71875 L 302.078125 309.226562 L 301.488281 309.71875 L 301 310.144531 C 300.628906 310.464844 300.246094 310.773438 299.859375 311.074219 L 299.320312 311.074219 L 299.320312 311.617188 L 298.777344 311.617188 L 298.777344 312.160156 C 298.203125 312.6875 298.203125 312.6875 297.453125 313.277344 L 296.710938 313.875 L 296.0625 314.328125 L 295.523438 314.328125 L 295.523438 314.871094 C 295.066406 315.28125 295.066406 315.28125 294.472656 315.71875 L 293.878906 316.164062 L 293.351562 316.5 L 292.808594 316.5 L 292.808594 317.042969 C 292.03125 317.617188 292.03125 317.617188 291.183594 318.128906 L 290.640625 318.128906 L 290.640625 318.671875 C 290.21875 319.046875 290.21875 319.046875 289.628906 319.476562 L 288.972656 319.957031 L 288.269531 320.46875 C 288.03125 320.640625 287.796875 320.8125 287.550781 320.988281 C 284.945312 322.875 282.277344 324.625 279.53125 326.300781 C 278.828125 326.734375 278.136719 327.1875 277.453125 327.65625 C 276.382812 328.378906 275.273438 328.996094 274.132812 329.605469 C 273.335938 330.039062 272.539062 330.484375 271.75 330.9375 C 269.582031 332.171875 267.382812 333.3125 265.144531 334.410156 C 264.617188 334.671875 264.09375 334.9375 263.570312 335.207031 C 259.488281 337.300781 255.25 339.027344 250.996094 340.742188 L 250.152344 341.085938 C 248.699219 341.667969 247.25 342.175781 245.742188 342.605469 C 245.054688 342.820312 244.402344 343.074219 243.738281 343.347656 C 233.914062 347.378906 222.503906 349.390625 211.996094 350.679688 L 211.472656 350.746094 C 208.089844 351.167969 204.710938 351.382812 201.304688 351.527344 L 200.507812 351.558594 C 196.289062 351.738281 192.085938 351.871094 187.863281 351.761719 L 187.238281 351.75 C 173.222656 351.429688 159.28125 349.570312 145.828125 345.523438 C 145.367188 345.390625 144.90625 345.253906 144.441406 345.121094 C 140.59375 343.992188 136.746094 342.835938 133.0625 341.242188 C 132.171875 340.871094 131.265625 340.550781 130.355469 340.234375 C 128.683594 339.648438 127.089844 338.957031 125.492188 338.199219 C 124.929688 337.945312 124.371094 337.691406 123.8125 337.4375 L 122.507812 336.84375 L 122.507812 336.574219 C 124.609375 336.699219 126.515625 337.277344 128.515625 337.898438 C 136.402344 340.34375 144.433594 341.964844 152.609375 343.082031 L 153.515625 343.210938 C 155.46875 343.472656 157.425781 343.703125 159.386719 343.898438 L 160.21875 343.984375 C 176.03125 345.542969 192.101562 344.207031 207.660156 341.183594 L 208.472656 341.027344 C 219.628906 338.8125 230.59375 335.007812 240.984375 330.433594 C 241.722656 330.109375 242.46875 329.785156 243.210938 329.46875 C 245.941406 328.292969 248.566406 326.960938 251.179688 325.546875 C 251.878906 325.171875 252.582031 324.796875 253.285156 324.425781 C 261.167969 320.226562 268.40625 315.179688 275.453125 309.71875 L 276.011719 309.289062 C 279.53125 306.578125 282.871094 303.6875 286.113281 300.65625 C 286.59375 300.203125 287.078125 299.757812 287.5625 299.308594 C 291.894531 295.320312 291.894531 295.320312 295.878906 290.992188 C 296.441406 290.335938 297.035156 289.703125 297.625 289.070312 C 298.789062 287.792969 299.863281 286.46875 300.917969 285.101562 C 301.707031 284.089844 302.515625 283.09375 303.351562 282.117188 C 306.277344 278.613281 308.785156 274.800781 311.320312 271.011719 L 311.699219 270.441406 C 313.953125 267.082031 316.082031 263.660156 318.03125 260.113281 L 318.371094 259.492188 C 318.601562 259.070312 318.832031 258.652344 319.058594 258.230469 C 319.359375 257.6875 319.664062 257.140625 319.964844 256.597656 C 331.085938 236.4375 336.988281 212.988281 338.652344 174.769531 C 338.175781 151.535156 332.234375 128.574219 315.421875 95.375 C 311.457031 88.894531 307.214844 82.507812 302.300781 76.707031 L 301.605469 75.878906 C 300.976562 75.132812 300.347656 74.390625 299.714844 73.648438 C 299.304688 73.164062 298.890625 72.675781 298.480469 72.191406 C 297.175781 70.648438 295.871094 69.136719 294.414062 67.734375 C 293.925781 67.246094 293.476562 66.742188 293.03125 66.214844 C 291.957031 64.980469 290.816406 63.824219 289.65625 62.671875 L 289.050781 62.0625 C 288.082031 61.09375 287.105469 60.195312 286.03125 59.347656 L 285.757812 58.804688 L 285.046875 58.550781 C 283.664062 57.703125 283 56.410156 282.234375 55.007812 L 281.964844 54.191406 L 281.421875 54.191406 C 280.84375 53.414062 280.84375 53.414062 280.335938 52.566406 L 280.335938 52.023438 L 279.792969 52.023438 C 279.308594 51.308594 278.984375 50.675781 278.707031 49.851562 L 278.167969 49.851562 C 277.539062 48.988281 276.988281 48.113281 276.539062 47.140625 L 275.996094 47.140625 C 275.621094 46.609375 275.257812 46.066406 274.914062 45.511719 L 275.996094 45.511719 L 275.996094 46.054688 L 276.554688 46.257812 C 277.507812 46.664062 278.359375 47.160156 279.25 47.683594 L 279.25 48.226562 L 279.699219 48.304688 C 280.515625 48.550781 281.128906 48.960938 281.84375 49.429688 L 282.625 49.9375 C 283.128906 50.269531 283.628906 50.601562 284.132812 50.9375 L 284.132812 51.480469 L 284.585938 51.558594 C 285.386719 51.804688 285.957031 52.203125 286.640625 52.683594 L 287.375 53.191406 L 287.929688 53.652344 L 287.929688 54.191406 L 288.554688 54.429688 C 289.285156 54.734375 289.285156 54.734375 290.097656 55.277344 L 290.097656 55.820312 L 290.574219 55.90625 C 291.28125 56.121094 291.71875 56.414062 292.269531 56.90625 L 292.269531 57.449219 L 292.859375 57.652344 C 293.699219 58.023438 294.304688 58.457031 294.980469 59.074219 L 294.980469 59.617188 L 295.574219 59.820312 C 296.410156 60.195312 297.015625 60.628906 297.691406 61.246094 L 297.691406 61.789062 L 298.148438 61.980469 C 298.929688 62.414062 299.511719 62.960938 300.167969 63.566406 C 301.03125 64.402344 301.03125 64.402344 302.03125 65.042969 L 302.03125 65.585938 L 302.574219 65.585938 L 302.574219 66.128906 L 303.0625 66.351562 C 303.640625 66.660156 304.015625 66.960938 304.476562 67.421875 L 304.9375 67.875 L 305.425781 68.367188 L 305.929688 68.871094 C 306.28125 69.222656 306.632812 69.574219 306.984375 69.925781 C 307.523438 70.46875 308.0625 71.007812 308.605469 71.546875 L 310.121094 73.0625 C 310.507812 73.453125 310.878906 73.859375 311.25 74.265625 L 311.25 74.808594 L 311.792969 74.808594 L 311.792969 75.351562 L 312.335938 75.351562 L 312.335938 75.894531 L 312.878906 75.894531 C 313.277344 76.292969 313.277344 76.292969 313.742188 76.84375 C 314.585938 77.835938 315.449219 78.816406 316.324219 79.78125 L 316.675781 80.234375 L 316.675781 80.777344 L 317.214844 80.777344 C 317.742188 81.351562 317.742188 81.351562 318.335938 82.097656 L 318.929688 82.84375 L 319.386719 83.488281 L 319.386719 84.03125 L 319.929688 84.03125 C 320.347656 84.539062 320.75 85.058594 321.132812 85.589844 L 321.457031 86.035156 C 321.761719 86.449219 322.066406 86.867188 322.371094 87.285156 L 322.851562 87.902344 L 323.183594 88.371094 L 323.183594 88.914062 L 323.726562 88.914062 C 324.183594 89.46875 324.183594 89.46875 324.691406 90.203125 L 325.199219 90.925781 C 325.578125 91.550781 325.773438 92.003906 325.894531 92.710938 L 326.4375 92.710938 L 326.980469 93.527344 L 326.980469 94.339844 L 327.523438 94.339844 C 328.007812 94.984375 328.46875 95.648438 328.910156 96.324219 L 329.296875 96.890625 L 329.660156 97.4375 L 329.992188 97.941406 C 330.234375 98.410156 330.234375 98.410156 330.234375 99.222656 L 330.777344 99.222656 C 331.625 100.625 331.625 100.625 331.859375 101.121094 L 331.859375 101.933594 L 332.402344 101.933594 C 333.25 103.339844 333.25 103.339844 333.488281 103.832031 L 333.488281 104.648438 L 334.03125 104.648438 C 334.394531 105.308594 334.753906 105.96875 335.113281 106.632812 L 335.429688 107.199219 C 336.199219 108.625 336.199219 108.625 336.199219 109.53125 L 336.742188 109.53125 C 341.082031 117.640625 341.082031 117.640625 341.082031 119.296875 L 341.625 119.296875 L 341.792969 119.761719 L 342.011719 120.363281 L 342.234375 120.964844 C 342.398438 121.460938 342.398438 121.460938 342.707031 121.738281 C 342.71875 122.1875 342.71875 122.640625 342.707031 123.09375 L 343.25 123.09375 L 343.5 123.820312 C 344.144531 125.671875 344.84375 127.460938 345.671875 129.242188 C 346.238281 130.472656 346.585938 131.496094 346.503906 132.859375 L 347.046875 132.859375 C 347.710938 134.765625 348.28125 136.664062 348.75 138.625 C 348.914062 139.25 349.113281 139.855469 349.351562 140.453125 C 349.804688 141.59375 350.082031 142.761719 350.367188 143.953125 C 350.566406 144.765625 350.785156 145.566406 351.011719 146.371094 C 351.246094 147.210938 351.441406 148.03125 351.554688 148.894531 L 351.65625 149.675781 L 351.929688 149.949219 C 352.097656 150.84375 352.25 151.746094 352.394531 152.648438 C 352.589844 153.824219 352.839844 154.96875 353.140625 156.125 C 353.574219 157.828125 353.859375 159.535156 354.113281 161.273438 L 354.253906 162.207031 C 354.386719 163.09375 354.515625 163.980469 354.640625 164.867188 L 354.738281 165.542969 C 355.109375 168.207031 355.316406 170.863281 355.453125 173.546875 L 356.539062 173.546875 C 356.566406 170.683594 356.539062 167.835938 356.410156 164.976562 C 356.238281 160.8125 356.175781 156.648438 356.125 152.480469 L 356.097656 150.496094 C 355.964844 139.894531 355.960938 129.289062 355.96875 118.683594 C 355.96875 115.910156 355.96875 113.140625 355.96875 110.367188 C 355.972656 105.429688 355.972656 100.492188 355.976562 95.554688 C 355.976562 90.773438 355.980469 85.996094 355.980469 81.214844 L 355.980469 75.832031 C 355.984375 63.554688 355.988281 51.277344 355.996094 39.003906 " fill-opacity="1" fill-rule="nonzero"/></g></svg>