<svg xmlns="http://www.w3.org/2000/svg" xmlns:xlink="http://www.w3.org/1999/xlink" width="500" zoomAndPan="magnify" viewBox="0 0 375 374.999991" height="500" preserveAspectRatio="xMidYMid meet" version="1.0"><path fill="#021699" d="M 165.976562 15.332031 L 209.816406 15.332031 L 210.214844 58.375 L 211.011719 57.976562 L 211.410156 56.78125 L 212.207031 56.78125 L 212.207031 55.984375 L 213.003906 55.984375 L 213.277344 55.3125 C 213.941406 54.140625 214.847656 53.34375 215.792969 52.398438 L 216.191406 51.203125 L 216.988281 51.203125 L 216.988281 50.402344 L 217.785156 50.402344 L 217.785156 49.605469 L 218.582031 49.605469 L 218.859375 48.933594 C 219.519531 47.765625 220.425781 46.96875 221.375 46.019531 L 221.773438 44.824219 L 222.570312 44.824219 L 222.570312 44.027344 L 223.367188 44.027344 L 223.640625 43.355469 C 224.304688 42.1875 225.207031 41.390625 226.15625 40.441406 L 226.554688 39.246094 L 227.351562 39.246094 L 227.351562 38.449219 L 228.148438 38.449219 L 228.148438 37.652344 L 228.945312 37.652344 L 229.21875 36.980469 C 229.882812 35.808594 230.789062 35.011719 231.734375 34.066406 L 232.132812 32.867188 L 232.929688 32.867188 L 232.929688 32.070312 L 233.726562 32.070312 L 234 31.398438 C 234.664062 30.230469 235.570312 29.433594 236.515625 28.484375 L 236.914062 27.289062 L 237.714844 27.289062 L 237.714844 26.492188 L 238.511719 26.492188 L 238.511719 25.695312 L 239.308594 25.695312 L 239.65625 24.949219 C 240.105469 24.101562 240.105469 24.101562 240.902344 23.304688 L 242.097656 23.304688 L 242.097656 24.101562 L 243.191406 24.277344 C 244.175781 24.445312 245.121094 24.640625 246.082031 24.898438 L 246.082031 25.695312 L 247.179688 25.871094 C 248.160156 26.039062 249.105469 26.234375 250.066406 26.492188 L 250.066406 27.289062 L 251.164062 27.464844 C 252.144531 27.632812 253.089844 27.828125 254.050781 28.085938 L 254.050781 28.882812 L 255.648438 28.882812 L 255.648438 29.679688 L 256.742188 29.855469 C 257.726562 30.023438 258.671875 30.21875 259.632812 30.476562 L 259.632812 31.273438 L 260.726562 31.449219 C 261.710938 31.621094 262.65625 31.8125 263.617188 32.070312 L 263.617188 32.867188 L 265.210938 32.867188 L 265.210938 33.667969 L 266.40625 33.667969 C 266.460938 37.351562 266.300781 40.988281 266.011719 44.660156 L 265.890625 46.3125 C 265.777344 47.769531 265.667969 49.222656 265.554688 50.679688 C 265.4375 52.179688 265.324219 53.683594 265.210938 55.1875 C 264.914062 59.113281 264.609375 63.039062 264.304688 66.964844 C 263.949219 71.542969 263.589844 76.117188 263.21875 80.691406 L 264.015625 80.691406 L 264.015625 79.894531 L 264.8125 79.894531 L 264.8125 79.097656 L 265.609375 79.097656 L 265.609375 78.300781 L 266.40625 78.300781 L 266.40625 77.503906 L 267.203125 77.503906 L 267.203125 76.707031 L 268 76.707031 L 268 75.910156 L 268.796875 75.910156 L 268.796875 75.113281 L 269.59375 75.113281 L 269.59375 74.316406 L 270.390625 74.316406 L 270.390625 73.519531 L 271.1875 73.519531 L 271.1875 72.722656 L 271.988281 72.722656 L 271.988281 71.925781 L 272.785156 71.925781 L 272.785156 71.128906 L 273.582031 71.128906 L 273.582031 70.332031 L 274.378906 70.332031 L 274.378906 69.535156 L 275.175781 69.535156 L 275.175781 68.738281 L 275.972656 68.738281 L 275.972656 67.941406 L 276.769531 67.941406 L 276.769531 67.140625 L 277.566406 67.140625 L 277.566406 66.34375 L 278.363281 66.34375 L 278.363281 65.546875 L 279.160156 65.546875 L 279.160156 64.75 L 279.957031 64.75 L 279.957031 63.953125 L 280.753906 63.953125 L 280.753906 63.15625 L 281.550781 63.15625 L 281.550781 62.359375 L 282.347656 62.359375 L 282.347656 61.5625 L 283.144531 61.5625 L 283.144531 60.765625 L 283.941406 60.765625 L 283.941406 59.96875 L 284.738281 59.96875 L 284.738281 59.171875 L 285.535156 59.171875 L 285.535156 58.375 L 286.332031 58.375 L 286.332031 57.578125 L 287.128906 57.578125 L 287.128906 56.78125 L 287.925781 56.78125 L 287.925781 55.984375 L 288.726562 55.984375 L 288.726562 55.1875 L 289.523438 55.1875 L 289.523438 54.390625 L 290.320312 54.390625 L 290.320312 53.59375 L 291.117188 53.59375 L 291.117188 52.796875 L 291.914062 52.796875 L 291.914062 52 L 292.710938 52 L 292.710938 51.203125 L 294.703125 51.203125 L 294.703125 52 L 295.5 52 L 295.5 52.796875 L 296.296875 52.796875 L 296.296875 53.59375 L 297.09375 53.59375 L 297.09375 54.390625 L 297.890625 54.390625 L 297.890625 55.1875 L 298.6875 55.1875 L 298.6875 55.984375 L 299.484375 55.984375 L 299.484375 56.78125 L 300.28125 56.78125 L 300.28125 57.578125 L 301.078125 57.578125 L 301.078125 58.375 L 301.875 58.375 L 301.875 59.171875 L 302.671875 59.171875 L 302.671875 59.96875 L 303.46875 59.96875 L 303.46875 60.765625 L 304.265625 60.765625 L 304.265625 61.5625 L 305.0625 61.5625 L 305.0625 62.359375 L 305.863281 62.359375 L 305.863281 63.15625 L 306.660156 63.15625 L 306.660156 63.953125 L 307.457031 63.953125 L 307.457031 64.75 L 308.253906 64.75 L 308.253906 65.546875 L 309.050781 65.546875 L 309.050781 66.34375 L 309.847656 66.34375 L 309.847656 67.140625 L 310.644531 67.140625 L 310.644531 67.941406 L 311.441406 67.941406 L 311.441406 68.738281 L 312.238281 68.738281 L 312.238281 69.535156 L 313.035156 69.535156 L 313.035156 70.332031 L 313.832031 70.332031 L 313.832031 71.128906 L 314.628906 71.128906 L 314.628906 71.925781 L 315.425781 71.925781 L 315.425781 72.722656 L 316.222656 72.722656 L 316.222656 73.519531 L 317.019531 73.519531 L 317.019531 74.316406 L 317.816406 74.316406 L 317.816406 75.113281 L 318.613281 75.113281 L 318.613281 75.910156 L 319.410156 75.910156 L 319.410156 76.707031 L 320.207031 76.707031 L 320.207031 77.503906 L 321.003906 77.503906 L 321.003906 78.300781 L 321.800781 78.300781 L 321.800781 79.097656 L 322.601562 79.097656 L 322.601562 79.894531 L 323.398438 79.894531 L 323.398438 80.691406 L 324.195312 80.691406 C 324.167969 81.503906 324.167969 81.503906 323.796875 82.683594 C 322.96875 83.75 322.003906 84.675781 321.042969 85.617188 L 320.171875 86.492188 C 319.21875 87.441406 318.261719 88.386719 317.304688 89.332031 L 315.324219 91.304688 C 313.585938 93.039062 311.84375 94.765625 310.097656 96.492188 C 308.316406 98.257812 306.542969 100.023438 304.769531 101.789062 C 301.285156 105.257812 297.796875 108.71875 294.304688 112.175781 C 298.4375 111.917969 302.566406 111.660156 306.699219 111.398438 C 315.605469 110.839844 315.605469 110.839844 324.507812 110.210938 L 325.640625 110.125 C 327.324219 109.996094 329.007812 109.867188 330.6875 109.730469 C 334.363281 109.441406 338.042969 109.324219 341.730469 109.386719 L 341.730469 110.980469 L 342.527344 110.980469 L 343.019531 112.320312 L 343.671875 114.070312 L 343.996094 114.949219 C 344.625 116.636719 344.625 116.636719 345.394531 118.261719 C 345.714844 118.953125 345.714844 118.953125 345.714844 120.546875 L 346.511719 120.546875 C 347.035156 121.988281 347.308594 122.976562 347.308594 124.53125 L 348.105469 124.53125 C 349.855469 129.199219 349.855469 129.199219 350.171875 130.050781 C 350.390625 130.628906 350.621094 131.203125 350.855469 131.773438 C 351.167969 132.535156 351.433594 133.316406 351.691406 134.09375 C 351.523438 134.984375 351.523438 134.984375 351.292969 135.691406 L 350.097656 135.691406 L 350.097656 136.488281 L 349.300781 136.488281 L 349.300781 137.285156 C 348.660156 137.957031 348.660156 137.957031 347.804688 138.703125 L 346.964844 139.453125 C 346.121094 140.066406 345.539062 140.304688 344.519531 140.472656 L 344.519531 141.269531 L 343.722656 141.269531 L 343.722656 142.066406 C 343.078125 142.738281 343.078125 142.738281 342.226562 143.484375 L 341.386719 144.234375 C 340.542969 144.851562 339.960938 145.085938 338.9375 145.253906 L 338.9375 146.050781 L 338.140625 146.050781 L 338.140625 146.847656 L 337.34375 146.847656 L 337.34375 147.644531 C 336.703125 148.320312 336.703125 148.320312 335.851562 149.066406 L 335.011719 149.8125 C 334.164062 150.429688 333.582031 150.664062 332.5625 150.832031 L 332.5625 151.628906 L 331.765625 151.628906 L 331.765625 152.425781 C 331.125 153.101562 331.125 153.101562 330.269531 153.847656 L 329.429688 154.597656 C 328.585938 155.210938 328.003906 155.449219 326.984375 155.617188 L 326.984375 156.414062 L 326.1875 156.414062 L 326.1875 157.210938 L 325.390625 157.210938 L 325.390625 158.007812 C 324.746094 158.679688 324.746094 158.679688 323.894531 159.425781 L 323.054688 160.175781 C 322.210938 160.789062 321.628906 161.027344 320.605469 161.195312 L 320.605469 161.992188 L 319.808594 161.992188 L 319.808594 162.789062 L 316.621094 165.578125 L 359.664062 165.976562 L 359.664062 209.417969 L 316.621094 209.816406 L 316.621094 210.613281 L 317.816406 210.613281 L 317.816406 211.410156 L 318.613281 211.410156 L 318.613281 212.207031 L 319.410156 212.207031 L 319.410156 213.003906 L 320.207031 213.003906 L 320.207031 213.800781 L 321.402344 213.800781 L 321.402344 214.597656 L 322.199219 214.597656 L 322.199219 215.394531 L 323 215.394531 L 323 216.191406 L 324.195312 216.191406 L 324.195312 216.988281 L 324.992188 216.988281 L 324.992188 217.785156 L 325.789062 217.785156 L 325.789062 218.582031 L 326.585938 218.582031 L 326.585938 219.378906 L 327.78125 219.378906 L 327.78125 220.175781 L 328.578125 220.175781 L 328.578125 220.976562 L 329.773438 220.976562 L 329.773438 221.773438 L 330.570312 221.773438 L 330.570312 222.570312 L 331.367188 222.570312 L 331.367188 223.367188 L 332.164062 223.367188 L 332.164062 224.164062 L 333.359375 224.164062 L 333.359375 224.960938 L 334.15625 224.960938 L 334.15625 225.757812 L 334.953125 225.757812 L 334.953125 226.554688 L 336.148438 226.554688 L 336.148438 227.351562 L 336.945312 227.351562 L 336.945312 228.148438 L 337.742188 228.148438 L 337.742188 228.945312 L 338.539062 228.945312 L 338.539062 229.742188 L 339.738281 229.742188 L 339.738281 230.539062 L 340.535156 230.539062 L 340.535156 231.335938 L 341.730469 231.335938 L 341.730469 232.132812 L 342.527344 232.132812 L 342.527344 232.929688 L 343.324219 232.929688 L 343.324219 233.726562 L 344.121094 233.726562 L 344.121094 234.523438 L 345.316406 234.523438 L 345.316406 235.320312 L 346.113281 235.320312 L 346.113281 236.117188 L 347.308594 236.117188 L 347.308594 236.914062 L 348.105469 236.914062 L 348.105469 237.710938 L 348.902344 237.710938 L 348.902344 238.511719 L 349.699219 238.511719 L 349.699219 239.308594 L 350.894531 239.308594 L 350.894531 240.105469 L 351.691406 240.105469 C 351.765625 240.976562 351.765625 240.976562 351.691406 242.097656 C 351.300781 242.765625 350.902344 243.429688 350.496094 244.089844 C 350.179688 244.953125 349.902344 245.824219 349.625 246.699219 C 348.824219 249.125 347.808594 251.460938 346.734375 253.777344 C 346 255.378906 345.339844 256.988281 344.71875 258.636719 C 342.296875 265.042969 342.296875 265.042969 341.332031 266.007812 C 340.644531 266.035156 340.644531 266.035156 339.71875 266.003906 L 338.632812 265.960938 L 337.40625 265.910156 L 336.09375 265.851562 C 329.507812 265.550781 322.933594 265.054688 316.355469 264.582031 C 314.414062 264.441406 312.476562 264.300781 310.535156 264.167969 C 309.03125 264.058594 307.527344 263.953125 306.019531 263.84375 C 305.304688 263.792969 304.585938 263.742188 303.871094 263.691406 C 302.878906 263.621094 301.886719 263.550781 300.894531 263.476562 L 300.003906 263.414062 C 297.980469 263.265625 297.980469 263.265625 297.09375 262.820312 C 296.164062 262.804688 295.234375 262.804688 294.304688 262.820312 L 294.304688 264.015625 L 295.101562 264.015625 L 295.101562 264.8125 L 295.898438 264.8125 L 295.898438 265.609375 L 296.695312 265.609375 L 296.695312 266.40625 L 297.492188 266.40625 L 297.492188 267.203125 L 298.289062 267.203125 L 298.289062 268 L 299.085938 268 L 299.085938 268.796875 L 299.882812 268.796875 L 299.882812 269.59375 L 300.679688 269.59375 L 300.679688 270.390625 L 301.476562 270.390625 L 301.476562 271.1875 L 302.273438 271.1875 L 302.273438 271.988281 L 303.070312 271.988281 L 303.070312 272.785156 L 303.867188 272.785156 L 303.867188 273.582031 L 304.664062 273.582031 L 304.664062 274.378906 L 305.464844 274.378906 L 305.464844 275.175781 L 306.261719 275.175781 L 306.261719 275.972656 L 307.058594 275.972656 L 307.058594 276.769531 L 307.855469 276.769531 L 307.855469 277.566406 L 308.652344 277.566406 L 308.652344 278.363281 L 309.449219 278.363281 L 309.449219 279.160156 L 310.246094 279.160156 L 310.246094 279.957031 L 311.042969 279.957031 L 311.042969 280.753906 L 311.839844 280.753906 L 311.839844 281.550781 L 312.636719 281.550781 L 312.636719 282.347656 L 313.433594 282.347656 L 313.433594 283.144531 L 314.230469 283.144531 L 314.230469 283.941406 L 315.027344 283.941406 L 315.027344 284.738281 L 315.824219 284.738281 L 315.824219 285.535156 L 316.621094 285.535156 L 316.621094 286.332031 L 317.417969 286.332031 L 317.417969 287.128906 L 318.214844 287.128906 L 318.214844 287.925781 L 319.011719 287.925781 L 319.011719 288.722656 L 319.808594 288.722656 L 319.808594 289.523438 L 320.605469 289.523438 L 320.605469 290.320312 L 321.402344 290.320312 L 321.402344 291.117188 L 322.199219 291.117188 L 322.199219 291.914062 L 323 291.914062 L 323 292.710938 L 323.796875 292.710938 L 323.796875 293.507812 L 324.59375 293.507812 L 324.59375 294.304688 L 323.796875 294.304688 L 323.796875 295.101562 L 323 295.101562 L 323 295.898438 L 322.199219 295.898438 L 322.199219 296.695312 L 321.402344 296.695312 L 321.402344 297.492188 L 320.605469 297.492188 L 320.605469 298.289062 L 319.808594 298.289062 L 319.808594 299.085938 L 319.011719 299.085938 L 319.011719 299.882812 L 318.214844 299.882812 L 318.214844 300.679688 L 317.417969 300.679688 L 317.417969 301.476562 L 316.621094 301.476562 L 316.621094 302.273438 L 315.824219 302.273438 L 315.824219 303.070312 L 315.027344 303.070312 L 315.027344 303.867188 L 314.230469 303.867188 L 314.230469 304.664062 L 313.433594 304.664062 L 313.433594 305.460938 L 312.636719 305.460938 L 312.636719 306.261719 L 311.839844 306.261719 L 311.839844 307.058594 L 311.042969 307.058594 L 311.042969 307.855469 L 310.246094 307.855469 L 310.246094 308.652344 L 309.449219 308.652344 L 309.449219 309.449219 L 308.652344 309.449219 L 308.652344 310.246094 L 307.855469 310.246094 L 307.855469 311.042969 L 307.058594 311.042969 L 307.058594 311.839844 L 306.261719 311.839844 L 306.261719 312.636719 L 305.464844 312.636719 L 305.464844 313.433594 L 304.664062 313.433594 L 304.664062 314.230469 L 303.867188 314.230469 L 303.867188 315.027344 L 303.070312 315.027344 L 303.070312 315.824219 L 302.273438 315.824219 L 302.273438 316.621094 L 301.476562 316.621094 L 301.476562 317.417969 L 300.679688 317.417969 L 300.679688 318.214844 L 299.882812 318.214844 L 299.882812 319.011719 L 299.085938 319.011719 L 299.085938 319.808594 L 298.289062 319.808594 L 298.289062 320.605469 L 297.492188 320.605469 L 297.492188 321.402344 L 296.695312 321.402344 L 296.695312 322.199219 L 295.898438 322.199219 L 295.898438 323 L 295.101562 323 L 295.101562 323.796875 L 294.304688 323.796875 L 294.304688 324.59375 L 293.507812 324.59375 L 293.507812 323.796875 L 292.710938 323.796875 L 292.710938 323 L 291.914062 323 L 291.914062 322.199219 L 291.117188 322.199219 L 291.117188 321.402344 L 290.320312 321.402344 L 290.320312 320.605469 L 289.523438 320.605469 L 289.523438 319.808594 L 288.324219 319.808594 L 287.925781 318.214844 L 287.128906 318.214844 L 287.128906 317.417969 L 286.332031 317.417969 L 286.332031 316.621094 L 285.535156 316.621094 L 285.535156 315.824219 L 284.738281 315.824219 L 284.738281 315.027344 L 283.941406 315.027344 L 283.941406 314.230469 L 283.144531 314.230469 L 283.144531 313.433594 L 282.347656 313.433594 L 282.347656 312.636719 L 281.550781 312.636719 L 281.550781 311.839844 L 280.753906 311.839844 L 280.753906 311.042969 L 279.957031 311.042969 L 279.957031 310.246094 L 279.160156 310.246094 L 279.160156 309.449219 L 278.363281 309.449219 L 278.363281 308.652344 L 277.566406 308.652344 L 277.566406 307.855469 L 276.769531 307.855469 L 276.769531 307.058594 L 275.972656 307.058594 L 275.972656 306.261719 L 275.175781 306.261719 L 275.175781 305.460938 L 274.378906 305.460938 L 274.378906 304.664062 L 273.582031 304.664062 L 273.582031 303.867188 L 272.785156 303.867188 L 272.785156 303.070312 L 271.988281 303.070312 L 271.988281 302.273438 L 271.1875 302.273438 L 271.1875 301.476562 L 270.390625 301.476562 L 270.390625 300.679688 L 269.59375 300.679688 L 269.59375 299.882812 L 268.796875 299.882812 L 268.796875 299.085938 L 268 299.085938 L 268 298.289062 L 267.203125 298.289062 L 267.203125 297.492188 L 266.40625 297.492188 L 266.40625 296.695312 L 265.609375 296.695312 L 265.609375 295.898438 L 264.8125 295.898438 L 264.8125 295.101562 L 264.015625 295.101562 L 264.015625 294.304688 L 262.421875 294.304688 L 262.582031 295.039062 C 263.085938 297.421875 263.398438 299.75 263.566406 302.179688 L 263.648438 303.289062 C 263.734375 304.484375 263.824219 305.683594 263.90625 306.878906 L 264.089844 309.402344 C 264.21875 311.160156 264.347656 312.914062 264.472656 314.671875 C 264.628906 316.914062 264.792969 319.15625 264.957031 321.398438 C 265.085938 323.132812 265.210938 324.867188 265.335938 326.601562 C 265.394531 327.425781 265.457031 328.253906 265.515625 329.078125 C 266.257812 339.246094 266.257812 339.246094 266.007812 341.332031 C 265.15625 342.183594 264.742188 342.332031 263.617188 342.675781 C 260.835938 343.5625 258.167969 344.664062 255.523438 345.890625 C 253.496094 346.820312 251.4375 347.617188 249.351562 348.398438 C 248.132812 348.878906 246.964844 349.410156 245.78125 349.972656 C 243.90625 350.851562 242.140625 351.324219 240.105469 351.691406 L 239.707031 350.097656 L 238.910156 350.097656 L 238.910156 349.300781 L 238.113281 349.300781 L 238.113281 348.503906 L 237.3125 348.503906 L 236.914062 346.910156 L 236.117188 346.910156 L 236.117188 346.113281 L 235.320312 346.113281 L 235.320312 345.316406 L 234.523438 345.316406 L 234.125 343.722656 L 233.328125 343.722656 L 233.328125 342.925781 L 232.53125 342.925781 L 232.132812 341.332031 L 231.335938 341.332031 L 231.335938 340.535156 L 230.539062 340.535156 L 230.539062 339.734375 L 229.742188 339.734375 L 229.34375 338.140625 L 228.546875 338.140625 L 228.546875 337.34375 L 227.75 337.34375 L 227.75 336.546875 L 226.953125 336.546875 L 226.554688 334.953125 L 225.757812 334.953125 L 225.757812 334.15625 L 224.960938 334.15625 L 224.960938 333.359375 L 224.164062 333.359375 L 223.765625 331.765625 L 222.96875 331.765625 L 222.96875 330.96875 L 222.171875 330.96875 L 221.773438 329.375 L 220.976562 329.375 L 220.976562 328.578125 L 220.175781 328.578125 L 220.175781 327.78125 L 219.378906 327.78125 L 218.980469 326.1875 L 218.183594 326.1875 L 218.183594 325.390625 L 217.386719 325.390625 L 217.386719 324.59375 L 216.589844 324.59375 L 216.191406 323 L 215.394531 323 L 215.394531 322.199219 L 214.597656 322.199219 L 214.597656 321.402344 L 213.800781 321.402344 L 213.402344 319.808594 L 212.605469 319.808594 L 212.605469 319.011719 L 211.808594 319.011719 L 211.808594 318.214844 L 211.011719 318.214844 L 210.613281 316.621094 L 209.816406 317.019531 L 209.417969 359.664062 L 165.578125 359.664062 L 165.578125 316.621094 L 164.382812 316.621094 L 164.308594 317.269531 C 163.824219 318.683594 163.011719 319.515625 161.992188 320.605469 L 161.195312 320.605469 L 161.195312 321.402344 L 160.398438 321.402344 L 160.398438 322.199219 L 159.601562 322.199219 L 159.488281 322.890625 C 159.136719 324.003906 158.605469 324.621094 157.832031 325.488281 L 157.085938 326.34375 L 156.414062 326.984375 L 155.617188 326.984375 L 155.617188 327.78125 L 154.820312 327.78125 L 154.820312 328.578125 L 154.023438 328.578125 L 153.949219 329.226562 C 153.464844 330.636719 152.648438 331.46875 151.628906 332.5625 L 150.832031 332.5625 L 150.832031 333.359375 L 150.035156 333.359375 L 150.035156 334.15625 L 149.238281 334.15625 L 149.125 334.847656 C 148.773438 335.960938 148.242188 336.578125 147.472656 337.445312 L 146.726562 338.296875 L 146.050781 338.9375 L 145.253906 338.9375 L 145.253906 339.738281 L 144.457031 339.738281 L 144.457031 340.535156 L 143.660156 340.535156 L 143.585938 341.179688 C 143.101562 342.59375 142.285156 343.425781 141.269531 344.519531 L 140.472656 344.519531 L 140.472656 345.316406 L 139.675781 345.316406 L 139.675781 346.113281 L 138.878906 346.113281 L 138.765625 346.804688 C 138.414062 347.914062 137.882812 348.53125 137.109375 349.402344 L 136.363281 350.253906 L 135.691406 350.894531 L 134.890625 350.894531 L 134.890625 351.691406 L 132.898438 351.691406 L 132.898438 350.894531 L 131.304688 350.894531 L 131.304688 350.097656 L 130.210938 349.925781 C 129.226562 349.753906 128.28125 349.558594 127.320312 349.300781 L 127.320312 348.503906 L 125.726562 348.503906 L 125.726562 347.707031 L 123.335938 347.707031 L 123.335938 346.910156 L 121.742188 346.910156 L 121.742188 346.113281 L 120.644531 345.9375 C 119.664062 345.769531 118.71875 345.574219 117.753906 345.316406 L 117.753906 344.519531 L 116.160156 344.519531 L 116.160156 343.722656 L 113.769531 343.722656 L 113.769531 342.925781 L 112.175781 342.925781 L 112.175781 342.128906 L 109.785156 342.128906 L 109.785156 341.332031 L 108.988281 341.332031 C 109.253906 333.621094 109.828125 325.9375 110.394531 318.246094 C 110.53125 316.386719 110.664062 314.527344 110.796875 312.671875 C 110.902344 311.21875 111.007812 309.765625 111.113281 308.3125 C 111.164062 307.628906 111.214844 306.941406 111.261719 306.257812 C 111.550781 302.242188 111.9375 298.28125 112.574219 294.304688 L 110.980469 294.304688 L 110.980469 295.101562 L 110.183594 295.101562 L 110.183594 295.898438 L 109.386719 295.898438 L 109.386719 296.695312 L 108.589844 296.695312 L 108.589844 297.492188 L 107.792969 297.492188 L 107.792969 298.289062 L 106.996094 298.289062 L 106.996094 299.085938 L 106.199219 299.085938 L 106.199219 299.882812 L 105.402344 299.882812 L 105.402344 300.679688 L 104.605469 300.679688 L 104.605469 301.476562 L 103.808594 301.476562 L 103.808594 302.273438 L 103.011719 302.273438 L 103.011719 303.070312 L 102.214844 303.070312 L 102.214844 303.867188 L 101.414062 303.867188 L 101.414062 304.664062 L 100.617188 304.664062 L 100.617188 305.460938 L 99.820312 305.460938 L 99.820312 306.261719 L 99.023438 306.261719 L 99.023438 307.058594 L 98.226562 307.058594 L 98.226562 307.855469 L 97.429688 307.855469 L 97.429688 308.652344 L 96.632812 308.652344 L 96.632812 309.449219 L 95.835938 309.449219 L 95.835938 310.246094 L 95.039062 310.246094 L 95.039062 311.042969 L 94.242188 311.042969 L 94.242188 311.839844 L 93.445312 311.839844 L 93.445312 312.636719 L 92.648438 312.636719 L 92.648438 313.433594 L 91.851562 313.433594 L 91.851562 314.230469 L 91.054688 314.230469 L 91.054688 315.027344 L 90.257812 315.027344 L 90.257812 315.824219 L 89.460938 315.824219 L 89.460938 316.621094 L 88.664062 316.621094 L 88.664062 317.417969 L 87.867188 317.417969 L 87.867188 318.214844 L 87.070312 318.214844 L 87.070312 319.011719 L 86.273438 319.011719 L 86.273438 319.808594 L 85.476562 319.808594 L 85.476562 320.605469 L 84.679688 320.605469 L 84.679688 321.402344 L 83.878906 321.402344 L 83.878906 322.199219 L 83.082031 322.199219 L 83.082031 323 L 82.285156 323 L 82.285156 323.796875 L 81.488281 323.796875 L 81.488281 324.59375 L 80.691406 324.59375 L 80.691406 323.796875 L 79.894531 323.796875 L 79.894531 323 L 79.097656 323 L 79.097656 322.199219 L 78.300781 322.199219 L 78.300781 321.402344 L 77.503906 321.402344 L 77.503906 320.605469 L 76.707031 320.605469 L 76.707031 319.808594 L 75.910156 319.808594 L 75.910156 319.011719 L 75.113281 319.011719 L 75.113281 318.214844 L 74.316406 318.214844 L 74.316406 317.417969 L 73.519531 317.417969 L 73.519531 316.621094 L 72.722656 316.621094 L 72.722656 315.824219 L 71.925781 315.824219 L 71.925781 315.027344 L 71.128906 315.027344 L 71.128906 314.230469 L 70.332031 314.230469 L 70.332031 313.433594 L 69.535156 313.433594 L 69.535156 312.636719 L 68.738281 312.636719 L 68.738281 311.839844 L 67.941406 311.839844 L 67.941406 311.042969 L 67.140625 311.042969 L 67.140625 310.246094 L 66.34375 310.246094 L 66.34375 309.449219 L 65.546875 309.449219 L 65.546875 308.652344 L 64.75 308.652344 L 64.75 307.855469 L 63.953125 307.855469 L 63.953125 307.058594 L 63.15625 307.058594 L 63.15625 306.261719 L 62.359375 306.261719 L 62.359375 305.460938 L 61.5625 305.460938 L 61.5625 304.664062 L 60.765625 304.664062 L 60.765625 303.867188 L 59.96875 303.867188 L 59.96875 303.070312 L 59.171875 303.070312 L 59.171875 302.273438 L 58.375 302.273438 L 58.375 301.476562 L 57.578125 301.476562 L 57.578125 300.679688 L 56.78125 300.679688 L 56.78125 299.882812 L 55.984375 299.882812 L 55.984375 299.085938 L 55.1875 299.085938 L 55.1875 298.289062 L 54.390625 298.289062 L 54.390625 297.492188 L 53.59375 297.492188 L 53.59375 296.695312 L 52.796875 296.695312 L 52.796875 295.898438 L 52 295.898438 L 52 295.101562 L 51.203125 295.101562 L 50.804688 293.90625 L 51.203125 292.710938 L 52 292.710938 L 52 291.914062 L 52.796875 291.914062 L 52.796875 291.117188 L 53.59375 291.117188 L 53.59375 290.320312 L 54.390625 290.320312 L 54.390625 289.523438 L 55.1875 289.523438 L 55.1875 288.726562 L 55.984375 288.726562 L 55.984375 287.925781 L 56.78125 287.925781 L 56.78125 287.128906 L 57.578125 287.128906 L 57.578125 286.332031 L 58.375 286.332031 L 58.375 285.535156 L 59.171875 285.535156 L 59.171875 284.738281 L 59.96875 284.738281 L 59.96875 283.941406 L 60.765625 283.941406 L 60.765625 283.144531 L 61.5625 283.144531 L 61.5625 282.347656 L 62.359375 282.347656 L 62.359375 281.550781 L 63.15625 281.550781 L 63.15625 280.753906 L 63.953125 280.753906 L 63.953125 279.957031 L 64.75 279.957031 L 64.75 279.160156 L 65.546875 279.160156 L 65.546875 278.363281 L 66.34375 278.363281 L 66.34375 277.566406 L 67.140625 277.566406 L 67.140625 276.769531 L 67.941406 276.769531 L 67.941406 275.972656 L 68.738281 275.972656 L 68.738281 275.175781 L 69.535156 275.175781 L 69.535156 274.378906 L 70.332031 274.378906 L 70.332031 273.582031 L 71.128906 273.582031 L 71.128906 272.785156 L 71.925781 272.785156 L 71.925781 271.988281 L 72.722656 271.988281 L 72.722656 271.1875 L 73.519531 271.1875 L 73.519531 270.390625 L 74.316406 270.390625 L 74.316406 269.59375 L 75.113281 269.59375 L 75.113281 268.796875 L 75.910156 268.796875 L 75.910156 268 L 76.707031 268 L 76.707031 267.203125 L 77.503906 267.203125 L 77.503906 266.40625 L 78.300781 266.40625 L 78.300781 265.609375 L 79.097656 265.609375 L 79.097656 264.8125 L 79.894531 264.8125 L 79.894531 264.015625 L 80.691406 264.015625 L 80.292969 263.21875 C 74.597656 263.398438 68.921875 263.753906 63.238281 264.179688 L 62.171875 264.257812 C 59.234375 264.476562 56.300781 264.699219 53.363281 264.921875 C 51.160156 265.089844 48.953125 265.257812 46.75 265.421875 C 45.730469 265.496094 44.710938 265.574219 43.691406 265.652344 C 36.582031 266.191406 36.582031 266.191406 34.066406 266.007812 L 33.265625 265.609375 C 32.839844 264.753906 32.839844 264.753906 32.421875 263.691406 L 31.996094 262.636719 C 31.671875 261.625 31.671875 261.625 31.671875 260.03125 L 30.875 260.03125 L 30.613281 259.179688 C 29.691406 256.320312 28.601562 253.609375 27.359375 250.875 C 26.890625 249.667969 26.890625 249.667969 26.890625 248.074219 L 26.09375 248.074219 C 25.570312 246.632812 25.296875 245.644531 25.296875 244.089844 L 24.5 244.089844 C 24.335938 243.519531 24.175781 242.945312 24.027344 242.371094 L 23.761719 241.402344 L 23.703125 240.503906 C 24.230469 239.789062 24.230469 239.789062 24.898438 239.308594 L 25.695312 239.308594 L 25.695312 238.511719 L 26.492188 238.511719 L 26.492188 237.714844 L 27.289062 237.714844 L 27.289062 236.914062 L 29.28125 235.71875 L 31.273438 233.726562 L 32.070312 233.726562 L 32.070312 232.929688 L 32.867188 232.929688 L 32.867188 232.132812 L 34.863281 230.9375 L 36.855469 228.945312 L 37.652344 228.945312 L 37.652344 228.148438 L 38.449219 228.148438 L 38.449219 227.351562 L 39.246094 227.351562 L 39.246094 226.554688 C 39.902344 226.144531 40.570312 225.746094 41.238281 225.359375 L 42.433594 224.164062 L 43.230469 224.164062 L 43.230469 223.367188 L 44.027344 223.367188 L 44.027344 222.570312 L 44.824219 222.570312 L 44.824219 221.773438 L 46.816406 220.578125 L 47.890625 219.503906 L 48.808594 218.582031 L 49.605469 218.582031 L 49.605469 217.785156 L 50.40625 217.785156 L 50.40625 216.988281 L 52.398438 215.792969 L 54.390625 213.800781 L 55.1875 213.800781 L 55.1875 213.003906 L 55.984375 213.003906 L 55.984375 212.207031 L 56.78125 212.207031 L 56.78125 211.410156 L 58.375 211.410156 L 58.375 210.613281 L 59.171875 210.613281 L 59.171875 209.019531 L 15.332031 209.019531 L 15.308594 187.523438 L 15.296875 180.726562 C 15.296875 177.996094 15.296875 177.996094 15.296875 176.71875 C 15.296875 175.824219 15.292969 174.925781 15.292969 174.03125 C 15.289062 172.679688 15.289062 171.328125 15.289062 169.972656 L 15.285156 168.757812 C 15.285156 168.394531 15.285156 168.03125 15.285156 167.660156 L 15.285156 166.699219 L 15.332031 165.976562 L 15.730469 165.578125 C 16.285156 165.539062 16.84375 165.519531 17.398438 165.515625 L 18.488281 165.503906 L 19.691406 165.496094 L 20.953125 165.484375 C 22.335938 165.472656 23.71875 165.460938 25.097656 165.453125 L 27.964844 165.429688 C 30.484375 165.40625 33.007812 165.386719 35.527344 165.367188 C 38.097656 165.347656 40.667969 165.324219 43.238281 165.304688 C 48.28125 165.261719 53.328125 165.21875 58.375 165.179688 L 58.375 164.382812 L 57.578125 164.382812 L 57.578125 163.585938 L 56.382812 163.585938 L 56.382812 162.789062 L 55.585938 162.789062 L 55.585938 161.992188 L 54.789062 161.992188 L 54.789062 161.195312 L 53.992188 161.195312 L 53.992188 160.398438 L 52.796875 160.398438 L 52.796875 159.601562 L 52 159.601562 L 52 158.804688 L 50.804688 158.804688 L 50.804688 158.007812 L 50.003906 158.007812 L 50.003906 157.210938 L 49.207031 157.210938 L 49.207031 156.414062 L 48.410156 156.414062 L 48.410156 155.617188 L 47.613281 155.617188 L 47.613281 154.820312 L 46.417969 154.820312 L 46.417969 154.023438 L 45.621094 154.023438 L 45.621094 153.226562 L 44.824219 153.226562 L 44.824219 152.425781 L 43.628906 152.425781 L 43.628906 151.628906 L 42.832031 151.628906 L 42.832031 150.832031 L 42.035156 150.832031 L 42.035156 150.035156 L 41.238281 150.035156 L 41.238281 149.238281 L 40.042969 149.238281 L 40.042969 148.441406 L 39.246094 148.441406 L 39.246094 147.644531 L 38.050781 147.644531 L 38.050781 146.847656 L 37.253906 146.847656 L 37.253906 146.050781 L 36.457031 146.050781 L 36.457031 145.253906 L 35.660156 145.253906 L 35.660156 144.457031 L 34.464844 144.457031 L 34.464844 143.660156 L 33.667969 143.660156 L 33.667969 142.863281 L 32.867188 142.863281 L 32.867188 142.066406 L 31.671875 142.066406 L 31.671875 141.269531 L 30.875 141.269531 L 30.875 140.472656 L 30.078125 140.472656 L 30.078125 139.675781 L 29.28125 139.675781 L 29.28125 138.878906 L 28.085938 138.878906 L 28.085938 138.082031 L 27.289062 138.082031 L 27.289062 137.285156 L 26.492188 137.285156 L 26.492188 136.488281 L 25.296875 136.488281 L 25.296875 135.691406 L 24.5 135.691406 L 24.5 134.890625 L 23.703125 134.890625 C 23.871094 132.816406 24.664062 131.191406 25.539062 129.339844 C 26.492188 127.246094 27.273438 125.085938 28.085938 122.9375 C 28.882812 120.871094 29.722656 118.84375 30.652344 116.835938 C 31.625 114.726562 32.453125 112.578125 33.261719 110.40625 C 33.667969 109.386719 33.667969 109.386719 34.066406 108.988281 C 37.457031 108.867188 40.828125 109.152344 44.207031 109.40625 C 45.273438 109.488281 46.339844 109.566406 47.40625 109.644531 L 52.148438 109.992188 C 56.585938 110.316406 61.027344 110.632812 65.464844 110.945312 C 66.976562 111.054688 68.484375 111.164062 69.996094 111.269531 L 72.8125 111.472656 L 74.105469 111.566406 C 76.308594 111.71875 78.484375 111.808594 80.691406 111.777344 L 80.691406 110.980469 L 79.894531 110.980469 L 79.894531 110.183594 L 79.097656 110.183594 L 79.097656 109.386719 L 78.300781 109.386719 L 78.300781 108.589844 L 77.503906 108.589844 L 77.503906 107.792969 L 76.707031 107.792969 L 76.707031 106.996094 L 75.910156 106.996094 L 75.910156 106.199219 L 75.113281 106.199219 L 75.113281 105.402344 L 74.316406 105.402344 L 74.316406 104.605469 L 73.519531 104.605469 L 73.519531 103.808594 L 72.722656 103.808594 L 72.722656 103.011719 L 71.925781 103.011719 L 71.925781 102.214844 L 71.128906 102.214844 L 71.128906 101.414062 L 70.332031 101.414062 L 70.332031 100.617188 L 69.535156 100.617188 L 69.535156 99.820312 L 68.738281 99.820312 L 68.738281 99.023438 L 67.941406 99.023438 L 67.941406 98.226562 L 67.140625 98.226562 L 67.140625 97.429688 L 66.34375 97.429688 L 66.34375 96.632812 L 65.546875 96.632812 L 65.546875 95.835938 L 64.75 95.835938 L 64.75 95.039062 L 63.953125 95.039062 L 63.953125 94.242188 L 63.15625 94.242188 L 63.15625 93.445312 L 62.359375 93.445312 L 62.359375 92.648438 L 61.5625 92.648438 L 61.5625 91.851562 L 60.765625 91.851562 L 60.765625 91.054688 L 59.96875 91.054688 L 59.96875 90.257812 L 59.171875 90.257812 L 59.171875 89.460938 L 58.375 89.460938 L 58.375 88.664062 L 57.578125 88.664062 L 57.578125 87.867188 L 56.78125 87.867188 L 56.78125 87.070312 L 55.984375 87.070312 L 55.984375 86.273438 L 55.1875 86.273438 L 55.1875 85.476562 L 54.390625 85.476562 L 54.390625 84.679688 L 53.59375 84.679688 L 53.59375 83.878906 L 52.796875 83.878906 L 52.796875 83.082031 L 52 83.082031 L 52 82.285156 L 51.203125 82.285156 L 50.804688 81.089844 C 54.71875 77.128906 58.640625 73.171875 62.566406 69.222656 C 64.390625 67.390625 66.210938 65.554688 68.03125 63.714844 C 69.785156 61.9375 71.539062 60.167969 73.300781 58.402344 C 73.972656 57.726562 74.644531 57.050781 75.3125 56.371094 C 76.246094 55.421875 77.1875 54.480469 78.128906 53.539062 L 78.96875 52.675781 L 79.75 51.90625 L 80.421875 51.226562 L 81.089844 50.804688 C 81.972656 50.933594 81.972656 50.933594 82.683594 51.203125 L 82.683594 52 L 83.480469 52 L 83.480469 52.796875 L 84.277344 52.796875 L 84.277344 53.59375 L 85.078125 53.59375 L 85.078125 54.390625 L 85.875 54.390625 L 85.875 55.1875 L 86.671875 55.1875 L 86.671875 55.984375 L 87.46875 55.984375 L 87.46875 56.78125 L 88.265625 56.78125 L 88.265625 57.578125 L 89.0625 57.578125 L 89.0625 58.375 L 89.859375 58.375 L 89.859375 59.171875 L 90.65625 59.171875 L 90.65625 59.96875 L 91.453125 59.96875 L 91.453125 60.765625 L 92.25 60.765625 L 92.25 61.5625 L 93.046875 61.5625 L 93.046875 62.359375 L 93.84375 62.359375 L 93.84375 63.15625 L 94.640625 63.15625 L 94.640625 63.953125 L 95.4375 63.953125 L 95.4375 64.75 L 96.234375 64.75 L 96.234375 65.546875 L 97.03125 65.546875 L 97.03125 66.34375 L 97.828125 66.34375 L 97.828125 67.140625 L 98.625 67.140625 L 98.625 67.941406 L 99.421875 67.941406 L 99.421875 68.738281 L 100.21875 68.738281 L 100.21875 69.535156 L 101.015625 69.535156 L 101.015625 70.332031 L 101.816406 70.332031 L 101.816406 71.128906 L 102.613281 71.128906 L 102.613281 71.925781 L 103.410156 71.925781 L 103.410156 72.722656 L 104.207031 72.722656 L 104.207031 73.519531 L 105.003906 73.519531 L 105.003906 74.316406 L 105.800781 74.316406 L 105.800781 75.113281 L 106.597656 75.113281 L 106.597656 75.910156 L 107.394531 75.910156 L 107.394531 76.707031 L 108.191406 76.707031 L 108.191406 77.503906 L 108.988281 77.503906 L 108.988281 78.300781 L 109.785156 78.300781 L 109.785156 79.097656 L 110.582031 79.097656 L 110.582031 79.894531 L 111.378906 79.894531 L 111.378906 80.691406 L 112.175781 80.691406 C 112 74.785156 111.644531 68.902344 111.214844 63.011719 L 111.136719 61.917969 C 110.945312 59.292969 110.75 56.667969 110.558594 54.039062 C 110.363281 51.394531 110.167969 48.746094 109.972656 46.097656 C 109.898438 45.054688 109.820312 44.007812 109.742188 42.960938 C 109.511719 39.859375 109.320312 36.78125 109.386719 33.667969 C 112.113281 32.382812 114.867188 31.242188 117.6875 30.175781 C 118.835938 29.726562 119.949219 29.234375 121.066406 28.710938 C 123.121094 27.753906 125.222656 26.96875 127.347656 26.191406 C 129.363281 25.445312 131.308594 24.597656 133.242188 23.65625 C 134.09375 23.304688 134.09375 23.304688 135.289062 23.304688 L 135.289062 24.101562 L 136.089844 24.101562 L 136.488281 25.695312 L 137.285156 25.695312 L 137.285156 26.492188 L 138.082031 26.492188 L 138.480469 28.085938 L 139.277344 28.085938 L 139.277344 28.882812 L 140.074219 28.882812 L 140.074219 29.679688 L 140.871094 29.679688 L 141.269531 31.273438 L 142.066406 31.273438 L 142.066406 32.070312 L 142.863281 32.070312 L 142.863281 32.867188 L 143.660156 32.867188 L 144.058594 34.464844 L 144.855469 34.464844 L 144.855469 35.261719 L 145.652344 35.261719 L 145.652344 36.058594 L 146.449219 36.058594 L 146.847656 37.652344 L 147.644531 37.652344 L 147.644531 38.449219 L 148.441406 38.449219 L 148.839844 40.042969 L 149.636719 40.042969 L 149.636719 40.839844 L 150.433594 40.839844 L 150.433594 41.636719 L 151.230469 41.636719 L 151.628906 43.230469 L 152.425781 43.230469 L 152.425781 44.027344 L 153.226562 44.027344 L 153.226562 44.824219 L 154.023438 44.824219 L 154.421875 46.417969 L 155.21875 46.417969 L 155.21875 47.214844 L 156.015625 47.214844 L 156.015625 48.011719 L 156.8125 48.011719 L 157.210938 49.605469 L 158.007812 49.605469 L 158.007812 50.402344 L 158.804688 50.402344 L 159.203125 52 L 160 52 L 160 52.796875 L 160.796875 52.796875 L 160.796875 53.59375 L 161.59375 53.59375 L 161.992188 55.1875 L 162.789062 55.1875 L 162.789062 55.984375 L 163.585938 55.984375 L 163.585938 56.78125 L 164.382812 56.78125 L 164.78125 58.375 L 165.578125 58.375 Z M 126.023438 39.570312 L 125.328125 40.042969 C 123.5 45.523438 125.234375 53.1875 125.652344 58.839844 C 125.753906 60.230469 125.855469 61.617188 125.953125 63.007812 C 126.144531 65.628906 126.335938 68.246094 126.527344 70.867188 C 126.746094 73.851562 126.960938 76.839844 127.175781 79.828125 C 127.621094 85.960938 128.066406 92.09375 128.515625 98.226562 L 127.71875 98.226562 L 127.71875 99.023438 L 126.921875 99.023438 L 126.921875 99.820312 L 126.125 99.820312 L 126.125 100.617188 L 125.328125 100.617188 L 125.328125 101.414062 L 124.53125 101.414062 L 124.53125 102.214844 L 123.734375 102.214844 L 124.132812 103.410156 L 125.617188 103.570312 L 128.546875 103.886719 C 130.273438 104.078125 131.984375 104.296875 133.695312 104.605469 L 133.695312 105.402344 L 135.289062 105.402344 L 135.289062 106.199219 L 136.886719 106.199219 L 136.886719 106.996094 L 138.082031 106.996094 L 138.082031 107.792969 L 139.277344 107.792969 L 139.277344 108.589844 L 140.074219 108.589844 L 140.074219 109.386719 L 140.871094 109.386719 L 140.871094 110.183594 L 141.667969 110.183594 L 141.667969 110.980469 L 142.464844 110.980469 L 143.261719 113.371094 L 144.058594 113.371094 L 144.40625 114.417969 C 144.6875 115.265625 144.976562 116.113281 145.269531 116.957031 C 145.402344 117.351562 145.539062 117.746094 145.675781 118.152344 L 146.089844 119.351562 C 147.328125 123.464844 146.925781 127.316406 146.050781 131.472656 C 145.597656 133.101562 144.96875 134.417969 144.054688 135.835938 L 143.660156 136.488281 L 143.660156 137.285156 L 142.863281 137.285156 L 142.414062 138.082031 C 141.09375 140.195312 139.484375 141.839844 137.363281 143.160156 C 133.410156 145.222656 129.890625 146.144531 125.453125 146.175781 L 124.492188 146.183594 C 122.386719 146.15625 120.582031 145.796875 118.554688 145.253906 L 116.957031 145.253906 L 116.957031 144.457031 L 115.363281 144.457031 L 115.363281 143.660156 L 113.769531 143.660156 L 113.769531 142.863281 L 112.972656 142.863281 L 112.972656 142.066406 L 111.777344 142.066406 L 111.777344 141.269531 L 110.582031 141.269531 L 110.582031 140.472656 L 109.785156 140.472656 L 109.386719 138.878906 L 108.589844 138.878906 L 108.191406 137.285156 L 107.394531 137.285156 L 106.597656 134.890625 L 105.800781 134.890625 L 105.636719 133.835938 C 105.421875 132.617188 105.132812 131.453125 104.804688 130.257812 C 104.179688 127.828125 103.9375 125.441406 103.808594 122.9375 L 103.011719 122.9375 L 103.011719 123.734375 L 102.214844 123.734375 L 102.214844 124.53125 L 101.417969 124.53125 L 101.417969 125.328125 L 100.617188 125.328125 L 100.617188 126.125 L 99.820312 126.125 L 99.820312 126.921875 L 99.023438 126.921875 L 99.023438 127.71875 C 96.492188 128.21875 94.125 128.039062 91.5625 127.832031 L 90.15625 127.726562 C 89.152344 127.652344 88.148438 127.574219 87.144531 127.496094 C 85.546875 127.371094 83.953125 127.25 82.355469 127.128906 C 79.25 126.894531 76.140625 126.65625 73.035156 126.414062 C 69.097656 126.113281 65.160156 125.808594 61.21875 125.511719 C 59.386719 125.371094 57.554688 125.230469 55.722656 125.085938 C 50.753906 124.707031 45.824219 124.402344 40.839844 124.53125 L 40.839844 125.328125 L 40.042969 125.328125 L 39.820312 126.871094 L 39.691406 127.742188 L 39.644531 128.515625 L 40.042969 129.3125 L 40.839844 129.3125 L 40.839844 130.109375 L 42.035156 130.109375 L 42.035156 130.90625 L 42.832031 130.90625 L 42.832031 131.703125 L 43.628906 131.703125 L 43.628906 132.5 L 44.425781 132.5 L 44.425781 133.296875 L 45.222656 133.296875 L 45.222656 134.09375 L 46.417969 134.09375 L 46.417969 134.890625 L 47.214844 134.890625 L 47.214844 135.691406 L 48.410156 135.691406 L 48.410156 136.488281 L 49.207031 136.488281 L 49.207031 137.285156 L 50.003906 137.285156 L 50.003906 138.082031 L 50.804688 138.082031 L 50.804688 138.878906 L 52 138.878906 L 52 139.675781 L 52.796875 139.675781 L 52.796875 140.472656 L 53.992188 140.472656 L 53.992188 141.269531 L 54.789062 141.269531 L 54.789062 142.066406 L 55.585938 142.066406 L 55.585938 142.863281 L 56.382812 142.863281 L 56.382812 143.660156 L 57.578125 143.660156 L 57.578125 144.457031 L 58.375 144.457031 L 58.375 145.253906 L 59.171875 145.253906 L 59.171875 146.050781 L 60.367188 146.050781 L 60.367188 146.847656 L 61.164062 146.847656 L 61.164062 147.644531 L 61.960938 147.644531 L 61.960938 148.441406 L 63.15625 148.441406 L 63.15625 149.238281 L 63.953125 149.238281 L 63.953125 150.035156 L 64.75 150.035156 L 64.75 150.832031 L 65.945312 150.832031 L 65.945312 151.628906 L 66.742188 151.628906 L 66.742188 152.425781 L 67.542969 152.425781 L 67.542969 153.226562 L 68.339844 153.226562 L 68.339844 154.023438 L 69.535156 154.023438 L 69.535156 154.820312 L 70.332031 154.820312 L 70.332031 155.617188 L 71.128906 155.617188 L 71.128906 156.414062 L 72.324219 156.414062 L 72.324219 157.210938 L 73.121094 157.210938 L 73.121094 158.007812 L 73.917969 158.007812 L 73.917969 158.804688 L 75.113281 158.804688 L 75.113281 159.601562 L 75.910156 159.601562 L 75.910156 160.398438 L 76.707031 160.398438 L 76.707031 161.195312 L 77.902344 161.195312 L 77.902344 161.992188 L 78.699219 161.992188 L 78.699219 162.789062 L 79.496094 162.789062 L 79.496094 163.585938 L 80.292969 163.585938 L 80.292969 164.382812 L 81.488281 164.382812 L 81.488281 165.179688 L 82.285156 165.179688 L 82.285156 173.152344 L 83.480469 173.152344 C 84.210938 172.550781 84.210938 172.550781 84.902344 171.78125 C 86.203125 170.394531 86.203125 170.394531 87.070312 169.964844 L 87.070312 169.164062 L 87.769531 169.015625 C 88.667969 168.765625 89.386719 168.429688 90.207031 167.996094 C 94.226562 165.945312 98.15625 165.757812 102.613281 165.976562 C 103.707031 166.175781 104.726562 166.46875 105.800781 166.773438 C 107.128906 166.84375 107.128906 166.84375 108.191406 166.773438 L 108.191406 167.570312 L 109.785156 167.570312 L 109.785156 168.367188 L 111.378906 168.367188 L 111.378906 169.164062 L 112.175781 169.164062 L 112.175781 169.964844 L 113.371094 169.964844 L 113.371094 170.761719 L 114.167969 170.761719 L 114.167969 171.558594 L 114.964844 171.558594 L 114.964844 172.355469 L 115.761719 172.355469 L 115.761719 173.152344 L 116.558594 173.152344 L 116.957031 174.746094 L 117.753906 174.746094 L 118.554688 177.136719 L 119.351562 177.136719 L 119.5 178.132812 C 119.683594 179.15625 119.90625 180.167969 120.171875 181.171875 C 120.546875 182.714844 120.546875 182.714844 120.546875 184.308594 L 121.34375 184.308594 C 121.074219 189.640625 120.664062 193.992188 117.855469 198.605469 L 117.355469 199.453125 L 117.355469 200.25 L 116.558594 200.25 L 116.039062 201.171875 C 115.28125 202.375 114.585938 202.75 113.371094 203.4375 L 113.371094 204.238281 L 112.71875 204.558594 C 112.039062 204.902344 111.363281 205.25 110.6875 205.605469 L 109.484375 206.230469 L 108.296875 206.851562 C 105.382812 208.136719 102.765625 208.347656 99.621094 208.320312 L 98.539062 208.332031 C 96.296875 208.324219 94.40625 208.015625 92.25 207.425781 L 90.65625 207.425781 L 90.65625 206.628906 L 89.0625 206.628906 L 89.0625 205.832031 L 87.46875 205.832031 L 87.46875 205.035156 L 86.671875 205.035156 L 86.671875 204.238281 L 85.476562 204.238281 L 85.476562 203.4375 L 84.679688 203.4375 L 84.679688 202.640625 L 83.878906 202.640625 L 83.878906 201.84375 L 83.082031 201.84375 L 83.082031 201.046875 L 82.285156 201.046875 L 82.285156 209.816406 L 81.488281 209.816406 L 81.488281 210.613281 L 80.691406 210.613281 L 80.691406 211.410156 L 80.019531 211.683594 C 79.015625 212.199219 79.015625 212.199219 78.078125 213.226562 C 77.105469 214.199219 77.105469 214.199219 75.910156 214.597656 L 75.910156 215.394531 L 75.113281 215.394531 L 75.113281 216.191406 L 74.441406 216.464844 C 73.433594 216.984375 73.433594 216.984375 72.496094 218.011719 C 71.527344 218.980469 71.527344 218.980469 70.332031 219.378906 L 70.332031 220.175781 L 69.535156 220.175781 L 69.535156 220.976562 L 68.738281 220.976562 L 68.738281 221.773438 L 68.015625 222.097656 C 67.128906 222.523438 67.128906 222.523438 66.519531 223.191406 C 65.945312 223.765625 65.945312 223.765625 64.75 224.164062 L 64.75 224.960938 L 63.953125 224.960938 L 63.953125 225.757812 L 63.15625 225.757812 L 63.15625 226.554688 L 62.484375 226.828125 C 61.480469 227.34375 61.480469 227.34375 60.542969 228.371094 C 59.570312 229.34375 59.570312 229.34375 58.375 229.742188 L 58.375 230.539062 L 57.578125 230.539062 L 57.578125 231.335938 L 56.78125 231.335938 L 56.78125 232.132812 L 56.058594 232.457031 C 55.175781 232.882812 55.175781 232.882812 54.5625 233.554688 C 53.992188 234.125 53.992188 234.125 52.796875 234.523438 L 52.796875 235.320312 L 52 235.320312 L 52 236.117188 L 51.203125 236.117188 L 51.203125 236.914062 L 50.527344 237.191406 C 49.523438 237.707031 49.523438 237.707031 48.585938 238.734375 C 47.613281 239.707031 47.613281 239.707031 46.417969 240.105469 L 46.417969 240.902344 L 45.621094 240.902344 L 45.621094 241.699219 L 44.914062 242.007812 C 43.953125 242.539062 43.355469 243.113281 42.609375 243.914062 C 41.703125 244.886719 41.332031 245.253906 40.042969 245.683594 L 39.820312 247.226562 L 39.691406 248.097656 L 39.644531 248.871094 L 40.042969 249.667969 L 40.839844 249.667969 L 40.839844 250.464844 C 46.359375 250.570312 51.808594 250.292969 57.308594 249.875 C 58.753906 249.765625 60.203125 249.660156 61.648438 249.554688 C 64.199219 249.367188 66.75 249.179688 69.296875 248.988281 C 73.382812 248.683594 77.46875 248.378906 81.554688 248.082031 C 82.972656 247.976562 84.386719 247.871094 85.804688 247.765625 C 90.085938 247.445312 94.328125 247.15625 98.625 247.277344 L 98.625 248.074219 L 99.421875 248.074219 L 99.421875 248.871094 L 100.21875 248.871094 L 100.21875 249.667969 L 101.015625 249.667969 L 101.015625 250.464844 L 101.816406 250.464844 L 101.816406 251.261719 L 102.613281 251.261719 L 102.613281 252.058594 L 103.808594 252.457031 L 103.851562 251.101562 C 104.027344 246.777344 104.585938 243.425781 106.6875 239.597656 C 107.078125 238.851562 107.078125 238.851562 106.996094 237.714844 L 107.792969 237.714844 C 108.445312 237.066406 108.445312 237.066406 109.113281 236.242188 L 109.867188 235.363281 L 110.582031 234.523438 C 111.9375 233.035156 113.121094 232.152344 114.964844 231.335938 L 114.964844 230.539062 L 115.667969 230.394531 L 116.609375 230.191406 L 117.535156 229.996094 C 118.585938 229.75 118.585938 229.75 119.703125 229.335938 C 123.542969 228.128906 127.441406 228.53125 131.304688 229.34375 C 132.101562 229.480469 132.898438 229.613281 133.695312 229.742188 L 133.695312 230.539062 L 135.289062 230.539062 L 135.289062 231.335938 L 136.886719 231.335938 L 136.886719 232.132812 L 138.082031 232.132812 L 138.082031 232.929688 L 139.277344 232.929688 L 139.277344 233.726562 L 140.074219 233.726562 L 140.074219 234.523438 L 140.871094 234.523438 L 140.871094 235.320312 L 141.667969 235.320312 L 142.066406 236.914062 L 142.863281 236.914062 L 143.238281 238.0625 C 143.609375 239.25 143.609375 239.25 144.058594 240.105469 L 144.855469 240.105469 L 144.980469 241.050781 C 145.199219 242.207031 145.480469 243.121094 145.878906 244.214844 C 146.914062 247.628906 146.808594 251.324219 146.160156 254.804688 C 145.417969 257.589844 144.367188 259.980469 142.863281 262.421875 C 142.59375 262.949219 142.324219 263.480469 142.066406 264.015625 L 141.269531 264.015625 L 141.269531 264.8125 L 140.472656 264.8125 L 140.472656 265.609375 L 139.675781 265.609375 L 139.675781 266.40625 L 139.050781 266.679688 C 138.214844 267.132812 137.558594 267.597656 136.8125 268.175781 C 134.203125 270.0625 130.875 270.792969 127.71875 271.1875 C 126.121094 271.246094 124.535156 271.238281 122.9375 271.1875 L 123.335938 272.785156 L 124.132812 272.785156 L 124.132812 273.582031 L 124.929688 273.582031 L 124.929688 274.378906 L 125.726562 274.378906 L 125.726562 275.175781 L 126.523438 275.175781 L 126.523438 275.972656 L 127.320312 275.972656 L 127.320312 276.769531 L 128.117188 276.769531 C 128.289062 282.09375 127.824219 287.375 127.417969 292.679688 C 127.289062 294.34375 127.164062 296.011719 127.042969 297.679688 C 126.691406 302.414062 126.335938 307.148438 125.972656 311.882812 C 125.769531 314.507812 125.574219 317.136719 125.382812 319.761719 C 125.261719 321.417969 125.136719 323.074219 125.003906 324.726562 C 124.90625 325.996094 124.816406 327.265625 124.722656 328.539062 L 124.609375 329.917969 C 124.429688 332.078125 124.429688 332.078125 124.785156 334.1875 C 125.125 334.914062 125.125 334.914062 125.726562 335.75 C 126.867188 335.847656 127.796875 335.917969 128.914062 335.75 C 130.042969 334.886719 130.042969 334.886719 130.90625 333.757812 L 131.828125 332.910156 L 132.5 332.164062 L 132.5 330.96875 L 133.296875 330.96875 L 133.296875 330.171875 L 134.09375 330.171875 L 134.09375 329.375 L 134.890625 329.375 C 135.601562 328.71875 135.601562 328.71875 136.3125 327.878906 L 137.0625 327.039062 C 137.675781 326.195312 137.914062 325.613281 138.082031 324.59375 L 138.878906 324.59375 L 138.878906 323.796875 L 139.675781 323.796875 L 139.675781 323 L 140.472656 323 C 141.101562 322.421875 141.101562 322.421875 141.71875 321.679688 L 142.367188 320.933594 L 142.863281 320.207031 L 142.863281 319.011719 L 143.660156 319.011719 L 143.660156 318.214844 L 144.457031 318.214844 L 144.457031 317.417969 L 145.253906 317.417969 C 145.964844 316.765625 145.964844 316.765625 146.675781 315.925781 L 147.421875 315.082031 C 148.039062 314.238281 148.273438 313.65625 148.441406 312.636719 L 149.238281 312.636719 L 149.238281 311.839844 L 150.035156 311.839844 L 150.035156 311.042969 L 150.832031 311.042969 C 151.464844 310.464844 151.464844 310.464844 152.078125 309.722656 L 152.730469 308.980469 L 153.226562 308.253906 L 153.226562 307.058594 L 154.023438 307.058594 L 154.023438 306.261719 L 154.820312 306.261719 L 154.820312 305.460938 L 155.617188 305.460938 C 156.324219 304.808594 156.324219 304.808594 157.035156 303.96875 L 157.785156 303.128906 C 158.398438 302.28125 158.636719 301.699219 158.804688 300.679688 L 159.601562 300.679688 L 159.601562 299.882812 L 160.398438 299.882812 L 160.398438 299.085938 L 161.195312 299.085938 C 161.90625 298.429688 161.90625 298.429688 162.617188 297.59375 L 163.363281 296.75 C 163.980469 295.90625 164.214844 295.324219 164.382812 294.304688 L 165.179688 294.304688 L 165.179688 293.507812 L 173.550781 293.109375 L 173.152344 291.914062 L 172.355469 291.914062 L 172.355469 291.117188 L 171.558594 291.117188 L 171.558594 290.320312 L 170.761719 290.320312 L 170.363281 288.726562 L 169.5625 288.726562 L 168.765625 286.332031 L 167.96875 286.332031 L 167.96875 284.738281 L 167.171875 284.738281 L 167.023438 283.792969 C 166.890625 283.019531 166.75 282.246094 166.570312 281.484375 C 165.613281 277.316406 165.730469 273.351562 166.773438 269.207031 C 167.265625 267.71875 167.929688 266.449219 168.773438 265.132812 C 169.261719 264.375 169.261719 264.375 169.164062 263.21875 L 169.964844 263.21875 C 170.613281 262.558594 170.613281 262.558594 171.285156 261.722656 C 172.347656 260.460938 173.445312 259.460938 174.746094 258.4375 L 174.746094 257.640625 L 175.445312 257.488281 C 176.34375 257.238281 177.0625 256.90625 177.882812 256.46875 C 181.261719 254.746094 184.507812 254.355469 188.269531 254.386719 C 190.9375 254.527344 193.34375 255.203125 195.867188 256.046875 L 197.460938 256.046875 L 197.460938 256.84375 L 198.65625 256.84375 L 198.65625 257.640625 L 199.851562 257.640625 L 199.851562 258.4375 L 201.046875 258.4375 L 201.046875 259.234375 L 201.84375 259.234375 L 201.84375 260.03125 L 202.640625 260.03125 L 202.640625 260.828125 L 203.4375 260.828125 L 203.839844 262.421875 L 204.636719 262.421875 L 204.636719 263.21875 L 205.433594 263.21875 L 205.730469 264.164062 C 206.128906 265.316406 206.5625 266.425781 207.027344 267.554688 C 208.671875 271.699219 208.949219 275.417969 208.511719 279.878906 C 208.070312 282.488281 207.003906 284.773438 205.832031 287.128906 L 205.371094 288.054688 L 205.035156 288.726562 L 204.238281 288.726562 L 203.714844 289.597656 C 202.972656 290.832031 202.0625 291.695312 201.046875 292.710938 L 201.046875 293.507812 L 210.214844 293.507812 L 210.613281 295.101562 L 211.410156 295.101562 L 211.410156 295.898438 L 212.207031 295.898438 L 212.207031 296.695312 L 213.003906 296.695312 L 213.402344 298.289062 L 214.199219 298.289062 L 214.199219 299.085938 L 214.996094 299.085938 L 215.394531 300.679688 L 216.191406 300.679688 L 216.191406 301.476562 L 216.988281 301.476562 L 217.386719 303.070312 L 218.183594 303.070312 L 218.183594 303.867188 L 218.980469 303.867188 L 218.980469 304.664062 L 219.777344 304.664062 L 219.777344 305.460938 L 220.578125 305.460938 L 220.976562 307.058594 L 221.773438 307.058594 L 221.773438 307.855469 L 222.570312 307.855469 L 222.570312 308.652344 L 223.367188 308.652344 L 223.765625 310.246094 L 224.5625 310.246094 L 224.5625 311.042969 L 225.359375 311.042969 L 225.757812 312.636719 L 226.554688 312.636719 L 226.554688 313.433594 L 227.351562 313.433594 L 227.75 315.027344 L 228.546875 315.027344 L 228.546875 315.824219 L 229.34375 315.824219 L 229.34375 316.621094 L 230.140625 316.621094 L 230.140625 317.417969 L 230.9375 317.417969 L 231.335938 319.011719 L 232.132812 319.011719 L 232.132812 319.808594 L 232.929688 319.808594 L 232.929688 320.605469 L 233.726562 320.605469 L 234.125 322.199219 L 234.921875 322.199219 L 234.921875 323 L 235.71875 323 L 236.117188 324.59375 L 236.914062 324.59375 L 236.914062 325.390625 L 237.714844 325.390625 L 237.714844 326.1875 L 238.511719 326.1875 L 238.910156 327.78125 L 239.707031 327.78125 L 239.707031 328.578125 L 240.503906 328.578125 L 240.503906 329.375 L 241.300781 329.375 L 241.699219 330.96875 L 242.496094 330.96875 L 242.496094 331.765625 L 243.292969 331.765625 L 243.292969 332.5625 L 244.089844 332.5625 L 244.488281 334.15625 L 245.285156 334.15625 L 245.285156 334.953125 L 246.082031 334.953125 L 246.082031 335.75 L 248.457031 335.867188 C 249.289062 335.8125 249.289062 335.8125 249.914062 335.292969 L 250.464844 334.554688 C 250.625 333.457031 250.625 333.457031 250.5625 332.214844 L 250.527344 330.804688 C 250.433594 328.601562 250.304688 326.402344 250.144531 324.203125 L 250.039062 322.722656 C 249.945312 321.402344 249.851562 320.082031 249.753906 318.761719 C 249.65625 317.375 249.554688 315.984375 249.457031 314.597656 C 249.289062 312.269531 249.125 309.945312 248.957031 307.617188 C 248.761719 304.929688 248.570312 302.242188 248.378906 299.554688 C 248.195312 296.960938 248.007812 294.367188 247.820312 291.773438 C 247.742188 290.671875 247.664062 289.570312 247.585938 288.46875 C 247.476562 286.9375 247.367188 285.402344 247.253906 283.867188 L 247.15625 282.488281 L 247.0625 281.222656 L 246.984375 280.125 C 246.886719 279.238281 246.722656 278.425781 246.480469 277.566406 L 247.277344 277.566406 L 247.277344 276.769531 L 248.074219 276.769531 L 248.074219 275.972656 L 248.871094 275.972656 L 248.871094 275.175781 L 249.667969 275.175781 L 249.667969 274.378906 L 250.464844 274.378906 L 250.464844 273.582031 L 251.261719 273.582031 L 251.261719 272.785156 L 252.058594 272.785156 L 252.058594 271.1875 L 243.691406 271.1875 L 243.691406 270.390625 L 241.300781 270.390625 L 241.300781 269.59375 L 239.707031 269.59375 L 239.707031 268.796875 L 238.113281 268.796875 L 238.113281 268 L 237.3125 268 L 237.3125 267.203125 L 236.117188 267.203125 L 236.117188 266.40625 L 234.921875 266.40625 L 234.921875 265.609375 L 234.125 265.609375 L 233.726562 264.015625 L 232.929688 264.015625 L 232.929688 263.21875 L 232.132812 263.21875 L 231.761719 262.074219 C 231.386719 260.882812 231.386719 260.882812 230.9375 260.03125 L 230.140625 260.03125 L 229.980469 258.972656 C 229.765625 257.761719 229.460938 256.628906 229.121094 255.449219 C 228.203125 251.832031 228.164062 247.96875 228.980469 244.324219 C 229.621094 242.507812 230.585938 240.875 231.550781 239.222656 C 232.226562 238.144531 232.226562 238.144531 232.132812 236.914062 L 232.929688 236.914062 L 232.929688 236.117188 L 233.726562 236.117188 C 234.589844 235.386719 234.589844 235.386719 235.320312 234.523438 L 235.320312 233.726562 L 236.117188 233.726562 L 236.117188 232.929688 L 236.765625 232.832031 C 237.789062 232.507812 238.5 231.988281 239.375 231.382812 C 242.113281 229.714844 244.976562 229.015625 248.152344 228.898438 C 250.726562 228.847656 253.105469 228.953125 255.613281 229.566406 C 256.5625 229.796875 256.5625 229.796875 258.039062 229.742188 L 258.039062 230.539062 L 259.632812 230.539062 L 259.632812 231.335938 L 261.226562 231.335938 L 261.226562 232.132812 L 262.421875 232.132812 L 262.421875 232.929688 L 263.617188 232.929688 L 263.617188 233.726562 L 264.414062 233.726562 L 264.414062 234.523438 L 265.210938 234.523438 L 265.210938 235.320312 L 266.007812 235.320312 L 266.40625 236.914062 L 267.203125 236.914062 L 267.601562 238.511719 L 268.398438 238.511719 L 268.746094 239.570312 C 269.015625 240.375 269.304688 241.167969 269.609375 241.957031 C 270.878906 245.324219 271.097656 248.5 271.1875 252.058594 L 272.386719 252.058594 C 273.335938 251.0625 274.246094 250.050781 275.105469 248.976562 C 275.761719 248.25 276.316406 247.773438 277.167969 247.277344 C 278.199219 247.164062 278.199219 247.164062 279.367188 247.195312 L 280.65625 247.222656 C 282.597656 247.304688 284.527344 247.421875 286.464844 247.570312 L 287.746094 247.664062 C 288.65625 247.730469 289.566406 247.800781 290.476562 247.867188 C 291.925781 247.976562 293.375 248.082031 294.824219 248.1875 C 298.941406 248.492188 303.058594 248.796875 307.175781 249.105469 C 309.703125 249.292969 312.230469 249.476562 314.757812 249.660156 C 315.714844 249.730469 316.667969 249.804688 317.621094 249.875 C 322.125 250.214844 326.625 250.53125 331.144531 250.585938 L 332.144531 250.605469 C 333.160156 250.621094 333.160156 250.621094 334.554688 250.464844 C 335.28125 249.980469 335.28125 249.980469 335.75 249.269531 C 335.660156 247.953125 335.546875 246.871094 334.953125 245.683594 L 334.15625 245.683594 L 334.15625 244.886719 L 333.359375 244.886719 L 333.359375 244.089844 L 332.5625 244.089844 L 332.5625 243.292969 L 331.367188 243.292969 L 331.367188 242.496094 L 330.570312 242.496094 L 330.570312 241.699219 L 329.773438 241.699219 L 329.773438 240.902344 L 328.976562 240.902344 L 328.976562 240.105469 L 327.78125 240.105469 L 327.78125 239.308594 L 326.984375 239.308594 L 326.984375 238.511719 L 326.1875 238.511719 L 326.1875 237.710938 L 324.992188 237.710938 L 324.992188 236.914062 L 324.195312 236.914062 L 324.195312 236.117188 L 323.398438 236.117188 L 323.398438 235.320312 L 322.199219 235.320312 L 322.199219 234.523438 L 321.402344 234.523438 L 321.402344 233.726562 L 320.605469 233.726562 L 320.605469 232.929688 L 319.410156 232.929688 L 319.410156 232.132812 L 318.613281 232.132812 L 318.613281 231.335938 L 317.816406 231.335938 L 317.816406 230.539062 L 317.019531 230.539062 L 317.019531 229.742188 L 315.824219 229.742188 L 315.824219 228.945312 L 315.027344 228.945312 L 315.027344 228.148438 L 314.230469 228.148438 L 314.230469 227.351562 L 313.035156 227.351562 L 313.035156 226.554688 L 312.238281 226.554688 L 312.238281 225.757812 L 311.441406 225.757812 L 311.441406 224.960938 L 310.644531 224.960938 L 310.644531 224.164062 L 309.449219 224.164062 L 309.449219 223.367188 L 308.652344 223.367188 L 308.652344 222.570312 L 307.855469 222.570312 L 307.855469 221.773438 L 306.660156 221.773438 L 306.660156 220.976562 L 305.863281 220.976562 L 305.863281 220.175781 L 305.0625 220.175781 L 305.0625 219.378906 L 304.265625 219.378906 L 304.265625 218.582031 L 303.070312 218.582031 L 303.070312 217.785156 L 302.273438 217.785156 L 302.273438 216.988281 L 301.078125 216.988281 L 301.078125 216.191406 L 300.28125 216.191406 L 300.28125 215.394531 L 299.484375 215.394531 L 299.484375 214.597656 L 298.6875 214.597656 L 298.6875 213.800781 L 297.492188 213.800781 L 297.492188 213.003906 L 296.695312 213.003906 L 296.695312 212.207031 L 295.898438 212.207031 L 295.898438 211.410156 L 294.703125 211.410156 L 294.703125 210.613281 L 293.90625 210.613281 C 293.515625 209.441406 293.460938 208.691406 293.46875 207.46875 L 293.472656 206.335938 L 293.480469 205.160156 L 293.488281 203.964844 C 293.492188 202.992188 293.5 202.019531 293.507812 201.046875 L 291.914062 201.046875 L 291.914062 202.640625 L 291.117188 202.640625 L 291.117188 203.4375 L 290.394531 203.761719 C 289.519531 204.175781 289.519531 204.175781 288.996094 204.800781 C 288.160156 205.585938 287.332031 205.960938 286.285156 206.429688 L 285.210938 206.914062 C 282.1875 208.132812 279.675781 208.824219 276.394531 208.769531 L 275.335938 208.761719 C 273.148438 208.71875 271.199219 208.5 269.148438 207.6875 C 268.28125 207.335938 268.28125 207.335938 266.804688 207.425781 L 266.804688 206.628906 L 265.210938 206.628906 L 265.210938 205.832031 L 264.015625 205.832031 L 264.015625 205.035156 L 262.820312 205.035156 L 262.820312 204.238281 L 262.023438 204.238281 L 262.023438 203.4375 L 260.828125 203.4375 L 260.828125 202.640625 L 260.03125 202.640625 L 259.632812 201.046875 L 258.835938 201.046875 L 258.835938 200.25 L 258.039062 200.25 L 257.738281 199.304688 C 257.339844 198.152344 256.910156 197.042969 256.445312 195.917969 C 254.984375 192.242188 254.523438 189.070312 254.851562 185.105469 C 255.03125 183.964844 255.273438 182.84375 255.546875 181.71875 L 255.738281 180.925781 C 256.210938 179.144531 256.960938 177.824219 258.039062 176.339844 L 258.710938 175.21875 C 260.289062 173.042969 262.195312 170.757812 264.640625 169.539062 C 264.960938 169.417969 265.28125 169.292969 265.609375 169.164062 L 265.609375 168.367188 L 266.3125 168.222656 C 268.117188 167.835938 269.839844 167.371094 271.589844 166.773438 C 275.296875 165.898438 278.898438 166.25 282.523438 167.308594 C 283.625 167.636719 283.625 167.636719 285.136719 167.570312 L 285.136719 168.367188 L 286.730469 168.367188 L 286.730469 169.164062 L 287.925781 169.164062 L 287.925781 169.964844 L 289.125 169.964844 L 289.125 170.761719 L 289.921875 170.761719 L 289.921875 171.558594 L 290.71875 171.558594 L 290.71875 172.355469 L 291.515625 172.355469 L 291.515625 173.152344 L 293.109375 173.550781 L 293.101562 172.878906 C 293.09375 171.875 293.089844 170.867188 293.082031 169.863281 L 293.074219 168.808594 L 293.070312 167.789062 L 293.0625 166.855469 C 293.109375 165.980469 293.265625 165.222656 293.507812 164.382812 L 294.199219 164.269531 C 295.308594 163.917969 295.925781 163.386719 296.792969 162.617188 L 297.648438 161.871094 L 298.289062 161.195312 L 298.289062 160.398438 L 299.085938 160.398438 L 299.085938 159.601562 L 299.777344 159.488281 C 300.890625 159.136719 301.507812 158.605469 302.375 157.832031 L 303.226562 157.085938 L 303.867188 156.414062 L 303.867188 155.617188 L 304.664062 155.617188 L 304.664062 154.820312 L 305.460938 154.820312 L 305.460938 154.023438 L 306.109375 153.949219 C 307.523438 153.464844 308.355469 152.648438 309.449219 151.628906 L 309.449219 150.832031 L 310.246094 150.832031 L 310.246094 150.035156 L 311.042969 150.035156 L 311.042969 149.238281 L 311.734375 149.125 C 312.84375 148.773438 313.460938 148.242188 314.332031 147.472656 L 315.183594 146.726562 L 315.824219 146.050781 L 315.824219 145.253906 L 316.621094 145.253906 L 316.621094 144.457031 L 317.417969 144.457031 L 317.417969 143.660156 L 318.066406 143.585938 C 319.480469 143.101562 320.3125 142.285156 321.402344 141.269531 L 321.402344 140.472656 L 322.199219 140.472656 L 322.199219 139.675781 L 323 139.675781 L 323 138.878906 L 323.6875 138.765625 C 324.800781 138.414062 325.417969 137.882812 326.285156 137.109375 L 327.140625 136.363281 L 327.78125 135.691406 L 327.78125 134.890625 L 328.578125 134.890625 L 328.578125 134.09375 L 329.269531 133.980469 C 330.378906 133.632812 330.996094 133.101562 331.867188 132.328125 L 332.71875 131.582031 L 333.359375 130.90625 L 333.359375 130.109375 L 334.15625 130.109375 L 334.15625 129.3125 L 334.953125 129.3125 L 335.75 128.117188 C 335.625 126.667969 335.625 126.667969 335.351562 125.328125 L 334.554688 125.328125 L 334.554688 124.53125 C 333.195312 123.851562 331.652344 124.179688 330.164062 124.261719 L 329.039062 124.320312 C 324.863281 124.542969 320.699219 124.851562 316.53125 125.164062 C 315.113281 125.269531 313.691406 125.375 312.273438 125.480469 C 308.242188 125.777344 304.210938 126.078125 300.183594 126.378906 C 297.699219 126.5625 295.214844 126.746094 292.734375 126.929688 C 291.796875 127 290.859375 127.070312 289.917969 127.140625 C 288.609375 127.238281 287.296875 127.335938 285.984375 127.433594 L 284.835938 127.519531 C 282.144531 127.714844 279.46875 127.75 276.769531 127.71875 L 276.769531 126.921875 L 275.972656 126.921875 L 275.972656 126.125 L 275.175781 126.125 L 275.175781 125.328125 L 274.378906 125.328125 L 274.378906 124.53125 L 273.582031 124.53125 L 273.582031 123.734375 L 272.785156 123.734375 L 272.785156 122.9375 L 271.589844 123.335938 L 271.46875 124.765625 C 271.152344 128.238281 270.820312 131.351562 269.195312 134.492188 L 268.804688 135.375 C 267.414062 138.246094 265.242188 140.4375 262.820312 142.464844 C 259.257812 144.867188 255.25 145.75 251.023438 146.148438 C 249.085938 146.207031 247.292969 145.847656 245.40625 145.433594 C 244.292969 145.214844 243.230469 145.195312 242.097656 145.253906 L 242.097656 144.457031 L 240.503906 144.457031 L 240.503906 143.660156 L 238.910156 143.660156 L 238.910156 142.863281 L 237.714844 142.863281 L 237.714844 142.066406 L 236.515625 142.066406 L 236.515625 141.269531 L 235.71875 141.269531 L 235.71875 140.472656 L 234.921875 140.472656 L 234.921875 139.675781 L 234.125 139.675781 L 234.125 138.878906 L 233.328125 138.878906 L 232.929688 137.285156 L 232.132812 137.285156 L 231.835938 136.289062 C 231.484375 135.289062 231.050781 134.324219 230.539062 133.398438 C 228.808594 129.980469 228.738281 126.304688 228.945312 122.539062 C 229.199219 118.851562 230.972656 115.273438 232.929688 112.175781 C 233.457031 111.640625 233.988281 111.109375 234.523438 110.582031 L 234.523438 109.386719 L 235.320312 109.386719 L 235.320312 108.589844 L 236.039062 108.457031 C 237.023438 108.15625 237.4375 107.785156 238.1875 107.09375 C 240.855469 105.035156 244.433594 104.160156 247.734375 103.683594 C 249.304688 103.515625 250.878906 103.4375 252.457031 103.410156 L 252.058594 102.214844 L 251.261719 102.214844 L 251.261719 101.414062 L 250.464844 101.414062 L 250.464844 100.617188 L 249.667969 100.617188 L 249.667969 99.820312 L 248.871094 99.820312 L 248.871094 99.023438 L 248.074219 99.023438 L 248.074219 98.226562 L 247.277344 98.226562 C 246.808594 96.117188 246.933594 94.222656 247.117188 92.09375 L 247.210938 90.949219 C 247.277344 90.117188 247.347656 89.289062 247.417969 88.460938 C 247.609375 86.160156 247.789062 83.855469 247.972656 81.554688 L 248.09375 80.039062 C 248.578125 73.875 249.007812 67.710938 249.433594 61.542969 C 249.523438 60.25 249.613281 58.957031 249.703125 57.664062 C 249.8125 56.121094 249.921875 54.578125 250.027344 53.03125 C 250.066406 52.464844 250.105469 51.894531 250.144531 51.324219 C 250.519531 46.085938 250.519531 46.085938 250.464844 40.839844 L 250.066406 40.042969 L 249.269531 40.042969 L 249.269531 39.246094 C 248.160156 39.0625 247.550781 38.976562 246.480469 39.246094 C 245.261719 40.175781 244.230469 41.222656 243.292969 42.433594 L 243.292969 43.230469 L 242.496094 43.230469 L 242.496094 44.027344 L 241.699219 44.027344 L 241.175781 44.898438 C 240.433594 46.136719 239.527344 46.996094 238.511719 48.011719 L 238.511719 48.808594 L 237.714844 48.808594 L 237.714844 49.605469 L 236.914062 49.605469 L 236.914062 50.402344 L 236.117188 50.402344 L 235.597656 51.277344 C 234.851562 52.511719 233.945312 53.375 232.929688 54.390625 L 232.929688 55.1875 L 232.132812 55.1875 L 232.132812 55.984375 L 231.335938 55.984375 L 230.8125 56.855469 C 230.070312 58.09375 229.164062 58.953125 228.148438 59.96875 L 228.148438 60.765625 L 227.351562 60.765625 L 227.351562 61.5625 L 226.554688 61.5625 L 226.554688 62.359375 L 225.757812 62.359375 L 225.234375 63.230469 C 224.492188 64.46875 223.585938 65.328125 222.570312 66.34375 L 222.570312 67.140625 L 221.773438 67.140625 L 221.773438 67.941406 L 220.976562 67.941406 L 220.453125 68.8125 C 219.710938 70.046875 218.800781 70.910156 217.785156 71.925781 L 217.785156 72.722656 L 216.988281 72.722656 L 216.988281 73.519531 L 216.191406 73.519531 L 216.191406 74.316406 L 215.394531 74.316406 L 214.871094 75.1875 C 214.128906 76.425781 213.222656 77.285156 212.207031 78.300781 L 212.207031 79.097656 L 211.410156 79.097656 L 211.410156 79.894531 L 210.613281 79.894531 L 210.613281 80.691406 L 209.816406 80.691406 L 209.816406 81.488281 L 201.84375 81.488281 L 201.445312 82.285156 L 201.84375 83.082031 L 202.640625 83.082031 L 202.640625 83.878906 L 203.4375 83.878906 L 203.4375 84.679688 L 204.238281 84.679688 L 204.238281 85.476562 L 205.035156 85.476562 L 205.035156 86.273438 L 205.832031 86.273438 L 206.230469 87.867188 L 207.027344 87.867188 L 207.027344 89.460938 L 207.824219 89.460938 L 207.972656 90.457031 C 208.203125 91.871094 208.203125 91.871094 208.628906 93.289062 C 209.105469 95.179688 209.15625 97.007812 209.144531 98.949219 L 209.136719 100.015625 C 209.074219 103.519531 208.460938 106.332031 206.753906 109.410156 L 206.222656 110.273438 C 205.765625 110.960938 205.765625 110.960938 205.832031 111.777344 L 205.035156 111.777344 C 204.628906 112.4375 204.230469 113.101562 203.839844 113.769531 C 202.890625 114.839844 202.417969 115.308594 201.046875 115.761719 L 201.046875 116.558594 C 199.828125 117.175781 198.597656 117.773438 197.363281 118.351562 L 196.285156 118.863281 C 193.523438 119.96875 191.085938 120.269531 188.144531 120.222656 L 187.171875 120.222656 C 184.820312 120.203125 184.820312 120.203125 183.910156 119.75 C 183.363281 119.722656 182.816406 119.714844 182.269531 119.722656 L 180.722656 119.75 L 180.722656 118.953125 L 179.128906 118.953125 L 179.128906 118.152344 L 177.535156 118.152344 L 177.535156 117.355469 L 175.941406 117.355469 L 175.941406 116.558594 L 175.144531 116.558594 L 175.144531 115.761719 L 173.949219 115.761719 L 173.949219 114.964844 L 173.152344 114.964844 L 173.152344 114.167969 L 172.355469 114.167969 L 172.355469 113.371094 L 171.558594 113.371094 L 171.558594 112.574219 L 170.761719 112.574219 L 170.363281 110.980469 L 169.566406 110.980469 L 169.230469 109.96875 C 168.917969 109.039062 168.59375 108.117188 168.253906 107.199219 C 166.6875 102.8125 166.238281 98.789062 166.976562 94.164062 C 167.507812 91.972656 168.378906 90.121094 169.570312 88.214844 C 170.054688 87.433594 170.054688 87.433594 169.964844 86.273438 L 170.761719 86.273438 L 170.761719 85.476562 L 171.558594 85.476562 L 171.558594 84.679688 L 172.355469 84.679688 L 172.355469 83.878906 L 173.152344 83.878906 L 173.152344 83.082031 L 173.949219 83.082031 L 173.949219 81.488281 L 165.179688 81.488281 L 165.179688 80.691406 L 164.382812 80.691406 L 164.382812 79.894531 L 163.585938 79.894531 L 163.1875 78.300781 L 162.390625 78.300781 L 162.390625 77.503906 L 161.59375 77.503906 L 161.59375 76.707031 L 160.796875 76.707031 L 160.398438 75.113281 L 159.601562 75.113281 L 159.601562 74.316406 L 158.804688 74.316406 L 158.40625 72.722656 L 157.609375 72.722656 L 157.609375 71.925781 L 156.8125 71.925781 L 156.8125 71.128906 L 156.015625 71.128906 L 156.015625 70.332031 L 155.21875 70.332031 L 154.820312 68.738281 L 154.023438 68.738281 L 154.023438 67.941406 L 153.226562 67.941406 L 152.828125 66.34375 L 152.027344 66.34375 L 152.027344 65.546875 L 151.230469 65.546875 L 151.230469 64.75 L 150.433594 64.75 L 150.035156 63.15625 L 149.238281 63.15625 L 149.238281 62.359375 L 148.441406 62.359375 L 148.441406 61.5625 L 147.644531 61.5625 L 147.246094 59.96875 L 146.449219 59.96875 L 146.449219 59.171875 L 145.652344 59.171875 L 145.652344 58.375 L 144.855469 58.375 L 144.457031 56.78125 L 143.660156 56.78125 L 143.660156 55.984375 L 142.863281 55.984375 L 142.464844 54.390625 L 141.667969 54.390625 L 141.667969 53.59375 L 140.871094 53.59375 L 140.871094 52.796875 L 140.074219 52.796875 L 140.074219 52 L 139.277344 52 L 138.878906 50.402344 L 138.082031 50.402344 L 138.082031 49.605469 L 137.285156 49.605469 L 136.886719 48.011719 L 136.089844 48.011719 L 136.089844 47.214844 L 135.289062 47.214844 L 135.289062 46.417969 L 134.492188 46.417969 L 134.09375 44.824219 L 133.296875 44.824219 L 133.296875 44.027344 L 132.5 44.027344 L 132.5 43.230469 L 131.703125 43.230469 L 131.304688 41.636719 L 130.507812 41.636719 L 130.507812 40.839844 L 129.710938 40.839844 L 129.710938 40.042969 L 128.914062 40.042969 L 128.914062 39.246094 C 127.84375 39.1875 127.042969 39.203125 126.023438 39.570312 " fill-opacity="1" fill-rule="nonzero"/></svg>