<svg xmlns="http://www.w3.org/2000/svg" xmlns:xlink="http://www.w3.org/1999/xlink" width="500" zoomAndPan="magnify" viewBox="0 0 375 374.999991" height="500" preserveAspectRatio="xMidYMid meet" version="1.0"><path fill="#00acc5" d="M 86.289062 65.460938 C 92.632812 66.042969 98.8125 68.773438 104.535156 71.417969 C 106.722656 72.347656 108.988281 73.039062 111.246094 73.773438 C 113.335938 74.476562 115.367188 75.28125 117.410156 76.117188 C 119.078125 76.785156 120.753906 77.441406 122.433594 78.074219 C 125.304688 79.175781 128.167969 80.304688 131.019531 81.457031 C 135.59375 83.300781 140.171875 85.078125 144.824219 86.707031 C 148.289062 87.929688 151.722656 89.238281 155.160156 90.535156 C 156.3125 90.972656 157.46875 91.40625 158.628906 91.835938 C 163.15625 93.527344 167.679688 95.238281 172.195312 96.957031 L 173.691406 97.527344 C 179.859375 99.882812 186.019531 102.25 192.171875 104.636719 L 200.710938 107.9375 C 206.523438 110.1875 212.339844 112.433594 218.183594 114.613281 C 221.15625 115.722656 224.121094 116.847656 227.082031 117.976562 L 229.871094 119.039062 C 231.28125 119.574219 232.6875 120.109375 234.097656 120.644531 C 240.199219 122.976562 246.320312 125.1875 252.539062 127.195312 L 252.539062 128.378906 L 254.066406 128.589844 C 256.207031 128.996094 258.105469 129.628906 260.144531 130.382812 C 263.328125 131.550781 266.535156 132.664062 269.757812 133.722656 L 269.757812 134.910156 L 271.980469 135.328125 C 275.570312 136.125 278.875 137.511719 282.261719 138.917969 C 286.691406 140.734375 291.132812 142.496094 295.617188 144.164062 C 300.390625 145.941406 305.140625 147.773438 309.890625 149.601562 C 312.453125 150.589844 315.015625 151.574219 317.578125 152.558594 C 318.039062 152.738281 318.5 152.914062 318.976562 153.097656 C 321.179688 153.945312 323.378906 154.800781 325.566406 155.683594 L 325.566406 158.058594 L 320.816406 157.464844 L 320.816406 156.277344 L 319.035156 156.871094 C 317.738281 156.613281 317.738281 156.613281 316.664062 156.277344 L 316.664062 155.089844 L 314.289062 155.683594 L 314.289062 154.496094 L 311.914062 155.089844 L 311.914062 153.90625 L 310.132812 154.496094 L 310.132812 153.3125 L 307.757812 153.90625 L 307.757812 152.71875 L 305.976562 153.3125 C 304.378906 153.050781 304.378906 153.050781 303.007812 152.71875 L 303.007812 151.53125 L 301.226562 152.125 L 301.226562 150.9375 L 298.851562 151.53125 L 298.851562 150.34375 L 296.476562 150.9375 L 296.476562 149.75 L 294.695312 150.34375 L 294.695312 149.15625 L 292.320312 149.75 L 292.320312 148.5625 L 289.351562 149.15625 L 289.351562 147.96875 L 287.570312 148.5625 L 287.570312 147.375 L 285.789062 147.96875 C 284.191406 147.710938 284.191406 147.710938 282.820312 147.375 L 282.820312 146.1875 L 281.039062 146.78125 L 281.039062 145.59375 L 278.664062 146.1875 L 278.664062 145 L 276.289062 145.59375 L 276.289062 144.40625 L 274.507812 145 C 273.207031 144.742188 273.207031 144.742188 272.132812 144.40625 L 272.132812 143.21875 L 269.757812 143.8125 L 269.757812 142.625 L 267.382812 143.21875 L 267.382812 142.03125 L 265.007812 142.625 L 265.007812 141.4375 L 263.226562 142.03125 L 263.226562 140.847656 L 260.851562 141.4375 L 260.851562 140.253906 L 258.476562 140.847656 L 258.476562 139.660156 L 256.695312 140.253906 C 255.394531 139.992188 255.394531 139.992188 254.320312 139.660156 L 254.320312 138.472656 L 251.351562 139.066406 L 251.351562 137.878906 L 249.570312 138.472656 L 249.570312 137.285156 L 247.195312 137.878906 L 247.195312 136.691406 L 244.820312 137.285156 L 244.820312 136.097656 L 242.445312 136.691406 L 242.445312 135.503906 L 240.664062 136.097656 L 240.664062 134.910156 L 238.289062 135.503906 L 238.289062 134.316406 L 235.914062 134.910156 L 235.914062 133.722656 C 234.957031 133.742188 234.957031 133.742188 233.984375 133.761719 C 232.261719 133.730469 230.992188 133.644531 229.382812 133.128906 L 229.382812 131.941406 L 226.414062 132.535156 L 226.414062 131.347656 L 224.632812 131.941406 L 224.632812 130.753906 L 222.257812 131.347656 L 222.257812 130.160156 L 219.882812 130.753906 L 219.882812 129.566406 L 217.507812 130.160156 L 217.507812 128.972656 L 215.726562 129.566406 L 215.726562 128.378906 L 213.351562 128.972656 L 213.351562 127.785156 L 212.050781 128.15625 C 210.382812 128.378906 210.382812 128.378906 208.933594 127.859375 L 207.414062 127.195312 C 206.230469 126.96875 205.042969 126.769531 203.851562 126.601562 L 203.851562 125.414062 L 201.476562 126.007812 L 201.476562 124.820312 L 199.695312 125.414062 L 199.695312 124.226562 L 197.320312 124.820312 L 197.320312 123.632812 L 194.945312 124.226562 L 194.945312 123.039062 L 193.164062 123.632812 L 193.164062 122.445312 L 190.789062 123.039062 L 190.789062 121.851562 L 189.15625 122.222656 C 187.226562 122.445312 187.226562 122.445312 185.890625 121.886719 L 184.851562 121.257812 L 183.664062 121.257812 L 183.664062 120.070312 L 181.289062 120.664062 L 181.289062 119.476562 L 178.914062 120.070312 L 178.914062 118.882812 L 177.132812 119.476562 L 177.132812 118.289062 L 174.757812 118.882812 L 174.757812 117.695312 L 172.382812 118.289062 L 172.382812 117.101562 L 170.007812 117.695312 L 170.007812 116.507812 L 168.226562 117.101562 L 168.226562 115.914062 L 165.257812 116.507812 L 165.257812 115.320312 L 164.257812 115.691406 C 162.882812 115.914062 162.882812 115.914062 161.324219 115.359375 L 159.914062 114.726562 L 158.726562 114.726562 L 158.726562 113.542969 L 156.351562 114.132812 L 156.351562 112.949219 L 153.976562 113.542969 L 153.976562 112.355469 L 152.195312 112.949219 L 152.195312 111.761719 L 149.820312 112.355469 L 149.820312 111.167969 L 147.445312 111.761719 L 147.445312 110.574219 L 145.664062 111.167969 L 145.664062 109.980469 L 143.289062 110.574219 L 143.289062 109.386719 L 141.65625 109.757812 C 139.726562 109.980469 139.726562 109.980469 138.390625 109.421875 L 137.351562 108.792969 L 136.164062 108.792969 L 136.164062 107.605469 L 133.789062 108.199219 L 133.789062 107.011719 L 132.007812 107.605469 L 132.007812 106.417969 L 129.632812 107.011719 L 129.632812 105.824219 L 127.257812 106.417969 L 127.257812 105.230469 L 124.882812 105.824219 L 124.882812 104.636719 L 122.507812 105.230469 L 122.507812 104.042969 L 118.351562 104.042969 L 118.351562 102.855469 L 117.238281 103.191406 L 115.976562 103.449219 L 114.789062 102.855469 L 114.789062 101.667969 L 113.417969 102.039062 L 111.820312 102.261719 L 110.039062 101.074219 L 108.480469 100.632812 C 102.191406 98.300781 96.921875 93.148438 92.636719 88.128906 C 88.480469 82.695312 86.695312 76.3125 85.695312 69.617188 C 85.617188 67.625 85.617188 67.625 85.695312 66.054688 Z M 94.601562 7.882812 C 97.859375 8.925781 100.652344 10.304688 103.539062 12.113281 L 105.882812 13.550781 L 107.078125 14.285156 C 108.941406 15.425781 110.820312 16.53125 112.699219 17.640625 L 114.953125 18.976562 L 116.101562 19.652344 C 124.835938 24.824219 133.527344 30.070312 142.195312 35.351562 C 144.300781 36.628906 146.410156 37.898438 148.523438 39.160156 C 157.128906 44.308594 165.6875 49.546875 174.210938 54.835938 C 179.210938 57.933594 184.234375 60.992188 189.261719 64.042969 C 192.863281 66.230469 196.457031 68.429688 200.046875 70.632812 C 202.210938 71.96875 202.210938 71.96875 204.445312 73.179688 L 204.445312 74.363281 L 205.628906 74.785156 C 207.949219 75.78125 210.070312 77.042969 212.238281 78.335938 L 213.589844 79.132812 C 216.667969 80.964844 219.695312 82.863281 222.703125 84.808594 C 224.292969 85.800781 225.898438 86.640625 227.601562 87.421875 L 227.601562 88.609375 L 231.164062 89.796875 L 231.164062 90.984375 L 232.128906 91.171875 C 233.910156 91.6875 235.460938 92.503906 237.101562 93.359375 L 237.101562 94.546875 L 238.574219 94.953125 C 241.140625 95.914062 243.269531 97.253906 245.5625 98.738281 C 246.40625 99.277344 247.25 99.816406 248.09375 100.355469 L 249.210938 101.074219 C 250.183594 101.703125 250.183594 101.703125 251.351562 102.261719 L 251.351562 103.449219 L 252.378906 103.65625 C 253.863281 104.082031 254.964844 104.691406 256.285156 105.492188 L 257.765625 106.386719 L 259.328125 107.347656 C 263.542969 109.898438 267.746094 112.472656 271.933594 115.070312 C 273.265625 115.910156 273.265625 115.910156 274.507812 116.507812 L 274.507812 117.695312 L 275.816406 118.1875 C 277.410156 118.855469 278.804688 119.617188 280.277344 120.515625 L 281.839844 121.460938 L 283.449219 122.445312 C 284.507812 123.089844 285.566406 123.730469 286.625 124.375 C 287.089844 124.660156 287.558594 124.945312 288.039062 125.238281 C 289.242188 125.9375 290.46875 126.589844 291.726562 127.195312 L 291.726562 128.378906 L 292.957031 128.832031 C 294.984375 129.691406 296.855469 130.738281 298.738281 131.867188 L 299.8125 132.476562 C 300.828125 133.085938 300.828125 133.085938 302.414062 134.316406 L 302.414062 136.691406 L 300.039062 136.097656 L 300.039062 134.910156 L 298.960938 135.28125 L 297.664062 135.503906 L 295.882812 134.316406 L 295.882812 133.128906 L 294.101562 133.722656 L 293.507812 131.941406 L 291.835938 132.015625 L 289.945312 131.941406 L 288.164062 130.753906 L 288.164062 129.566406 L 286.382812 130.160156 C 284.976562 129.617188 283.589844 129.023438 282.226562 128.378906 L 282.226562 127.195312 L 281.039062 127.195312 L 281.039062 126.007812 L 279.578125 126.171875 C 276.726562 125.949219 274.804688 124.773438 272.355469 123.371094 C 271.46875 122.875 270.582031 122.382812 269.695312 121.890625 L 268.519531 121.222656 C 267.355469 120.652344 266.269531 120.335938 265.007812 120.070312 L 265.007812 118.882812 L 263.558594 118.773438 C 261.175781 118.230469 259.492188 117.265625 257.402344 116.039062 C 255.835938 115.175781 254.253906 114.617188 252.539062 114.132812 L 252.539062 112.949219 L 250.867188 112.726562 C 248.976562 112.355469 248.976562 112.355469 247.195312 111.167969 L 247.195312 109.980469 L 245.414062 110.574219 L 243.632812 109.980469 L 243.632812 108.199219 C 243.316406 108.335938 243 108.472656 242.671875 108.613281 C 242.203125 108.671875 241.738281 108.730469 241.257812 108.792969 C 239.546875 108.023438 239.546875 108.023438 237.621094 106.902344 C 234.734375 105.269531 231.910156 103.894531 228.800781 102.753906 C 227.601562 102.261719 227.601562 102.261719 225.820312 101.074219 L 225.820312 99.890625 L 224.816406 100.296875 L 223.445312 100.484375 C 221.8125 99.703125 221.8125 99.703125 220.476562 98.703125 L 220.476562 97.515625 L 218.695312 98.109375 L 216.914062 96.921875 L 216.914062 95.734375 L 215.132812 96.328125 C 213.804688 95.757812 212.507812 95.125 211.234375 94.4375 C 208.785156 93.15625 206.367188 91.933594 203.777344 90.949219 C 200.316406 89.628906 197.046875 87.933594 193.757812 86.238281 L 193.757812 85.050781 L 191.976562 85.644531 C 190.402344 85.070312 190.402344 85.070312 188.492188 84.15625 L 187.4375 83.65625 C 186.289062 83.113281 185.144531 82.558594 183.996094 82.007812 L 181.589844 80.863281 C 179.933594 80.078125 178.273438 79.289062 176.617188 78.5 C 172.917969 76.738281 169.199219 75.011719 165.480469 73.289062 L 163.417969 72.332031 C 157.519531 69.601562 151.601562 66.917969 145.664062 64.273438 L 145.664062 63.085938 L 144.175781 62.921875 C 141.699219 62.410156 139.683594 61.484375 137.425781 60.378906 L 136.089844 59.738281 C 134.726562 59.078125 133.367188 58.414062 132.007812 57.746094 L 130.777344 57.140625 C 128.417969 55.988281 126.066406 54.8125 123.726562 53.617188 C 122.890625 53.191406 122.054688 52.765625 121.21875 52.34375 C 114.585938 48.988281 107.953125 45.546875 102.914062 39.9375 L 102.074219 39.085938 C 98.269531 35.027344 96.066406 30.171875 94.699219 24.828125 C 93.417969 19.335938 93.140625 14.09375 93.414062 8.476562 Z M 94.601562 7.882812 " fill-opacity="1" fill-rule="nonzero"/><path fill="#00acc5" d="M 108.207031 128.949219 C 108.890625 129.085938 109.578125 129.21875 110.285156 129.355469 L 112.453125 129.789062 C 116.933594 130.683594 121.316406 131.445312 125.875 131.789062 C 127.628906 131.984375 129.164062 132.539062 130.820312 133.128906 C 132.359375 133.359375 133.878906 133.558594 135.421875 133.722656 C 139.082031 134.144531 142.660156 134.703125 146.257812 135.503906 C 152.433594 136.886719 152.433594 136.886719 158.695312 137.734375 C 159.960938 137.882812 161.160156 138.140625 162.402344 138.433594 C 164.652344 138.964844 166.898438 139.3125 169.191406 139.621094 C 172.027344 140.011719 174.8125 140.484375 177.617188 141.066406 C 182.316406 142.039062 187.042969 142.78125 191.78125 143.527344 C 196.144531 144.214844 200.492188 144.945312 204.839844 145.730469 C 206.738281 146.070312 208.640625 146.398438 210.546875 146.722656 C 216.585938 147.75 222.601562 148.855469 228.601562 150.082031 C 234.496094 151.285156 240.390625 152.261719 246.347656 153.105469 C 248.871094 153.464844 251.390625 153.847656 253.910156 154.238281 L 255.296875 154.445312 C 258.015625 154.867188 260.578125 155.511719 263.226562 156.277344 C 264.816406 156.597656 266.414062 156.894531 268.011719 157.167969 L 269.347656 157.402344 C 272.722656 157.976562 276.109375 158.464844 279.5 158.933594 C 285.007812 159.742188 290.472656 160.769531 295.925781 161.882812 C 300.515625 162.8125 305.128906 163.566406 309.757812 164.292969 C 311.375 164.546875 312.988281 164.804688 314.601562 165.0625 C 315.75 165.246094 315.75 165.246094 316.917969 165.433594 C 322.40625 166.320312 327.882812 167.222656 333.292969 168.507812 C 335.070312 168.863281 336.855469 169.003906 338.664062 169.132812 C 339.816406 169.335938 339.816406 169.335938 341.597656 170.523438 L 341.597656 172.304688 C 339.175781 172.347656 336.859375 172.316406 334.449219 172.023438 C 331.113281 171.636719 327.773438 171.527344 324.417969 171.414062 C 320.027344 171.265625 315.6875 171.003906 311.320312 170.523438 C 306.488281 170.074219 301.65625 169.835938 296.808594 169.632812 C 283.917969 169.101562 283.917969 169.101562 279.734375 168.445312 C 276.832031 168.066406 273.945312 167.960938 271.019531 167.851562 C 269.800781 167.804688 268.582031 167.753906 267.367188 167.707031 L 265.550781 167.632812 C 263.105469 167.527344 260.660156 167.398438 258.214844 167.261719 L 255.917969 167.128906 C 254.347656 167.011719 252.78125 166.851562 251.21875 166.648438 C 249.609375 166.449219 248.171875 166.3125 246.5625 166.371094 C 244.226562 166.371094 244.226562 166.371094 242.386719 166.089844 C 239.558594 165.707031 236.757812 165.589844 233.910156 165.480469 C 232.746094 165.429688 231.582031 165.378906 230.417969 165.332031 L 228.675781 165.257812 C 222.757812 164.992188 216.863281 164.625 210.976562 163.996094 C 206.628906 163.558594 202.28125 163.324219 197.917969 163.140625 C 191.582031 162.863281 185.261719 162.476562 178.933594 162.035156 C 177.21875 161.917969 175.5 161.800781 173.78125 161.683594 L 170.441406 161.453125 L 168.917969 161.351562 C 166.113281 161.15625 163.3125 160.890625 160.523438 160.546875 C 159.308594 160.433594 158.128906 160.417969 156.910156 160.433594 C 154.871094 160.433594 153.019531 160.253906 151.011719 159.96875 C 149.785156 159.835938 148.605469 159.820312 147.371094 159.839844 C 145.070312 159.839844 145.070312 159.839844 143.511719 159.5625 C 140.894531 159.148438 138.289062 159.035156 135.644531 158.914062 L 134.0625 158.835938 C 132.785156 158.773438 131.507812 158.710938 130.226562 158.652344 L 130.226562 157.464844 L 129.039062 157.898438 C 127.191406 158.066406 126.625 157.910156 124.996094 157.160156 C 124.160156 156.738281 123.332031 156.308594 122.507812 155.871094 L 121.25 155.238281 C 117.589844 153.347656 114.625 151.007812 111.820312 147.96875 L 111.226562 146.1875 L 110.039062 146.1875 C 109.125 144.949219 108.257812 143.671875 107.441406 142.367188 L 106.714844 141.21875 C 102.449219 134.355469 102.449219 134.355469 102.171875 130.421875 L 102.320312 128.972656 C 104.453125 128.242188 106.019531 128.511719 108.207031 128.949219 " fill-opacity="1" fill-rule="nonzero"/><path fill="#00acc5" d="M 305.289062 182.371094 L 308.339844 182.367188 C 316.273438 182.351562 324.175781 182.539062 332.097656 182.988281 L 332.691406 184.175781 C 331.726562 184.769531 331.726562 184.769531 330.316406 185.363281 C 329.128906 185.390625 327.941406 185.390625 326.753906 185.363281 C 325.960938 185.558594 325.171875 185.753906 324.378906 185.957031 C 323.554688 186.058594 322.722656 186.144531 321.894531 186.21875 C 320.042969 186.40625 318.285156 186.699219 316.476562 187.144531 C 313.742188 187.792969 311.027344 188 308.230469 188.203125 C 305.765625 188.394531 303.351562 188.738281 300.929688 189.222656 C 297.535156 189.898438 294.117188 190.242188 290.675781 190.539062 C 289.25 190.675781 289.25 190.675781 287.570312 191.300781 C 286.53125 191.417969 285.492188 191.515625 284.453125 191.597656 C 280.0625 191.9375 280.0625 191.9375 275.753906 192.785156 C 274.414062 193.101562 273.132812 193.230469 271.761719 193.339844 C 269.125 193.582031 266.59375 194.039062 264.011719 194.621094 C 262.632812 194.859375 262.632812 194.859375 261.011719 194.859375 L 259.664062 194.859375 L 259.070312 195.453125 C 257.894531 195.566406 256.71875 195.648438 255.542969 195.714844 C 252.550781 195.921875 249.722656 196.316406 246.796875 196.957031 C 244.085938 197.503906 241.335938 197.722656 238.582031 197.953125 C 236.195312 198.164062 233.925781 198.425781 231.609375 199.054688 C 229.527344 199.574219 227.941406 199.609375 225.820312 199.609375 C 225.011719 199.78125 224.207031 199.96875 223.40625 200.167969 C 221.113281 200.722656 218.898438 200.945312 216.542969 201.09375 C 214.425781 201.230469 212.480469 201.371094 210.457031 202.023438 C 208.359375 202.652344 206.625 202.617188 204.445312 202.578125 C 203.054688 202.734375 201.667969 202.921875 200.289062 203.171875 L 199.695312 203.765625 C 198.410156 203.875 197.125 203.957031 195.835938 204.023438 C 192.839844 204.214844 190.070312 204.570312 187.167969 205.304688 C 185.601562 205.640625 184.074219 205.585938 182.476562 205.546875 L 181.289062 206.140625 C 180.410156 206.195312 179.53125 206.214844 178.652344 206.214844 L 177.246094 206.21875 C 175.945312 206.140625 175.945312 206.140625 174.164062 205.546875 L 172.382812 205.546875 L 172.382812 204.359375 L 170.601562 204.953125 L 170.601562 203.765625 L 169.609375 204.167969 L 168.226562 204.359375 C 166.695312 203.679688 166.695312 203.679688 165.109375 202.6875 L 163.503906 201.714844 L 162.289062 200.796875 L 162.289062 199.609375 L 161.246094 199.152344 C 157.976562 197.367188 155.425781 194.269531 153.457031 191.152344 C 153.023438 190.417969 152.601562 189.675781 152.195312 188.925781 L 151.484375 187.785156 L 151.007812 186.550781 C 151.175781 185.554688 151.375 184.566406 151.601562 183.582031 C 154.941406 183.496094 158.28125 183.410156 161.621094 183.328125 C 162.746094 183.300781 163.871094 183.273438 164.996094 183.242188 C 171.972656 183.058594 178.945312 182.972656 185.925781 182.988281 C 196.996094 183.007812 208.066406 182.945312 219.136719 182.871094 C 221.683594 182.851562 224.234375 182.835938 226.78125 182.820312 C 234.3125 182.769531 241.839844 182.722656 249.367188 182.671875 C 255.242188 182.632812 261.117188 182.59375 266.992188 182.554688 L 274.519531 182.507812 C 284.777344 182.4375 295.03125 182.382812 305.289062 182.371094 M 199.101562 303.484375 C 198.929688 304.589844 198.929688 304.589844 198.507812 305.859375 C 197.640625 306.570312 197.640625 306.570312 196.503906 307.160156 L 195.199219 307.847656 L 193.757812 308.570312 L 192.234375 309.347656 C 182.410156 314.285156 172.246094 318.4375 162.027344 322.480469 L 160.761719 322.984375 C 156.628906 324.617188 152.515625 326.203125 148.234375 327.421875 C 146.761719 327.847656 145.3125 328.332031 143.859375 328.828125 C 128.320312 334.066406 112.019531 338.425781 95.789062 340.882812 L 93.855469 341.191406 C 88.417969 342 83.097656 342.289062 77.601562 342.289062 C 76.238281 342.289062 74.871094 342.3125 73.507812 342.335938 C 65.800781 342.394531 58.382812 341.289062 51.480469 337.652344 C 50.839844 337.324219 50.195312 336.992188 49.527344 336.65625 C 46.875 335.039062 44.695312 333.410156 42.949219 330.789062 C 43.171875 329.492188 43.171875 329.492188 43.542969 328.417969 C 46.71875 328.109375 49.902344 327.808594 53.082031 327.515625 C 59.558594 326.917969 66.035156 326.425781 72.527344 325.996094 C 83.730469 325.253906 94.777344 324.179688 105.882812 322.480469 L 108.46875 322.09375 C 122.707031 319.957031 136.871094 317.484375 151.007812 314.765625 L 152.214844 314.53125 C 166.242188 311.847656 180.210938 308.597656 193.738281 303.96875 C 195.605469 303.46875 197.179688 303.394531 199.101562 303.484375 M 320.816406 196.640625 L 322.597656 197.234375 C 322.5625 198.3125 322.5625 198.3125 322.003906 199.609375 C 320.261719 200.464844 320.261719 200.464844 319.140625 200.878906 C 317.089844 201.691406 315.179688 202.78125 313.238281 203.828125 L 311.914062 204.359375 L 310.132812 203.765625 L 310.132812 204.953125 C 308.722656 205.582031 308.722656 205.582031 307.164062 206.140625 L 305.976562 205.546875 L 305.976562 206.734375 L 304.195312 207.328125 L 303.007812 206.734375 L 303.007812 207.921875 C 301.597656 208.550781 301.597656 208.550781 300.039062 209.105469 L 298.851562 208.511719 L 298.257812 210.292969 C 297.105469 210.738281 297.105469 210.738281 295.882812 210.886719 L 294.695312 210.292969 L 294.695312 211.480469 L 290.539062 212.074219 L 290.539062 213.261719 C 289.128906 213.894531 289.128906 213.894531 287.570312 214.449219 L 286.382812 213.855469 L 286.382812 215.042969 C 284.320312 216.226562 282.605469 216.929688 280.257812 217.15625 L 278.070312 217.417969 L 277.476562 218.605469 L 275.101562 218.605469 L 275.101562 219.792969 L 273.367188 220.527344 L 271.09375 221.496094 L 269.953125 221.980469 C 268.074219 222.785156 266.234375 223.621094 264.414062 224.539062 C 262.558594 225.246094 262.558594 225.246094 260.851562 225.726562 L 259.664062 225.132812 L 259.664062 226.320312 C 258.652344 226.824219 257.636719 227.316406 256.621094 227.804688 L 254.90625 228.640625 C 253.003906 229.335938 251.578125 229.40625 249.570312 229.289062 L 249.570312 230.476562 L 247.789062 231.070312 L 246.601562 230.476562 L 246.601562 231.664062 L 244.929688 232.183594 C 242.980469 232.78125 242.980469 232.78125 241.257812 234.039062 C 240.460938 234.394531 239.660156 234.726562 238.84375 235.039062 C 238.433594 235.199219 238.023438 235.363281 237.597656 235.527344 L 236.507812 235.816406 L 235.320312 235.222656 L 234.726562 237.003906 C 233.449219 237.425781 232.164062 237.8125 230.867188 238.15625 C 228.746094 238.6875 228.746094 238.6875 227.007812 239.972656 C 224.269531 241.238281 221.480469 242.382812 218.695312 243.535156 L 217.316406 244.164062 C 214.316406 245.394531 211.359375 245.511719 208.15625 245.574219 L 206.835938 245.613281 C 205.566406 245.609375 205.566406 245.609375 203.257812 245.316406 C 200 243.300781 198.1875 240.152344 196.132812 237.003906 L 195.320312 235.800781 C 194.648438 234.742188 194.648438 234.742188 193.757812 232.851562 C 193.90625 231.105469 193.90625 231.105469 194.351562 229.882812 C 198.472656 228.390625 202.757812 227.476562 207.011719 226.445312 L 208.882812 225.988281 L 210.574219 225.578125 C 212.152344 225.136719 213.613281 224.558594 215.132812 223.945312 C 216.050781 223.691406 216.972656 223.457031 217.898438 223.242188 L 219.464844 222.875 L 221.105469 222.5 C 222.230469 222.238281 223.351562 221.972656 224.472656 221.710938 L 226.105469 221.328125 C 229.78125 220.464844 233.453125 219.597656 237.0625 218.492188 C 238.757812 218.042969 240.109375 217.90625 241.851562 218.011719 L 241.851562 216.824219 C 242.410156 216.714844 242.972656 216.609375 243.546875 216.496094 C 250.765625 215.101562 250.765625 215.101562 257.882812 213.261719 L 258.476562 212.667969 L 262.632812 212.074219 L 263.226562 211.480469 L 265.082031 211.222656 C 267.332031 210.894531 269.355469 210.332031 271.539062 209.699219 C 273.09375 209.3125 274.652344 208.929688 276.214844 208.550781 C 278.769531 207.925781 281.300781 207.285156 283.785156 206.398438 C 285.839844 205.671875 287.886719 205.207031 290.019531 204.773438 C 294.769531 203.773438 299.46875 202.59375 304.167969 201.378906 C 305.589844 201.011719 307.015625 200.648438 308.441406 200.285156 L 311.164062 199.585938 L 312.453125 199.257812 C 313.464844 198.996094 314.46875 198.710938 315.476562 198.421875 L 316.070312 197.828125 L 320.222656 197.234375 Z M 200.289062 315.949219 L 201.476562 316.542969 C 201.238281 318.25 200.945312 319.410156 200.027344 320.886719 L 199.101562 321.886719 L 197.914062 321.886719 L 197.464844 322.929688 C 193.132812 330.726562 181.28125 336.992188 173.867188 341.476562 C 151.714844 354.589844 127.339844 366.46875 101.132812 367.183594 C 94.558594 367.0625 87.898438 366.179688 82.066406 363.011719 C 80.914062 362.226562 79.996094 361.59375 79.164062 360.46875 C 79.417969 359.222656 79.417969 359.222656 79.757812 358.09375 C 81.09375 357.804688 82.429688 357.511719 83.765625 357.222656 L 87.410156 356.425781 C 90.683594 355.707031 93.964844 355.015625 97.25 354.347656 C 132.144531 347.222656 169.5 336.433594 199.300781 316.445312 Z M 308.945312 216.824219 L 310.726562 216.824219 C 310.480469 218.242188 310.210938 219.097656 309.308594 220.234375 C 307.265625 222.21875 305.214844 223.976562 302.863281 225.578125 C 301.367188 226.640625 300.003906 227.84375 298.625 229.046875 C 297.347656 230.15625 296.019531 231.203125 294.695312 232.257812 C 292.996094 233.636719 291.359375 234.992188 289.832031 236.558594 C 287.796875 238.550781 285.625 240.328125 283.414062 242.125 C 280.28125 244.679688 277.171875 247.253906 274.097656 249.878906 C 271.390625 252.179688 268.644531 254.429688 265.859375 256.628906 L 264.808594 257.46875 C 263.164062 258.757812 261.585938 259.914062 259.664062 260.75 L 259.664062 261.933594 C 258.71875 262.796875 258.71875 262.796875 257.324219 263.863281 C 254.414062 266.132812 251.558594 268.453125 248.714844 270.800781 L 246.066406 272.984375 C 244.664062 274.140625 243.261719 275.300781 241.863281 276.464844 C 238.699219 279.089844 235.472656 281.628906 232.203125 284.121094 L 231.011719 285.042969 C 228.582031 286.875 226.316406 288.210938 223.445312 289.238281 C 221.253906 289.386719 221.253906 289.386719 219.289062 288.644531 C 217.863281 287.050781 217.390625 285.367188 216.914062 283.304688 C 216.636719 281.464844 216.457031 279.632812 216.320312 277.777344 L 216.199219 276.359375 C 216.179688 275.910156 216.15625 275.460938 216.132812 275 L 216.066406 273.785156 C 216.320312 272.621094 216.320312 272.621094 217.335938 271.390625 C 218.707031 270.234375 220.03125 269.378906 221.601562 268.511719 L 223.304688 267.566406 L 225.113281 266.574219 C 226.367188 265.875 227.617188 265.179688 228.871094 264.480469 L 230.703125 263.457031 C 233.023438 262.152344 235.296875 260.785156 237.570312 259.40625 C 241.644531 256.9375 245.757812 254.542969 249.867188 252.140625 C 254.980469 249.148438 260.089844 246.148438 265.164062 243.082031 C 266.957031 242.007812 268.757812 240.941406 270.5625 239.886719 C 278.332031 235.359375 278.332031 235.359375 285.832031 230.402344 C 287.9375 229.050781 290.125 227.886719 292.328125 226.699219 C 295.234375 225.105469 298.078125 223.414062 300.929688 221.71875 L 302.679688 220.683594 C 305.847656 218.808594 305.847656 218.808594 308.945312 216.824219 M 275.695312 266.683594 L 277.476562 267.277344 C 277.230469 268.828125 276.835938 269.71875 275.925781 271.019531 C 272.609375 275.003906 269.140625 278.8125 265.59375 282.589844 C 264.289062 283.976562 263.019531 285.386719 261.777344 286.828125 C 259.753906 289.175781 257.628906 291.429688 255.507812 293.691406 C 250.484375 299.027344 250.484375 299.027344 245.820312 304.671875 L 244.820312 305.859375 L 243.632812 305.859375 L 243.164062 306.90625 C 242.394531 308.324219 241.550781 309.304688 240.4375 310.464844 L 239.234375 311.730469 L 237.953125 313.058594 C 237.089844 313.964844 236.222656 314.875 235.359375 315.785156 L 234.09375 317.109375 C 231.148438 320.21875 228.300781 323.417969 225.558594 326.710938 C 225.058594 327.273438 224.554688 327.835938 224.039062 328.417969 L 222.851562 328.417969 L 222.484375 329.371094 C 221.308594 331.402344 219.703125 332.875 218.027344 334.5 L 217.011719 335.496094 C 216.191406 336.304688 215.367188 337.109375 214.539062 337.914062 L 212.757812 337.320312 C 213.179688 333.148438 214.375 329.207031 215.539062 325.1875 L 216.128906 323.050781 C 217.511719 318.289062 219.121094 314.890625 222.65625 311.410156 C 223.699219 310.457031 224.769531 309.546875 225.855469 308.644531 L 227.023438 307.652344 C 228.203125 306.65625 229.386719 305.664062 230.570312 304.671875 C 231.285156 304.066406 232.003906 303.457031 232.71875 302.851562 C 234.015625 301.75 235.3125 300.65625 236.613281 299.5625 C 238.015625 298.375 239.394531 297.171875 240.773438 295.957031 L 242.445312 294.582031 L 243.632812 294.582031 L 243.632812 293.394531 C 244.488281 292.640625 244.488281 292.640625 245.746094 291.726562 C 248.339844 289.769531 250.796875 287.699219 253.242188 285.566406 L 254.394531 284.5625 L 256.730469 282.527344 C 261.988281 277.945312 267.296875 273.4375 272.726562 269.058594 L 274.28125 267.6875 Z M 194.945312 339.695312 L 197.320312 339.695312 C 197.03125 343.191406 195.988281 345.722656 194.316406 348.785156 L 193.585938 350.128906 C 191.609375 353.695312 189.4375 356.898438 186.632812 359.875 L 185.351562 361.253906 C 179.808594 366.710938 172.085938 370.195312 164.664062 372.339844 C 158.664062 373.875 152.191406 374.296875 146.148438 372.761719 C 145.070312 372.339844 145.070312 372.339844 143.550781 371.078125 L 142.695312 369.964844 C 145.070312 367.800781 147.488281 366.835938 150.488281 365.847656 C 166.117188 360.363281 180.878906 352.226562 193.203125 341.105469 Z M 194.945312 339.695312 " fill-opacity="1" fill-rule="nonzero"/></svg>