<svg xmlns="http://www.w3.org/2000/svg" xmlns:xlink="http://www.w3.org/1999/xlink" width="427" zoomAndPan="magnify" viewBox="0 0 320.25 359.999987" height="480" preserveAspectRatio="xMidYMid meet" version="1.0"><defs><clipPath id="e957930919"><path d="M 0 20.25 L 319.5 20.25 L 319.5 339.75 L 0 339.75 Z M 0 20.25 " clip-rule="nonzero"/></clipPath></defs><g clip-path="url(#e957930919)"><path stroke-linecap="round" transform="matrix(2.022163, 0, 0, 2.022163, -58.642729, -20.194143)" fill="none" stroke-linejoin="miter" d="M 159.999522 52.999993 C 159.161156 51.985841 158.291883 50.996801 157.397497 50.032873 C 156.50118 49.068946 155.57975 48.13013 154.631276 47.216427 C 153.682802 46.304656 152.709215 45.417997 151.710517 44.560314 C 150.711818 43.70263 149.689939 42.873923 148.644879 42.074191 C 147.599819 41.27446 146.53351 40.503704 145.444021 39.763856 C 144.356463 39.024007 143.247656 38.315066 142.117601 37.638965 C 140.989477 36.960931 139.843967 36.315737 138.677209 35.703382 C 137.512383 35.091027 136.332102 34.511512 135.134437 33.964835 C 133.936771 33.420091 132.723651 32.908185 131.49701 32.431051 C 130.270368 31.951984 129.032137 31.509621 127.780383 31.102028 C 126.528629 30.694435 125.267217 30.321614 123.994214 29.985494 C 122.721211 29.649375 121.440481 29.348027 120.152025 29.085313 C 118.861637 28.820668 117.565453 28.592725 116.263475 28.401485 C 114.961496 28.210245 113.655654 28.055707 112.344017 27.937872 C 111.03238 27.820038 109.718811 27.740837 108.40331 27.696408 C 107.08781 27.65391 105.772309 27.648115 104.456809 27.67709 C 103.141308 27.707998 101.827739 27.77754 100.51417 27.881853 C 99.202533 27.986165 97.89476 28.129113 96.590849 28.306831 C 95.286939 28.486481 93.988824 28.700901 92.696504 28.953957 C 91.404184 29.20508 90.121523 29.492906 88.844656 29.817435 C 87.569722 30.141964 86.304446 30.503195 85.048829 30.897266 C 83.793212 31.293268 82.549185 31.724041 81.31868 32.191517 C 80.088175 32.657062 78.871192 33.157377 77.667731 33.690531 C 76.466202 34.225617 75.278195 34.793543 74.107573 35.396239 C 72.936951 35.997004 71.783715 36.630607 70.649796 37.29705 C 69.513945 37.963494 68.399344 38.662776 67.302127 39.391034 C 66.206843 40.121224 65.132807 40.880389 64.08002 41.670462 C 63.027233 42.460535 61.997627 43.279584 60.991202 44.127609 C 59.984776 44.975633 59.003463 45.852634 58.04533 46.756678 C 57.089129 47.658791 56.158041 48.589879 55.252065 49.54608 C 54.34802 50.500349 53.47102 51.481662 52.621064 52.488088 C 51.773039 53.492582 50.952058 54.522188 50.160054 55.573043 C 49.369981 56.62583 48.608883 57.697934 47.876762 58.793218 C 47.146572 59.888503 46.44729 61.003105 45.778915 62.137024 C 45.11054 63.270943 44.475005 64.424179 43.872309 65.592869 C 43.269612 66.763491 42.699755 67.949566 42.164669 69.151095 C 41.627651 70.354556 41.127336 71.569607 40.65986 72.800112 C 40.192384 74.030617 39.759679 75.274644 39.361745 76.52833 C 38.963811 77.783947 38.602579 79.049223 38.276119 80.324157 C 37.95159 81.599092 37.661832 82.881753 37.406845 84.174073 C 37.15379 85.466393 36.937438 86.762577 36.755856 88.066487 C 36.576206 89.370397 36.433259 90.680103 36.327015 91.99174 C 36.218838 93.303377 36.149296 94.616946 36.118389 95.932446 C 36.08555 97.247947 36.089413 98.565379 36.131911 99.88088 C 36.174409 101.19638 36.251677 102.509949 36.367581 103.819655 C 36.483484 105.131292 36.63609 106.439065 36.825398 107.741044 C 37.016638 109.043022 37.242649 110.339206 37.505363 111.629594 C 37.768077 112.919982 38.065562 114.200712 38.401681 115.473715 C 38.735868 116.746717 39.106758 118.00813 39.512419 119.259884 C 39.920012 120.513569 40.360444 121.751801 40.835646 122.980374 C 41.312781 124.207016 41.822755 125.420135 42.3675 126.617801 C 42.912244 127.815467 43.489828 128.997679 44.100251 130.164437 C 44.712606 131.329264 45.355869 132.476705 46.03197 133.60676 C 46.708072 134.736816 47.415081 135.845622 48.152998 136.935112 C 48.892846 138.024601 49.66167 139.092842 50.45947 140.137902 C 51.259202 141.184893 52.085977 142.208704 52.941729 143.207403 C 53.799412 144.206102 54.682208 145.18162 55.593979 146.130094 C 56.50575 147.080499 57.442634 148.003861 58.406562 148.900179 C 59.370489 149.796496 60.359529 150.66577 61.37175 151.507999 C 62.383971 152.348297 63.419372 153.159619 64.477954 153.941965 C 65.536536 154.724311 66.616367 155.477682 67.715515 156.198213 C 68.816595 156.920676 69.936992 157.610299 71.076706 158.269015 C 72.21642 158.927732 73.37352 159.553608 74.549937 160.146646 C 75.724422 160.739684 76.914361 161.299882 78.121685 161.82531 C 79.329009 162.352669 80.547924 162.843326 81.782292 163.301143 C 83.016661 163.757029 84.262619 164.180075 85.5221 164.566419 C 86.779649 164.952763 88.046857 165.304336 89.325654 165.619206 C 90.604452 165.936008 91.889045 166.214175 93.183297 166.457572 C 94.477549 166.700968 95.775664 166.905731 97.081506 167.075722 C 98.387348 167.245713 99.695122 167.37707 101.00869 167.473656 C 102.322259 167.570242 103.635828 167.628194 104.951329 167.649442 C 106.268761 167.670691 107.584262 167.655238 108.899762 167.603081 C 110.215263 167.550925 111.5269 167.460134 112.836605 167.332641 C 114.148242 167.207079 115.452153 167.042883 116.754131 166.841984 C 118.054178 166.643017 119.34843 166.405415 120.636886 166.133043 C 121.923411 165.858739 123.202209 165.549664 124.47328 165.203886 C 125.742419 164.858109 127.0019 164.47756 128.251722 164.060309 C 129.499613 163.643057 130.735913 163.192967 131.958691 162.706174 C 133.181469 162.219381 134.390725 161.699748 135.584527 161.145345 C 136.778329 160.590942 137.954746 160.003699 139.115709 159.381686 C 140.276672 158.761604 141.418318 158.108683 142.542579 157.422923 C 143.666839 156.737162 144.769851 156.020495 145.853545 155.272919 C 146.937239 154.525344 147.997753 153.748793 149.037018 152.941335 C 150.076282 152.133876 151.092367 151.297442 152.08527 150.432032 C 153.078174 149.566622 154.044033 148.676099 154.986712 147.756601 C 155.929391 146.837103 156.845026 145.892492 157.733616 144.920838 C 158.622207 143.949183 159.481822 142.954348 160.314393 141.9344 C 161.146964 140.916384 161.950559 139.873256 162.725178 138.808879 C 163.497865 137.744502 164.241577 136.658876 164.954381 135.552001 C 165.667186 134.445126 166.347151 133.318934 166.996208 132.173425 C 167.645266 131.027915 168.261484 129.865021 168.844863 128.686672 C 169.428242 127.506392 169.976851 126.310658 170.494551 125.09947 C 171.01032 123.888282 171.491318 122.663572 171.937545 121.425341 C 172.385704 120.187109 172.79716 118.939218 173.173845 117.677806 C 173.548599 116.416394 173.890513 115.145322 174.195725 113.864593 C 174.499005 112.583863 174.767514 111.295407 174.99932 109.999223 " stroke="#001a4d" stroke-width="14" stroke-opacity="1" stroke-miterlimit="4"/></g><path fill="#3059a7" d="M 234.570312 175.957031 C 234.570312 177.28125 234.539062 178.601562 234.472656 179.925781 C 234.410156 181.246094 234.3125 182.566406 234.179688 183.882812 C 234.050781 185.203125 233.890625 186.515625 233.695312 187.824219 C 233.5 189.132812 233.273438 190.4375 233.015625 191.734375 C 232.757812 193.035156 232.46875 194.324219 232.148438 195.609375 C 231.824219 196.894531 231.472656 198.167969 231.089844 199.4375 C 230.703125 200.703125 230.289062 201.960938 229.84375 203.207031 C 229.398438 204.453125 228.921875 205.6875 228.414062 206.910156 C 227.90625 208.132812 227.371094 209.34375 226.804688 210.539062 C 226.238281 211.734375 225.644531 212.917969 225.019531 214.085938 C 224.394531 215.253906 223.742188 216.402344 223.0625 217.539062 C 222.382812 218.675781 221.675781 219.792969 220.9375 220.894531 C 220.203125 221.996094 219.441406 223.078125 218.652344 224.140625 C 217.863281 225.203125 217.050781 226.246094 216.210938 227.269531 C 215.371094 228.292969 214.507812 229.292969 213.617188 230.277344 C 212.726562 231.257812 211.816406 232.214844 210.878906 233.152344 C 209.945312 234.085938 208.984375 235 208.003906 235.886719 C 207.023438 236.777344 206.023438 237.640625 205 238.480469 C 203.976562 239.320312 202.929688 240.136719 201.867188 240.925781 C 200.804688 241.710938 199.722656 242.476562 198.621094 243.210938 C 197.523438 243.945312 196.402344 244.652344 195.269531 245.335938 C 194.132812 246.015625 192.980469 246.667969 191.8125 247.292969 C 190.648438 247.914062 189.464844 248.511719 188.269531 249.074219 C 187.070312 249.640625 185.859375 250.179688 184.636719 250.683594 C 183.414062 251.191406 182.179688 251.667969 180.933594 252.113281 C 179.6875 252.558594 178.429688 252.976562 177.164062 253.359375 C 175.898438 253.742188 174.621094 254.097656 173.339844 254.417969 C 172.054688 254.738281 170.761719 255.03125 169.464844 255.289062 C 168.167969 255.546875 166.863281 255.773438 165.554688 255.964844 C 164.242188 256.160156 162.929688 256.324219 161.613281 256.453125 C 160.296875 256.582031 158.976562 256.679688 157.652344 256.746094 C 156.332031 256.808594 155.007812 256.84375 153.683594 256.84375 C 152.359375 256.84375 151.039062 256.808594 149.714844 256.746094 C 148.394531 256.679688 147.074219 256.582031 145.757812 256.453125 C 144.4375 256.324219 143.125 256.160156 141.816406 255.964844 C 140.507812 255.773438 139.203125 255.546875 137.902344 255.289062 C 136.605469 255.03125 135.316406 254.738281 134.03125 254.417969 C 132.746094 254.097656 131.472656 253.742188 130.203125 253.359375 C 128.9375 252.976562 127.679688 252.558594 126.433594 252.113281 C 125.1875 251.667969 123.953125 251.191406 122.730469 250.683594 C 121.507812 250.179688 120.296875 249.640625 119.101562 249.074219 C 117.902344 248.511719 116.722656 247.914062 115.554688 247.292969 C 114.386719 246.667969 113.234375 246.015625 112.101562 245.335938 C 110.964844 244.652344 109.847656 243.945312 108.746094 243.210938 C 107.644531 242.476562 106.5625 241.710938 105.5 240.925781 C 104.4375 240.136719 103.394531 239.320312 102.371094 238.480469 C 101.347656 237.640625 100.34375 236.777344 99.363281 235.886719 C 98.382812 235 97.425781 234.085938 96.488281 233.152344 C 95.554688 232.214844 94.640625 231.257812 93.75 230.277344 C 92.863281 229.292969 91.996094 228.292969 91.160156 227.269531 C 90.320312 226.246094 89.503906 225.203125 88.714844 224.140625 C 87.925781 223.078125 87.164062 221.996094 86.429688 220.894531 C 85.695312 219.792969 84.984375 218.675781 84.304688 217.539062 C 83.625 216.402344 82.972656 215.253906 82.347656 214.085938 C 81.726562 212.917969 81.128906 211.734375 80.5625 210.539062 C 79.996094 209.34375 79.460938 208.132812 78.953125 206.910156 C 78.449219 205.6875 77.972656 204.453125 77.527344 203.207031 C 77.082031 201.960938 76.664062 200.703125 76.28125 199.4375 C 75.898438 198.167969 75.542969 196.894531 75.222656 195.609375 C 74.898438 194.324219 74.609375 193.035156 74.351562 191.734375 C 74.09375 190.4375 73.867188 189.132812 73.671875 187.824219 C 73.480469 186.515625 73.316406 185.203125 73.1875 183.882812 C 73.058594 182.566406 72.960938 181.246094 72.894531 179.925781 C 72.832031 178.601562 72.796875 177.28125 72.796875 175.957031 C 72.796875 174.632812 72.832031 173.308594 72.894531 171.988281 C 72.960938 170.664062 73.058594 169.34375 73.1875 168.027344 C 73.316406 166.710938 73.480469 165.398438 73.671875 164.085938 C 73.867188 162.777344 74.09375 161.472656 74.351562 160.175781 C 74.609375 158.878906 74.898438 157.585938 75.222656 156.300781 C 75.542969 155.019531 75.898438 153.742188 76.28125 152.476562 C 76.664062 151.207031 77.082031 149.953125 77.527344 148.707031 C 77.972656 147.460938 78.449219 146.226562 78.953125 145 C 79.460938 143.777344 79.996094 142.570312 80.5625 141.371094 C 81.128906 140.175781 81.726562 138.992188 82.347656 137.824219 C 82.972656 136.660156 83.625 135.507812 84.304688 134.371094 C 84.984375 133.234375 85.695312 132.117188 86.429688 131.015625 C 87.164062 129.917969 87.925781 128.835938 88.714844 127.773438 C 89.503906 126.707031 90.320312 125.664062 91.160156 124.640625 C 91.996094 123.617188 92.863281 122.617188 93.75 121.636719 C 94.640625 120.65625 95.554688 119.695312 96.488281 118.761719 C 97.425781 117.824219 98.382812 116.910156 99.363281 116.023438 C 100.34375 115.132812 101.347656 114.269531 102.371094 113.429688 C 103.394531 112.589844 104.4375 111.777344 105.5 110.988281 C 106.5625 110.199219 107.644531 109.4375 108.746094 108.699219 C 109.847656 107.964844 110.964844 107.257812 112.101562 106.578125 C 113.234375 105.894531 114.386719 105.242188 115.554688 104.621094 C 116.722656 103.996094 117.902344 103.402344 119.101562 102.835938 C 120.296875 102.269531 121.507812 101.734375 122.730469 101.226562 C 123.953125 100.71875 125.1875 100.242188 126.433594 99.796875 C 127.679688 99.351562 128.9375 98.9375 130.203125 98.550781 C 131.472656 98.167969 132.746094 97.816406 134.03125 97.492188 C 135.316406 97.171875 136.605469 96.882812 137.902344 96.625 C 139.203125 96.363281 140.507812 96.140625 141.816406 95.945312 C 143.125 95.75 144.4375 95.589844 145.757812 95.457031 C 147.074219 95.328125 148.394531 95.230469 149.714844 95.167969 C 151.039062 95.101562 152.359375 95.070312 153.683594 95.070312 C 155.007812 95.070312 156.332031 95.101562 157.652344 95.167969 C 158.976562 95.230469 160.296875 95.328125 161.613281 95.457031 C 162.929688 95.589844 164.242188 95.75 165.554688 95.945312 C 166.863281 96.140625 168.167969 96.363281 169.464844 96.625 C 170.761719 96.882812 172.054688 97.171875 173.339844 97.492188 C 174.621094 97.816406 175.898438 98.167969 177.164062 98.550781 C 178.429688 98.9375 179.6875 99.351562 180.933594 99.796875 C 182.179688 100.242188 183.414062 100.71875 184.636719 101.226562 C 185.859375 101.734375 187.070312 102.269531 188.269531 102.835938 C 189.464844 103.402344 190.648438 103.996094 191.8125 104.621094 C 192.980469 105.242188 194.132812 105.894531 195.269531 106.578125 C 196.402344 107.257812 197.523438 107.964844 198.621094 108.699219 C 199.722656 109.4375 200.804688 110.199219 201.867188 110.988281 C 202.933594 111.777344 203.976562 112.589844 205 113.429688 C 206.023438 114.269531 207.023438 115.132812 208.003906 116.023438 C 208.984375 116.910156 209.945312 117.824219 210.878906 118.761719 C 211.816406 119.695312 212.726562 120.65625 213.617188 121.636719 C 214.507812 122.617188 215.371094 123.617188 216.210938 124.640625 C 217.050781 125.664062 217.863281 126.707031 218.652344 127.773438 C 219.441406 128.835938 220.203125 129.917969 220.9375 131.015625 C 221.675781 132.117188 222.382812 133.234375 223.0625 134.371094 C 223.742188 135.507812 224.394531 136.660156 225.019531 137.824219 C 225.644531 138.992188 226.238281 140.175781 226.804688 141.371094 C 227.371094 142.570312 227.90625 143.777344 228.414062 145 C 228.921875 146.226562 229.398438 147.460938 229.84375 148.707031 C 230.289062 149.953125 230.703125 151.207031 231.089844 152.476562 C 231.472656 153.742188 231.824219 155.019531 232.148438 156.300781 C 232.46875 157.585938 232.757812 158.878906 233.015625 160.175781 C 233.273438 161.472656 233.5 162.777344 233.695312 164.085938 C 233.890625 165.398438 234.050781 166.710938 234.179688 168.027344 C 234.3125 169.34375 234.410156 170.664062 234.472656 171.988281 C 234.539062 173.308594 234.570312 174.632812 234.570312 175.957031 Z M 234.570312 175.957031 " fill-opacity="1" fill-rule="nonzero"/><path fill="#001a4d" d="M 192.105469 175.957031 C 192.105469 177.214844 192.042969 178.46875 191.921875 179.722656 C 191.796875 180.972656 191.613281 182.21875 191.367188 183.453125 C 191.121094 184.683594 190.816406 185.90625 190.449219 187.109375 C 190.085938 188.3125 189.664062 189.496094 189.179688 190.660156 C 188.699219 191.820312 188.160156 192.957031 187.570312 194.066406 C 186.976562 195.175781 186.328125 196.253906 185.628906 197.300781 C 184.929688 198.347656 184.183594 199.355469 183.382812 200.328125 C 182.585938 201.300781 181.742188 202.234375 180.851562 203.125 C 179.960938 204.011719 179.03125 204.855469 178.058594 205.65625 C 177.085938 206.453125 176.078125 207.203125 175.03125 207.902344 C 173.984375 208.601562 172.90625 209.246094 171.796875 209.839844 C 170.6875 210.433594 169.550781 210.96875 168.386719 211.453125 C 167.226562 211.933594 166.042969 212.355469 164.835938 212.722656 C 163.632812 213.085938 162.414062 213.394531 161.179688 213.636719 C 159.945312 213.882812 158.703125 214.070312 157.449219 214.191406 C 156.199219 214.316406 154.941406 214.375 153.683594 214.375 C 152.425781 214.375 151.171875 214.316406 149.917969 214.191406 C 148.667969 214.070312 147.421875 213.882812 146.1875 213.636719 C 144.953125 213.394531 143.734375 213.085938 142.53125 212.722656 C 141.328125 212.355469 140.144531 211.933594 138.980469 211.453125 C 137.820312 210.96875 136.683594 210.433594 135.574219 209.839844 C 134.464844 209.246094 133.386719 208.601562 132.339844 207.902344 C 131.292969 207.203125 130.28125 206.453125 129.308594 205.65625 C 128.335938 204.855469 127.40625 204.011719 126.515625 203.125 C 125.625 202.234375 124.78125 201.300781 123.984375 200.328125 C 123.1875 199.355469 122.4375 198.347656 121.738281 197.300781 C 121.039062 196.253906 120.394531 195.175781 119.800781 194.066406 C 119.207031 192.957031 118.667969 191.820312 118.1875 190.660156 C 117.707031 189.496094 117.28125 188.3125 116.917969 187.109375 C 116.550781 185.90625 116.246094 184.683594 116 183.453125 C 115.757812 182.21875 115.570312 180.972656 115.449219 179.722656 C 115.324219 178.46875 115.261719 177.214844 115.261719 175.957031 C 115.261719 174.699219 115.324219 173.441406 115.449219 172.191406 C 115.570312 170.9375 115.757812 169.695312 116 168.460938 C 116.246094 167.226562 116.550781 166.007812 116.917969 164.800781 C 117.28125 163.597656 117.707031 162.414062 118.1875 161.253906 C 118.667969 160.089844 119.207031 158.953125 119.800781 157.84375 C 120.394531 156.734375 121.039062 155.65625 121.738281 154.609375 C 122.4375 153.5625 123.1875 152.554688 123.984375 151.582031 C 124.78125 150.609375 125.625 149.675781 126.515625 148.789062 C 127.40625 147.898438 128.335938 147.054688 129.308594 146.253906 C 130.28125 145.457031 131.292969 144.707031 132.339844 144.007812 C 133.386719 143.3125 134.464844 142.664062 135.574219 142.070312 C 136.683594 141.476562 137.820312 140.941406 138.980469 140.460938 C 140.144531 139.976562 141.328125 139.554688 142.53125 139.1875 C 143.734375 138.824219 144.953125 138.519531 146.1875 138.273438 C 147.421875 138.027344 148.667969 137.84375 149.917969 137.71875 C 151.171875 137.597656 152.425781 137.535156 153.683594 137.535156 C 154.941406 137.535156 156.199219 137.597656 157.449219 137.71875 C 158.703125 137.84375 159.945312 138.027344 161.179688 138.273438 C 162.414062 138.519531 163.632812 138.824219 164.835938 139.1875 C 166.042969 139.554688 167.226562 139.976562 168.386719 140.460938 C 169.550781 140.941406 170.6875 141.476562 171.796875 142.070312 C 172.90625 142.664062 173.984375 143.3125 175.03125 144.007812 C 176.078125 144.707031 177.085938 145.457031 178.058594 146.253906 C 179.03125 147.054688 179.960938 147.898438 180.851562 148.789062 C 181.742188 149.675781 182.585938 150.609375 183.382812 151.582031 C 184.183594 152.554688 184.929688 153.5625 185.628906 154.609375 C 186.328125 155.65625 186.976562 156.734375 187.570312 157.84375 C 188.160156 158.953125 188.699219 160.089844 189.179688 161.253906 C 189.664062 162.414062 190.085938 163.597656 190.449219 164.800781 C 190.816406 166.007812 191.121094 167.226562 191.367188 168.460938 C 191.613281 169.695312 191.796875 170.9375 191.921875 172.191406 C 192.042969 173.441406 192.105469 174.699219 192.105469 175.957031 Z M 192.105469 175.957031 " fill-opacity="1" fill-rule="nonzero"/><path fill="#db9d00" d="M 313.433594 141.578125 C 313.433594 142.175781 313.40625 142.769531 313.347656 143.363281 C 313.289062 143.957031 313.203125 144.542969 313.085938 145.128906 C 312.96875 145.714844 312.824219 146.292969 312.652344 146.863281 C 312.476562 147.433594 312.277344 147.992188 312.050781 148.542969 C 311.820312 149.09375 311.566406 149.632812 311.285156 150.15625 C 311.003906 150.683594 310.699219 151.195312 310.367188 151.691406 C 310.035156 152.1875 309.683594 152.664062 309.304688 153.125 C 308.925781 153.585938 308.527344 154.027344 308.105469 154.449219 C 307.683594 154.871094 307.242188 155.269531 306.78125 155.648438 C 306.320312 156.023438 305.84375 156.378906 305.347656 156.710938 C 304.851562 157.042969 304.339844 157.347656 303.816406 157.628906 C 303.289062 157.910156 302.75 158.164062 302.199219 158.394531 C 301.648438 158.621094 301.089844 158.820312 300.519531 158.996094 C 299.949219 159.167969 299.371094 159.3125 298.785156 159.429688 C 298.203125 159.542969 297.613281 159.632812 297.019531 159.691406 C 296.425781 159.75 295.832031 159.777344 295.234375 159.777344 C 294.640625 159.777344 294.046875 159.75 293.453125 159.691406 C 292.859375 159.632812 292.269531 159.542969 291.683594 159.429688 C 291.101562 159.3125 290.523438 159.167969 289.953125 158.996094 C 289.382812 158.820312 288.820312 158.621094 288.269531 158.394531 C 287.71875 158.164062 287.183594 157.910156 286.65625 157.628906 C 286.128906 157.347656 285.621094 157.042969 285.125 156.710938 C 284.628906 156.378906 284.152344 156.023438 283.691406 155.648438 C 283.230469 155.269531 282.789062 154.871094 282.367188 154.449219 C 281.945312 154.027344 281.546875 153.585938 281.167969 153.125 C 280.789062 152.664062 280.433594 152.1875 280.101562 151.691406 C 279.773438 151.195312 279.464844 150.683594 279.183594 150.15625 C 278.902344 149.632812 278.648438 149.09375 278.421875 148.542969 C 278.195312 147.992188 277.992188 147.433594 277.820312 146.863281 C 277.648438 146.292969 277.503906 145.714844 277.386719 145.128906 C 277.269531 144.542969 277.183594 143.957031 277.125 143.363281 C 277.066406 142.769531 277.035156 142.175781 277.035156 141.578125 C 277.035156 140.984375 277.066406 140.386719 277.125 139.796875 C 277.183594 139.203125 277.269531 138.613281 277.386719 138.027344 C 277.503906 137.445312 277.648438 136.867188 277.820312 136.296875 C 277.992188 135.726562 278.195312 135.164062 278.421875 134.613281 C 278.648438 134.0625 278.902344 133.523438 279.183594 133 C 279.464844 132.472656 279.773438 131.964844 280.101562 131.46875 C 280.433594 130.972656 280.789062 130.492188 281.167969 130.035156 C 281.546875 129.574219 281.945312 129.132812 282.367188 128.710938 C 282.789062 128.289062 283.230469 127.886719 283.691406 127.511719 C 284.152344 127.132812 284.628906 126.777344 285.125 126.445312 C 285.621094 126.117188 286.132812 125.808594 286.65625 125.527344 C 287.183594 125.246094 287.71875 124.992188 288.269531 124.765625 C 288.820312 124.535156 289.382812 124.335938 289.953125 124.164062 C 290.523438 123.988281 291.101562 123.84375 291.683594 123.730469 C 292.269531 123.613281 292.859375 123.527344 293.453125 123.46875 C 294.046875 123.410156 294.640625 123.378906 295.234375 123.378906 C 295.832031 123.378906 296.425781 123.410156 297.019531 123.46875 C 297.613281 123.527344 298.203125 123.613281 298.785156 123.730469 C 299.371094 123.84375 299.949219 123.988281 300.519531 124.164062 C 301.089844 124.335938 301.648438 124.535156 302.199219 124.765625 C 302.75 124.992188 303.289062 125.246094 303.816406 125.527344 C 304.339844 125.808594 304.851562 126.117188 305.347656 126.445312 C 305.84375 126.777344 306.320312 127.132812 306.78125 127.511719 C 307.242188 127.886719 307.683594 128.289062 308.105469 128.710938 C 308.527344 129.132812 308.925781 129.574219 309.304688 130.035156 C 309.683594 130.492188 310.035156 130.972656 310.367188 131.46875 C 310.699219 131.964844 311.003906 132.472656 311.285156 133 C 311.566406 133.523438 311.820312 134.0625 312.050781 134.613281 C 312.277344 135.164062 312.476562 135.726562 312.652344 136.296875 C 312.824219 136.867188 312.96875 137.445312 313.085938 138.027344 C 313.203125 138.613281 313.289062 139.203125 313.347656 139.796875 C 313.40625 140.386719 313.433594 140.984375 313.433594 141.578125 Z M 313.433594 141.578125 " fill-opacity="1" fill-rule="nonzero"/></svg>